<svg xmlns="http://www.w3.org/2000/svg" xmlns:xlink="http://www.w3.org/1999/xlink" width="399.5" height="115.347" viewBox="0 0 399.5 115.347">
  <defs>
    <clipPath id="clip-path">
      <rect id="Rectángulo_416259" data-name="Rectángulo 416259" width="103" height="106" transform="translate(1144 273)" fill="#fff" stroke="#707070" stroke-width="1"/>
    </clipPath>
  </defs>
  <g id="Grupo_1201582" data-name="Grupo 1201582" transform="translate(-1021 -273)">
    <rect id="Rectángulo_415938" data-name="Rectángulo 415938" width="399.5" height="50.937" transform="translate(1021 312.41)" fill="#103d47"/>
    <rect id="Rectángulo_415940" data-name="Rectángulo 415940" width="275.731" height="84.937" transform="translate(1083 293.41)" fill="#1d7083"/>
    <g id="Enmascarar_grupo_1098751" data-name="Enmascarar grupo 1098751" clip-path="url(#clip-path)">
      <g id="Layer_2_00000003790795359964165230000007887497986641263785_" transform="translate(1162.869 272.653)">
        <g id="Layer_1_copy_2" transform="translate(0.038 0)">
          <g id="_28" transform="translate(0 0)">
            <path id="Trazado_1045626" data-name="Trazado 1045626" d="M35.251,326.868A52.4,52.4,0,0,1,1.815,314.8a4.844,4.844,0,0,1-1.74-4.338L.5,306.6c.791-7.184,5.49-32.374,12.222-35.04,7.071-2.8,10.6-6.055,12.064-7.726A4.556,4.556,0,0,1,28.2,262.3H43.316a4.556,4.556,0,0,1,3.411,1.536c1.468,1.694,5.015,4.925,12.087,7.726,6.71,2.688,11.409,27.856,12.2,35.04l.339,3.05a4.931,4.931,0,0,1-1.649,4.27,52.125,52.125,0,0,1-34.453,12.945Z" transform="translate(-0.038 -203.041)"/>
            <path id="Trazado_1045627" data-name="Trazado 1045627" d="M74.067,315.759a3.872,3.872,0,0,1-1.265,3.3,51.314,51.314,0,0,1-66.465.859A3.8,3.8,0,0,1,5,316.55l.429-3.841c.746-6.778,5.2-33.584,11.522-36.114,7.3-2.892,10.98-6.3,12.516-8.043a3.394,3.394,0,0,1,2.575-1.152H47.16a3.429,3.429,0,0,1,2.575,1.152c1.536,1.74,5.2,5.151,12.516,8.043,6.326,2.53,10.754,29.336,11.5,36.114Z" transform="translate(-3.86 -206.989)" fill="#e749ba"/>
            <path id="Trazado_1045628" data-name="Trazado 1045628" d="M76.039,64a4.906,4.906,0,0,1-1.288-.158L49.29,57.384,23.806,63.822a5.025,5.025,0,0,1-1.288.158A5.226,5.226,0,0,1,17.3,58.739V30.386a30.346,30.346,0,0,1,6.845-19.2,11.948,11.948,0,0,1,4.654-3.1,20.386,20.386,0,0,0,2.688-1.423A23.109,23.109,0,0,0,33.95,4.677a14.675,14.675,0,0,1,5.829-3.637A30.156,30.156,0,0,1,47.686,0h3.208A30.41,30.41,0,0,1,81.28,30.386V58.762A5.245,5.245,0,0,1,76.039,64Z" transform="translate(-13.4 0)"/>
            <path id="Trazado_1045629" data-name="Trazado 1045629" d="M51.3,5h3.231A29.243,29.243,0,0,1,83.766,34.257V62.632a4.112,4.112,0,0,1-4.112,4.112,3.931,3.931,0,0,1-1.017-.136L52.883,60.079,27.128,66.608a4.105,4.105,0,0,1-4.993-2.982A3.931,3.931,0,0,1,22,62.609V34.257a29.089,29.089,0,0,1,6.619-18.5c1.785-2.191,4.744-2.688,7.094-4.292,2.666-1.807,4.767-4.609,7.952-5.467A29.159,29.159,0,0,1,51.3,5Z" transform="translate(-17.038 -3.87)" fill="#4f5c7f"/>
            <path id="Trazado_1045630" data-name="Trazado 1045630" d="M75.128,137.9C61.822,137.9,51,125.249,51,109.683a32.429,32.429,0,0,1,.971-7.93A2.035,2.035,0,0,1,53.6,100.24c2.869-.474,7.162-2.237,11.409-8.088a2.026,2.026,0,0,1,2.847-.429,1.934,1.934,0,0,1,.429.429c2.417,3.276,11.477,13.984,27.065,13.984.565,0,1.13-.023,1.694-.045h.09a2.033,2.033,0,0,1,2.033,1.92c.023.565.045,1.13.045,1.672.023,15.543-10.8,28.217-24.083,28.217Z" transform="translate(-39.487 -70.69)"/>
            <path id="Trazado_1045631" data-name="Trazado 1045631" d="M69.8,96.485c-4.518,6.213-9.15,8.043-12.154,8.54a.926.926,0,0,0-.723.678A31.3,31.3,0,0,0,56,113.361c0,14.956,10.3,27.11,23,27.11s23-12.132,23-27.11c0-.542-.023-1.084-.045-1.627a.908.908,0,0,0-.949-.858c-17.192.836-27.11-10.8-29.731-14.414a.9.9,0,0,0-1.265-.181A1.7,1.7,0,0,0,69.8,96.485Z" transform="translate(-43.357 -74.39)" fill="#f7d1b2"/>
          </g>
        </g>
      </g>
    </g>
    <g id="Grupo_1201581" data-name="Grupo 1201581" transform="translate(1162.908 272.653)">
      <path id="Trazado_1045632" data-name="Trazado 1045632" d="M263.8,273.931v-56.8a5.53,5.53,0,0,1,5.535-5.535h45.026a5.529,5.529,0,0,1,5.535,5.535v56.819a5.53,5.53,0,0,1-5.535,5.535H269.312a5.544,5.544,0,0,1-5.512-5.558Z" transform="translate(-204.211 -163.795)"/>
      <path id="Trazado_1045633" data-name="Trazado 1045633" d="M273.105,216.6h45.026a4.406,4.406,0,0,1,4.405,4.383V277.8a4.411,4.411,0,0,1-4.405,4.405H273.105A4.411,4.411,0,0,1,268.7,277.8v-56.8A4.426,4.426,0,0,1,273.105,216.6Z" transform="translate(-208.004 -167.666)" fill="#fc0"/>
      <path id="Trazado_1045634" data-name="Trazado 1045634" d="M332.328,196.412a4.435,4.435,0,0,1-4.428-4.428v-4.609a4.435,4.435,0,0,1,4.428-4.428h1.762a4.592,4.592,0,0,1,4.473-3.547h5.784a4.611,4.611,0,0,1,4.473,3.547h1.762a4.435,4.435,0,0,1,4.428,4.428v4.609a4.435,4.435,0,0,1-4.428,4.428Z" transform="translate(-253.83 -138.87)"/>
      <path id="Trazado_1045635" data-name="Trazado 1045635" d="M354.453,187.947h-2.779v-.09a3.457,3.457,0,0,0-3.457-3.457h-5.784a3.457,3.457,0,0,0-3.457,3.457v.09H336.2a3.288,3.288,0,0,0-3.3,3.3v4.609a3.288,3.288,0,0,0,3.3,3.3h18.254a3.288,3.288,0,0,0,3.3-3.3v-4.609A3.288,3.288,0,0,0,354.453,187.947Z" transform="translate(-257.7 -142.74)" fill="#ff3f5c"/>
      <path id="Trazado_1045636" data-name="Trazado 1045636" d="M316.158,327.83a2.905,2.905,0,0,1-2.056-.836L303.6,316.466a2.907,2.907,0,0,1,4.112-4.112l8.472,8.472L336.288,300.7a2.907,2.907,0,1,1,4.112,4.112l-22.185,22.185A2.905,2.905,0,0,1,316.158,327.83Z" transform="translate(-234.362 -232.108)"/>
      <path id="Trazado_1045637" data-name="Trazado 1045637" d="M319.842,330.541a1.688,1.688,0,0,1-1.243-.52l-10.528-10.505a1.774,1.774,0,1,1,2.417-2.6l.09.09,9.263,9.263,20.92-20.92a1.774,1.774,0,1,1,2.553,2.463l-.045.045-22.163,22.163A1.777,1.777,0,0,1,319.842,330.541Z" transform="translate(-238.045 -235.948)" fill="#fff"/>
    </g>
  </g>
</svg>
