<svg xmlns="http://www.w3.org/2000/svg" xmlns:xlink="http://www.w3.org/1999/xlink" width="118" height="118" viewBox="0 0 118 118">
  <defs>
    <filter id="Trazado_982547" x="0" y="0" width="118" height="118" filterUnits="userSpaceOnUse">
      <feOffset dy="3" input="SourceAlpha"/>
      <feGaussianBlur stdDeviation="3" result="blur"/>
      <feFlood flood-opacity="0.161"/>
      <feComposite operator="in" in2="blur"/>
      <feComposite in="SourceGraphic"/>
    </filter>
  </defs>
  <g id="Grupo_1201362" data-name="Grupo 1201362" transform="translate(-271.5 -2607.015)">
    <g id="Grupo_1173988" data-name="Grupo 1173988" transform="translate(280.5 2613.015)">
      <g id="Grupo_1172010" data-name="Grupo 1172010">
        <g id="Grupo_1171046" data-name="Grupo 1171046">
          <g id="Grupo_1148525" data-name="Grupo 1148525">
            <g transform="matrix(1, 0, 0, 1, -9, -6)" filter="url(#Trazado_982547)">
              <g id="Trazado_982547-2" data-name="Trazado 982547" transform="translate(9 6)" fill="#edf3fc">
                <path d="M 50 98.5 C 43.45188522338867 98.5 37.10042953491211 97.21787261962891 31.12207221984863 94.68923950195312 C 25.34691429138184 92.24655914306641 20.15997123718262 88.74931335449219 15.70532894134521 84.29468536376953 C 11.2506856918335 79.84004211425781 7.753442764282227 74.65309906005859 5.310757160186768 68.8779296875 C 2.782128572463989 62.89957046508789 1.5 56.54811477661133 1.5 50 C 1.5 43.45188522338867 2.782128572463989 37.10042953491211 5.310757160186768 31.12207221984863 C 7.753442764282227 25.34691429138184 11.2506856918335 20.15997123718262 15.70532894134521 15.70532894134521 C 20.15997123718262 11.2506856918335 25.34691429138184 7.753442764282227 31.12207221984863 5.310757160186768 C 37.10042953491211 2.782128572463989 43.45188522338867 1.5 50 1.5 C 56.54811477661133 1.5 62.89957046508789 2.782128572463989 68.8779296875 5.310757160186768 C 74.65309906005859 7.753442764282227 79.84004211425781 11.2506856918335 84.29468536376953 15.70532894134521 C 88.74931335449219 20.15997123718262 92.24655914306641 25.34691429138184 94.68923950195312 31.12207221984863 C 97.21787261962891 37.10042953491211 98.5 43.45188522338867 98.5 50 C 98.5 56.54811477661133 97.21787261962891 62.89957046508789 94.68923950195312 68.8779296875 C 92.24655914306641 74.65309906005859 88.74931335449219 79.84004211425781 84.29468536376953 84.29468536376953 C 79.84004211425781 88.74931335449219 74.65309906005859 92.24655914306641 68.8779296875 94.68923950195312 C 62.89957046508789 97.21787261962891 56.54811477661133 98.5 50 98.5 Z" stroke="none"/>
                <path d="M 50 3 C 43.65372467041016 3 37.49886322021484 4.242263793945312 31.70639801025391 6.6922607421875 C 26.11003112792969 9.059326171875 21.08335113525391 12.44861602783203 16.76598358154297 16.76598358154297 C 12.44861602783203 21.08335113525391 9.059326171875 26.11003112792969 6.6922607421875 31.70639801025391 C 4.242263793945312 37.49886322021484 3 43.65372467041016 3 50 C 3 56.34627532958984 4.242263793945312 62.50113677978516 6.6922607421875 68.29360198974609 C 9.059326171875 73.88996887207031 12.44861602783203 78.91666412353516 16.76598358154297 83.23401641845703 C 21.08335113525391 87.55138397216797 26.11003112792969 90.940673828125 31.70639801025391 93.3077392578125 C 37.49886322021484 95.75773620605469 43.65372467041016 97 50 97 C 56.34627532958984 97 62.50113677978516 95.75773620605469 68.29360198974609 93.3077392578125 C 73.88996887207031 90.940673828125 78.91666412353516 87.55138397216797 83.23401641845703 83.23401641845703 C 87.55138397216797 78.91666412353516 90.940673828125 73.88996887207031 93.3077392578125 68.29360198974609 C 95.75773620605469 62.50113677978516 97 56.34627532958984 97 50 C 97 43.65372467041016 95.75773620605469 37.49886322021484 93.3077392578125 31.70639801025391 C 90.940673828125 26.11003112792969 87.55138397216797 21.08335113525391 83.23401641845703 16.76598358154297 C 78.91666412353516 12.44861602783203 73.88996887207031 9.059326171875 68.29360198974609 6.6922607421875 C 62.50113677978516 4.242263793945312 56.34627532958984 3 50 3 M 50 0 C 77.61424255371094 0 100 22.38577270507812 100 50 C 100 77.61424255371094 77.61424255371094 100 50 100 C 22.38577270507812 100 0 77.61424255371094 0 50 C 0 22.38577270507812 22.38577270507812 0 50 0 Z" stroke="none" fill="#5692e8"/>
              </g>
            </g>
          </g>
        </g>
      </g>
    </g>
    <g id="diagram_3286099" transform="translate(303.146 2635.662)">
      <g id="Grupo_1201601" data-name="Grupo 1201601" transform="translate(0.801 0.801)">
        <path id="Trazado_1045657" data-name="Trazado 1045657" d="M59.536,60.6H8.568A1.068,1.068,0,0,1,7.5,59.536V8.568A1.068,1.068,0,0,1,8.568,7.5H59.536A1.068,1.068,0,0,1,60.6,8.568V59.536A1.068,1.068,0,0,1,59.536,60.6Z" transform="translate(-7.5 -7.5)" fill="#b5dbfd"/>
        <path id="Trazado_1045658" data-name="Trazado 1045658" d="M462.7,8.568V59.536a1.069,1.069,0,0,1-1.069,1.068H457.7a1.069,1.069,0,0,0,1.068-1.068V8.568A1.069,1.069,0,0,0,457.7,7.5h3.932A1.069,1.069,0,0,1,462.7,8.568Z" transform="translate(-409.596 -7.5)" fill="#8dcafc"/>
        <g id="Grupo_1201592" data-name="Grupo 1201592" transform="translate(6.799 29.227)">
          <path id="Trazado_1045659" data-name="Trazado 1045659" d="M142.75,285.73s-5.617-4.7-8.167-4.7c-5.915,0-6.55,11.127-18.231,11.127-10.216,0-12.109,8.034-12.109,8.034H142.75Z" transform="translate(-100.705 -281.032)" fill="#fddd45"/>
          <path id="Trazado_1045660" data-name="Trazado 1045660" d="M358.613,285.728v3.662c-2.179-1.6-8.617-6.214-10.723-6.214a4.38,4.38,0,0,0-1.96.456c1.323-1.506,2.658-2.6,4.515-2.6C353,281.03,358.613,285.728,358.613,285.728Z" transform="translate(-316.568 -281.03)" fill="#f8c52d"/>
          <path id="Trazado_1045661" data-name="Trazado 1045661" d="M71.129,308.644h42.046V290.495s-3.124,7.458-7.5,8.31c-6.48,1.263-7.526-.257-11.385,4.055s-10.392-1.222-16.637,1.05C72.688,305.718,71.129,308.644,71.129,308.644Z" transform="translate(-71.129 -289.484)" fill="#fc9744"/>
          <path id="Trazado_1045662" data-name="Trazado 1045662" d="M432.5,290.49v18.15H428.66V296.521A23,23,0,0,0,432.5,290.49Z" transform="translate(-390.458 -289.479)" fill="#fb7722"/>
        </g>
        <g id="Grupo_1201595" data-name="Grupo 1201595" transform="translate(5.486 4.359)">
          <g id="Grupo_1201593" data-name="Grupo 1201593">
            <path id="Trazado_1045663" data-name="Trazado 1045663" d="M73.462,57.856l-.889-2.27a5.9,5.9,0,0,1-.356-1.423A6.714,6.714,0,1,0,61.6,60.426a1.214,1.214,0,0,1,.5.98v3.385a1.181,1.181,0,0,0,1.181,1.181h5.37a1.181,1.181,0,0,0,1.181-1.181V62.429l1.956-.177a.837.837,0,0,0,.753-.951l-.354-2.493,1.063-.447a.392.392,0,0,0,.213-.5Z" transform="translate(-58.842 -48.291)" fill="#fddd45"/>
          </g>
          <g id="Grupo_1201594" data-name="Grupo 1201594" transform="translate(5.142 0)">
            <path id="Trazado_1045664" data-name="Trazado 1045664" d="M116.227,58.364l-1.063.447.354,2.493a.836.836,0,0,1-.753.951l-1.957.177v2.363a1.181,1.181,0,0,1-1.181,1.181h-3.158a1.182,1.182,0,0,0,1.181-1.181V62.972a.591.591,0,0,1,.537-.588l1.418-.129a.836.836,0,0,0,.753-.951l-.353-2.493,1.062-.447a.393.393,0,0,0,.214-.5l-.89-2.27a5.9,5.9,0,0,1-.357-1.424,6.717,6.717,0,0,0-5.073-5.683,6.514,6.514,0,0,1,1.415-.187,6.713,6.713,0,0,1,6.817,5.87,5.908,5.908,0,0,0,.357,1.424l.89,2.27A.393.393,0,0,1,116.227,58.364Z" transform="translate(-106.962 -48.295)" fill="#fdd330"/>
          </g>
        </g>
        <g id="Grupo_1201598" data-name="Grupo 1201598" transform="translate(23.749 3.337)">
          <g id="Grupo_1201596" data-name="Grupo 1201596">
            <path id="Trazado_1045665" data-name="Trazado 1045665" d="M243.7,58.064a9.785,9.785,0,1,0-11.909-9.405l-1.82,1.831a.7.7,0,0,0,.255,1.148l2.424.888A9.788,9.788,0,0,0,243.7,58.064Z" transform="translate(-229.767 -38.727)" fill="#27d1b3"/>
          </g>
          <g id="Grupo_1201597" data-name="Grupo 1201597" transform="translate(4.071 1.572)">
            <path id="Trazado_1045666" data-name="Trazado 1045666" d="M277.727,71.2a9.783,9.783,0,0,1-9.861-3.561,9.78,9.78,0,0,0,13.035-14.2A9.774,9.774,0,0,1,277.727,71.2Z" transform="translate(-267.866 -53.438)" fill="#20b69f"/>
          </g>
        </g>
        <g id="Grupo_1201599" data-name="Grupo 1201599" transform="translate(38.269 26.21)">
          <circle id="Elipse_12468" data-name="Elipse 12468" cx="2.732" cy="2.732" r="2.732" fill="#fb4a59"/>
          <path id="Trazado_1045667" data-name="Trazado 1045667" d="M373.828,255.7a2.732,2.732,0,0,1-5.14,1.29,2.613,2.613,0,0,0,.333.021,2.731,2.731,0,0,0,2.408-4.021A2.731,2.731,0,0,1,373.828,255.7Z" transform="translate(-368.364 -252.969)" fill="#f82f40"/>
        </g>
        <g id="Grupo_1201600" data-name="Grupo 1201600" transform="translate(11.246 40.607)">
          <circle id="Elipse_12469" data-name="Elipse 12469" cx="2.384" cy="2.384" r="2.384" fill="#fb4a59"/>
          <path id="Trazado_1045668" data-name="Trazado 1045668" d="M119.883,390.08a2.384,2.384,0,0,1-4.485,1.125,2.279,2.279,0,0,0,.291.018,2.384,2.384,0,0,0,2.1-3.509A2.383,2.383,0,0,1,119.883,390.08Z" transform="translate(-115.115 -387.696)" fill="#f82f40"/>
        </g>
      </g>
      <g id="Grupo_1201602" data-name="Grupo 1201602">
        <path id="Trazado_1045669" data-name="Trazado 1045669" d="M264.093,267.351a.8.8,0,0,0-.8.8v23.469a.267.267,0,0,1-.267.267H236.31a.812.812,0,0,0-.175-.019.8.8,0,0,0-.8.768c0,.016,0,.033,0,.047a.8.8,0,0,0,.8.808h26.891a1.872,1.872,0,0,0,1.87-1.87v-23.47A.8.8,0,0,0,264.093,267.351Z" transform="translate(-210.187 -238.785)"/>
        <path id="Trazado_1045670" data-name="Trazado 1045670" d="M52.837,0H1.87A1.872,1.872,0,0,0,0,1.87V52.837a1.872,1.872,0,0,0,1.87,1.87h20.3a.8.8,0,0,0,.8-.814c0-.015,0-.029,0-.044a.8.8,0,0,0-.976-.744H1.87a.267.267,0,0,1-.267-.267V1.87A.267.267,0,0,1,1.87,1.6H52.837a.267.267,0,0,1,.267.267V25.586a.8.8,0,0,0,1.6,0V1.87A1.872,1.872,0,0,0,52.837,0Z"/>
        <path id="Trazado_1045671" data-name="Trazado 1045671" d="M39.868,208.568a.8.8,0,0,0,.8.8H85.254a.8.8,0,0,0,.8-.8v-29.32a.8.8,0,0,0-1.6,0v11.007c-.186.43-.455.987-.791,1.6-.806-.588-1.815-1.282-2.826-1.871a3.533,3.533,0,1,0-6.918-.331,17.515,17.515,0,0,0-3.268,3.419c-2.509,3.12-5.353,6.657-11.794,6.657a15.414,15.414,0,0,0-6.461,1.3,3.184,3.184,0,0,0-5.376,3.148,12.309,12.309,0,0,0-4.247,3.589h-2.1A.8.8,0,0,0,39.868,208.568Zm8.011-.8a10.31,10.31,0,0,1,.91-1.665,3.184,3.184,0,0,0,4.307-2.036,24.286,24.286,0,0,1,4.892.635,22.375,22.375,0,0,0,4.268.576,5.93,5.93,0,0,0,4.713-1.959c2.529-2.826,3.581-2.923,6.391-3.184a42.633,42.633,0,0,0,4.551-.619c2.842-.554,5.133-3.488,6.541-5.818v14.069H47.879ZM77.41,187.191a1.93,1.93,0,1,1-1.93,1.93A1.932,1.932,0,0,1,77.41,187.191ZM58.855,201.336c7.209,0,10.444-4.023,13.043-7.256a18.727,18.727,0,0,1,2.648-2.893,3.527,3.527,0,0,0,5.551.225c.985.579,1.975,1.267,2.748,1.835-1.321,2.08-3.2,4.3-5.24,4.694a41.265,41.265,0,0,1-4.392.6c-2.894.269-4.488.417-7.437,3.711-1.8,2.013-4.3,1.513-7.473.88a25.731,25.731,0,0,0-5.159-.667l0-.013A13.891,13.891,0,0,1,58.855,201.336Zm-8.816.254a1.583,1.583,0,1,1-1.583,1.583A1.584,1.584,0,0,1,50.04,201.589ZM46.914,206.1a11.231,11.231,0,0,0-.758,1.669h-1.31A11.421,11.421,0,0,1,46.914,206.1Z" transform="translate(-35.608 -159.379)"/>
        <path id="Trazado_1045672" data-name="Trazado 1045672" d="M67.509,50.866,66.62,48.6a5.117,5.117,0,0,1-.307-1.23,7.515,7.515,0,1,0-11.887,7.01.415.415,0,0,1,.172.333v3.385a1.985,1.985,0,0,0,1.983,1.983h5.37a1.985,1.985,0,0,0,1.983-1.983V56.463l1.227-.111a1.638,1.638,0,0,0,1.474-1.862l-.267-1.881.493-.207A1.186,1.186,0,0,0,67.509,50.866Zm-2.333.5a.8.8,0,0,0-.483.852l.354,2.493a.035.035,0,0,1-.032.04l-1.956.177a.8.8,0,0,0-.729.8v2.363a.381.381,0,0,1-.38.38h-5.37a.381.381,0,0,1-.38-.38V54.709a2.023,2.023,0,0,0-.829-1.627A5.917,5.917,0,0,1,58.718,42.4l.139,0a5.892,5.892,0,0,1,5.866,5.17,6.712,6.712,0,0,0,.405,1.616l.744,1.9Z" transform="translate(-45.856 -36.433)"/>
        <path id="Trazado_1045673" data-name="Trazado 1045673" d="M56.355,247.632h4.32a.8.8,0,1,0,0-1.6h-4.32a.8.8,0,1,0,0,1.6Z" transform="translate(-49.618 -219.741)"/>
        <path id="Trazado_1045674" data-name="Trazado 1045674" d="M72.539,281.665H56.355a.8.8,0,0,0,0,1.6H72.539a.8.8,0,0,0,0-1.6Z" transform="translate(-49.618 -251.569)"/>
        <path id="Trazado_1045675" data-name="Trazado 1045675" d="M73.341,309.141a.8.8,0,0,0-.8-.8H56.355a.8.8,0,1,0,0,1.6H72.539A.8.8,0,0,0,73.341,309.141Z" transform="translate(-49.618 -275.394)"/>
        <path id="Trazado_1045676" data-name="Trazado 1045676" d="M56.355,335.015a.8.8,0,0,0,0,1.6h9.239a.8.8,0,0,0,0-1.6Z" transform="translate(-49.618 -299.219)"/>
        <path id="Trazado_1045677" data-name="Trazado 1045677" d="M225.891,41.957a8.949,8.949,0,0,1,1.362-4.885.8.8,0,1,0-1.36-.848,10.553,10.553,0,0,0-1.6,5.414l-1.587,1.6a1.5,1.5,0,0,0,.548,2.465l2.114.774a10.63,10.63,0,0,0,9.528,5.933,10.585,10.585,0,0,0,10.3-12.957,10.63,10.63,0,0,0-12.529-7.981,10.515,10.515,0,0,0-3.976,1.763.8.8,0,0,0,.938,1.3,8.924,8.924,0,0,1,3.374-1.5,9.021,9.021,0,0,1,10.632,6.773,8.985,8.985,0,0,1-16.95,5.7.8.8,0,0,0-.456-.425l-2.273-.832,1.706-1.717a.8.8,0,0,0,.233-.578Z" transform="translate(-198.516 -27.901)"/>
        <path id="Trazado_1045678" data-name="Trazado 1045678" d="M298.767,110.827a.8.8,0,0,0,.8.8H307.2a.8.8,0,1,0,0-1.6h-7.631A.8.8,0,0,0,298.767,110.827Z" transform="translate(-266.844 -98.27)"/>
        <path id="Trazado_1045679" data-name="Trazado 1045679" d="M299.568,137.787H307.2a.8.8,0,1,0,0-1.6h-7.631a.8.8,0,0,0,0,1.6Z" transform="translate(-266.844 -121.633)"/>
        <path id="Trazado_1045680" data-name="Trazado 1045680" d="M299.568,163.841H307.2a.8.8,0,1,0,0-1.6h-7.631a.8.8,0,0,0,0,1.6Z" transform="translate(-266.844 -144.903)"/>
        <path id="Trazado_1045681" data-name="Trazado 1045681" d="M347.1,75.224a.8.8,0,1,0,0-1.6h-2.616a.8.8,0,1,0,0,1.6Z" transform="translate(-306.965 -65.755)"/>
        <path id="Trazado_1045682" data-name="Trazado 1045682" d="M249.844,250.792a.8.8,0,0,0,1.133,0l1.525-1.526a.8.8,0,0,0,0-1.133l-1.525-1.526a.8.8,0,0,0-1.133,1.133l.959.959-.959.959A.8.8,0,0,0,249.844,250.792Z" transform="translate(-222.939 -220.048)"/>
        <path id="Trazado_1045683" data-name="Trazado 1045683" d="M285.467,250.792a.8.8,0,0,0,1.133,0l1.526-1.525a.8.8,0,0,0,0-1.133l-1.526-1.525a.8.8,0,0,0-1.133,1.133l.959.959-.959.959A.8.8,0,0,0,285.467,250.792Z" transform="translate(-254.755 -220.048)"/>
      </g>
    </g>
  </g>
</svg>
