<svg xmlns="http://www.w3.org/2000/svg" width="28.842" height="36.055" viewBox="0 0 28.842 36.055">
  <g id="Page-1" transform="translate(0 0.004)">
    <g id="_001---Happy-Boy" data-name="001---Happy-Boy" transform="translate(0 -0.004)">
      <path id="Shape" d="M2.7,22.029h.457a11.436,11.436,0,0,0,7.655,9.022v.592h-1.8A4.812,4.812,0,0,0,4.206,36.45a.6.6,0,0,0,.6.6H24.035a.6.6,0,0,0,.6-.6,4.807,4.807,0,0,0-4.807-4.807h-1.8v-.592a11.436,11.436,0,0,0,7.655-9.022h.457a2.7,2.7,0,0,0,0-5.408H25.9a13.894,13.894,0,0,0-.77-13.52l-1.242-1.77a.6.6,0,0,0-.481-.256.58.58,0,0,0-.49.24A5.823,5.823,0,0,1,18.9,3.434C16.14.491,8.691,1.024,8.366,1.049a.6.6,0,0,0-.453.934c.568.85-.029,1.752-.531,2.291A4.239,4.239,0,0,0,4.206,2.844a.6.6,0,0,0-.492.255,13.894,13.894,0,0,0-.77,13.522H2.7a2.7,2.7,0,0,0,0,5.408ZM22.379,33.9a3.573,3.573,0,0,1,1.006,1.949H5.458a3.611,3.611,0,0,1,3.555-3H10.9a2.4,2.4,0,0,0,2.318,1.8h2.4a2.4,2.4,0,0,0,2.318-1.8h1.888A3.582,3.582,0,0,1,22.379,33.9Zm-5.554-1.657a1.2,1.2,0,0,1-1.2,1.2h-2.4a1.2,1.2,0,0,1-1.2-1.2v-.86a11.257,11.257,0,0,0,4.807,0Zm-2.4-1.8A10.226,10.226,0,0,1,4.206,20.227V16.862A21.726,21.726,0,0,0,6.62,13.878c3.268.307,9.048.32,14.152-2.413a23.809,23.809,0,0,0,3.864,5.4v3.365A10.226,10.226,0,0,1,14.421,30.441ZM27.2,18.269a1.472,1.472,0,0,1,.44,1.056,1.5,1.5,0,0,1-1.5,1.5h-.331c.011-.2.031-.4.031-.6v-2.4h.3A1.477,1.477,0,0,1,27.2,18.269ZM4.518,4.07A2.435,2.435,0,0,1,6.641,5.432a.6.6,0,0,0,.93.291C8.4,5.105,9.613,3.7,9.3,2.2c2.51-.072,7.257.216,8.862,2.215a.6.6,0,0,0,.469.225,6.793,6.793,0,0,0,4.707-2.008l.811,1.153a12.878,12.878,0,0,1,.918,11.777,23,23,0,0,1-3.485-5.186.6.6,0,0,0-.849-.27C15.6,13.1,9.539,12.98,6.385,12.645a.594.594,0,0,0-.565.267,21.717,21.717,0,0,1-2.043,2.656,12.706,12.706,0,0,1,.741-11.5ZM1.648,18.263a1.472,1.472,0,0,1,1.056-.44H3v2.4c0,.2.02.4.031.6H2.7a1.5,1.5,0,0,1-1.5-1.5A1.477,1.477,0,0,1,1.648,18.263Z" transform="translate(0 -0.996)"/>
    </g>
  </g>
</svg>
