<svg xmlns="http://www.w3.org/2000/svg" width="32.587" height="37.914" viewBox="0 0 32.587 37.914">
  <path id="aprendizaje-automatico" d="M71.944,26.288a11.09,11.09,0,0,0-22.181,0c-.1,4.51,1.975,6.936,3.81,9.077,1.272,1.484,2.371,2.766,2.621,4.531a.462.462,0,0,0,.458.4h8.4a.462.462,0,0,0,.458-.4c.25-1.765,1.349-3.047,2.621-4.531C69.969,33.224,72.048,30.8,71.944,26.288ZM59.207,29.456a.463.463,0,0,0-.59-.284,2.353,2.353,0,0,0-1.53,1.782,1.4,1.4,0,0,1-.2.015,1.429,1.429,0,0,1-1.427-1.427,1.411,1.411,0,0,1,.322-.9A2.432,2.432,0,0,0,57.383,28a.463.463,0,1,0-.623-.684,1.515,1.515,0,1,1,.119-2.118.463.463,0,0,0,.7-.61,2.442,2.442,0,0,0-1.836-.832l-.087,0a1.426,1.426,0,0,1,1.23-2.15,1.511,1.511,0,0,1,.2.015,2.353,2.353,0,0,0,1.53,1.782.463.463,0,1,0,.306-.873,1.427,1.427,0,1,1,1.453-2.383V32.347c0,.026,0,.052,0,.079l0,0a1.427,1.427,0,1,1-1.455-2.383.462.462,0,0,0,.284-.59Zm3.642-7.621a4.748,4.748,0,0,1,.651.27.938.938,0,0,0,1.089-.173l.82-.82a.016.016,0,0,1,.022,0l1.136,1.136a.017.017,0,0,1,0,.021l-.82.82a.937.937,0,0,0-.174,1.089,4.7,4.7,0,0,1,.27.651.938.938,0,0,0,.893.647h1.159a.017.017,0,0,1,.015.015V27.1a.016.016,0,0,1-.015.015H66.735a.938.938,0,0,0-.893.647,4.7,4.7,0,0,1-.27.651.937.937,0,0,0,.174,1.089l.82.82a.019.019,0,0,1,0,.022L65.43,31.475a.019.019,0,0,1-.022,0l-.82-.82a.937.937,0,0,0-1.089-.174,4.658,4.658,0,0,1-.651.27.938.938,0,0,0-.647.893v1.019a.016.016,0,0,1-.015.015h-.553a.333.333,0,0,1-.333-.333V29.41h.082a3.119,3.119,0,0,0,0-6.239H61.3V19.766h.886a.016.016,0,0,1,.015.015V20.94A.937.937,0,0,0,62.848,21.835ZM61.384,24.1a2.195,2.195,0,1,1,0,4.389l-.082,0V24.1l.082,0Zm-.589,9.182a1.249,1.249,0,0,0,.817.322l-.428,2.948h-.661L60.1,33.636A2.3,2.3,0,0,0,60.795,33.281Zm1.895,4.2v1.893H59.017V37.476Zm4.742-2.713a10.554,10.554,0,0,0-2.764,4.606H63.614V37.014a.463.463,0,0,0-.462-.462H62.118l.439-3.023a.941.941,0,0,0,.569-.863V31.646c0-.01,0-.012.01-.015a5.647,5.647,0,0,0,.781-.324c.009,0,.01,0,.018,0l.82.82a.939.939,0,0,0,1.328,0l1.136-1.136a.939.939,0,0,0,0-1.329l-.82-.82c-.007-.007-.008-.008,0-.018a5.649,5.649,0,0,0,.324-.781c0-.009,0-.01.015-.01h1.159a.941.941,0,0,0,.94-.939V25.492a.941.941,0,0,0-.94-.94H66.735c-.01,0-.012,0-.015-.01a5.689,5.689,0,0,0-.324-.781c0-.009,0-.01,0-.018l.82-.82a.939.939,0,0,0,0-1.328l-1.136-1.136a.941.941,0,0,0-1.329,0l-.82.82c-.007.007-.008.008-.018,0a5.608,5.608,0,0,0-.781-.324c-.009,0-.011,0-.011-.015V19.785a.941.941,0,0,0-.939-.939H60.837a.462.462,0,0,0-.406.241A2.351,2.351,0,0,0,57.1,20.7c-.071-.006-.143-.01-.214-.01a2.351,2.351,0,0,0-2.155,3.294,2.439,2.439,0,0,0,.069,4.469A2.353,2.353,0,0,0,56.88,31.9c.072,0,.143,0,.214-.01a2.356,2.356,0,0,0,2.082,1.848l.41,2.818H58.553a.463.463,0,0,0-.462.462v2.355H57.039a10.562,10.562,0,0,0-2.764-4.606c-1.812-2.114-3.684-4.3-3.587-8.459V26.3a10.166,10.166,0,0,1,20.331,0v.011C71.117,30.464,69.244,32.649,67.432,34.763ZM60.391,13.3v-2.84a.462.462,0,0,1,.925,0V13.3a.462.462,0,0,1-.925,0Zm6.558,1.51,1.419-2.459a.463.463,0,1,1,.8.462L67.75,15.274a.463.463,0,0,1-.8-.462ZM71.7,20.029a.463.463,0,0,1,.17-.632l2.459-1.419a.463.463,0,0,1,.462.8L72.336,20.2a.456.456,0,0,1-.23.062A.463.463,0,0,1,71.7,20.029Zm5.443,6.264a.463.463,0,0,1-.462.462h-2.84a.462.462,0,1,1,0-.925h2.84A.462.462,0,0,1,77.147,26.293ZM74.964,34.44a.462.462,0,0,1-.631.17L71.874,33.19a.463.463,0,0,1,.462-.8l2.459,1.419A.462.462,0,0,1,74.964,34.44ZM50,32.558a.463.463,0,0,1-.17.632L47.374,34.61a.456.456,0,0,1-.23.062.462.462,0,0,1-.231-.863l2.459-1.419A.463.463,0,0,1,50,32.558Zm-2.141-5.8h-2.84a.462.462,0,0,1,0-.925h2.84a.462.462,0,0,1,0,.925Zm-1.119-8.609a.463.463,0,0,1,.632-.17L49.834,19.4a.462.462,0,0,1-.462.8l-2.459-1.419A.462.462,0,0,1,46.743,18.147Zm5.794-5.332a.463.463,0,0,1,.8-.462l1.419,2.459a.463.463,0,0,1-.17.632.456.456,0,0,1-.23.062.463.463,0,0,1-.4-.231Zm12.9,32.208s0,0,0,0a.464.464,0,0,0-.011-.057s0-.008,0-.012a.454.454,0,0,0-.049-.114l-.007-.011a.554.554,0,0,0-.035-.049l0-.005a.425.425,0,0,0-.037-.038l-.011-.01a.532.532,0,0,0-.046-.036l0,0a.421.421,0,0,0-.048-.027l-.012-.005a.363.363,0,0,0-.057-.022h0c-.018-.005-.038-.009-.057-.013l-.015,0a.54.54,0,0,0-.062,0H56.726a.407.407,0,0,0-.062,0l-.015,0a.36.36,0,0,0-.057.013h0c-.019.006-.039.014-.057.022l-.012.005a.479.479,0,0,0-.048.027l0,0a.415.415,0,0,0-.046.036l-.011.01c-.013.012-.025.025-.037.038l0,.005a.429.429,0,0,0-.035.049l-.007.011a.466.466,0,0,0-.049.114s0,.008,0,.012a.465.465,0,0,0-.011.057s0,0,0,0,0,.032,0,.049,0,.007,0,.011,0,.011,0,.015,0,.033.005.049,0,.007,0,.01a.5.5,0,0,0,.015.059l0,.008c.006.017.013.033.021.049l0,.01a.505.505,0,0,0,.031.052l.007.009c.011.015.022.029.034.042l0,.006,1.675,1.745a2.476,2.476,0,0,0,1.825.778h1.92a2.476,2.476,0,0,0,1.825-.778l1.675-1.745,0-.006a.349.349,0,0,0,.034-.042l.007-.009a.434.434,0,0,0,.031-.052l0-.01c.008-.016.015-.032.021-.049l0-.008a.5.5,0,0,0,.015-.059s0-.007,0-.01a.359.359,0,0,0,.005-.049c0-.005,0-.011,0-.015s0-.007,0-.011A.263.263,0,0,0,65.441,45.022ZM62.972,46.5a1.53,1.53,0,0,1-1.158.493h-1.92a1.532,1.532,0,0,1-1.158-.493l-.924-.962H63.9Zm2.009-5.436H56.726a.463.463,0,0,0-.462.462V43.38a.463.463,0,0,0,.462.462h8.255a.463.463,0,0,0,.462-.462V41.522a.463.463,0,0,0-.462-.462Zm-.462,1.858h-7.33v-.933h7.33Z" transform="translate(-44.56 -10)"/>
</svg>
