<svg xmlns="http://www.w3.org/2000/svg" width="41.612" height="41.334" viewBox="0 0 41.612 41.334">
  <g id="idea_9407680" transform="translate(-2.32 -2.52)">
    <path id="Trazado_1045324" data-name="Trazado 1045324" d="M32.761,4.927a.634.634,0,0,0,.631-.631V3.151a.631.631,0,0,0-1.261,0V4.3A.634.634,0,0,0,32.761,4.927Z" transform="translate(-9.597)"/>
    <path id="Trazado_1045325" data-name="Trazado 1045325" d="M24.2,6.761a.62.62,0,0,0,.549.312.625.625,0,0,0,.542-.943l-.57-.99a.63.63,0,0,0-1.092.631Z" transform="translate(-6.833 -0.742)"/>
    <path id="Trazado_1045326" data-name="Trazado 1045326" d="M17.57,12.291l.99.57a.669.669,0,0,0,.312.081.651.651,0,0,0,.549-.312.632.632,0,0,0-.231-.861l-.99-.57a.63.63,0,1,0-.631,1.092Z" transform="translate(-4.807 -2.767)"/>
    <path id="Trazado_1045327" data-name="Trazado 1045327" d="M15.581,20.961h1.146a.631.631,0,1,0,0-1.261H15.581a.631.631,0,1,0,0,1.261Z" transform="translate(-4.066 -5.531)"/>
    <path id="Trazado_1045328" data-name="Trazado 1045328" d="M17.57,28.109a.631.631,0,0,0-.231.861.62.62,0,0,0,.549.312A.63.63,0,0,0,18.2,29.2l.99-.57a.63.63,0,1,0-.631-1.092Z" transform="translate(-4.808 -8.028)"/>
    <path id="Trazado_1045329" data-name="Trazado 1045329" d="M46.491,27.529a.63.63,0,0,0-.631,1.092l.99.57a.669.669,0,0,0,.312.081.651.651,0,0,0,.549-.312.632.632,0,0,0-.231-.861Z" transform="translate(-13.916 -8.024)"/>
    <path id="Trazado_1045330" data-name="Trazado 1045330" d="M47.62,20.331a.634.634,0,0,0,.631.631H49.4a.631.631,0,1,0,0-1.261H48.251A.634.634,0,0,0,47.62,20.331Z" transform="translate(-14.584 -5.531)"/>
    <path id="Trazado_1045331" data-name="Trazado 1045331" d="M46.179,12.942a.63.63,0,0,0,.312-.081l.99-.57A.63.63,0,0,0,46.85,11.2l-.99.57a.628.628,0,0,0,.319,1.173Z" transform="translate(-13.916 -2.767)"/>
    <path id="Trazado_1045332" data-name="Trazado 1045332" d="M40.19,6.991a.669.669,0,0,0,.312.081.651.651,0,0,0,.549-.312l.57-.99a.63.63,0,0,0-1.092-.631l-.57.99A.632.632,0,0,0,40.19,6.991Z" transform="translate(-12.09 -0.742)"/>
    <path id="Trazado_1045333" data-name="Trazado 1045333" d="M42.027,36.745H37.911v-.888a1.839,1.839,0,0,0-1.838-1.838H23.753V31.585h1.688a2.512,2.512,0,0,0,2.509-2.509v-3.1a1.12,1.12,0,0,0-.468-.9,7.429,7.429,0,0,1,1.7-2.448,8.754,8.754,0,0,0-6.367-15.08A8.76,8.76,0,0,0,17.258,22.8a6.1,6.1,0,0,1,1.505,2.143A1.1,1.1,0,0,0,18,25.984v3.1a2.512,2.512,0,0,0,2.509,2.509h1.98v2.434H10.179a1.839,1.839,0,0,0-1.838,1.838v.888H4.219a1.9,1.9,0,0,0-1.9,1.9v4.923a1.9,1.9,0,0,0,1.9,1.9h8.123a1.9,1.9,0,0,0,1.9-1.9V38.65a1.9,1.9,0,0,0-1.9-1.9H9.6v-.9a.583.583,0,0,1,.583-.583H22.492v1.465H19.055a1.9,1.9,0,0,0-1.9,1.9v4.923a1.9,1.9,0,0,0,1.9,1.9h8.13a1.9,1.9,0,0,0,1.9-1.9V38.637a1.9,1.9,0,0,0-1.9-1.9H23.753V35.273h12.32a.583.583,0,0,1,.583.583v.888H33.9a1.9,1.9,0,0,0-1.9,1.9v4.923a1.9,1.9,0,0,0,1.9,1.9h8.13a1.9,1.9,0,0,0,1.9-1.9V38.643a1.906,1.906,0,0,0-1.905-1.9ZM15.63,16.206a7.568,7.568,0,0,1,7.221-7.4A7.5,7.5,0,0,1,28.3,21.719a8.576,8.576,0,0,0-2.109,3.16H23.76v-5.8a2.576,2.576,0,0,0,1.376.4,2.641,2.641,0,0,0,2.638-2.638.631.631,0,1,0-1.261,0,1.376,1.376,0,1,1-2.753,0,.631.631,0,1,0-1.261,0,1.376,1.376,0,1,1-2.753,0,.631.631,0,1,0-1.261,0,2.641,2.641,0,0,0,2.638,2.638,2.576,2.576,0,0,0,1.376-.4v5.8H20.105a7.418,7.418,0,0,0-2-3.017,7.518,7.518,0,0,1-2.475-5.655Zm3.634,12.863V26.133H26.7v2.936a1.249,1.249,0,0,1-1.248,1.248H20.519A1.25,1.25,0,0,1,19.265,29.069Zm-6.279,9.574v4.923a.644.644,0,0,1-.644.644H4.219a.644.644,0,0,1-.644-.644V38.643A.644.644,0,0,1,4.219,38h8.123A.653.653,0,0,1,12.986,38.643Zm14.843,0v4.923a.644.644,0,0,1-.644.644H19.061a.644.644,0,0,1-.644-.644V38.643A.644.644,0,0,1,19.061,38h8.13a.651.651,0,0,1,.637.644Zm14.843,4.923a.644.644,0,0,1-.644.644H33.9a.644.644,0,0,1-.644-.644V38.643A.644.644,0,0,1,33.9,38h8.13a.644.644,0,0,1,.644.644v4.923Z" transform="translate(0 -1.617)"/>
    <path id="Trazado_1045334" data-name="Trazado 1045334" d="M6.311,55.631h5.879a.631.631,0,0,0,0-1.261H6.311a.631.631,0,0,0,0,1.261Z" transform="translate(-1.082 -16.693)"/>
    <path id="Trazado_1045335" data-name="Trazado 1045335" d="M6.311,59.111H10.3a.631.631,0,1,0,0-1.261H6.311a.631.631,0,0,0,0,1.261Z" transform="translate(-1.082 -17.813)"/>
    <path id="Trazado_1045336" data-name="Trazado 1045336" d="M28.151,54.37a.631.631,0,0,0,0,1.261h5.879a.631.631,0,0,0,0-1.261Z" transform="translate(-8.113 -16.693)"/>
    <path id="Trazado_1045337" data-name="Trazado 1045337" d="M32.138,57.85H28.151a.631.631,0,0,0,0,1.261h3.987a.631.631,0,0,0,0-1.261Z" transform="translate(-8.113 -17.813)"/>
    <path id="Trazado_1045338" data-name="Trazado 1045338" d="M56.139,54.37H50.261a.631.631,0,1,0,0,1.261h5.879a.631.631,0,0,0,0-1.261Z" transform="translate(-15.231 -16.693)"/>
    <path id="Trazado_1045339" data-name="Trazado 1045339" d="M54.248,57.85H50.261a.631.631,0,1,0,0,1.261h3.987a.631.631,0,1,0,0-1.261Z" transform="translate(-15.231 -17.813)"/>
  </g>
</svg>
