<svg xmlns="http://www.w3.org/2000/svg" width="33.532" height="36.055" viewBox="0 0 33.532 36.055">
  <g id="_x32_7_Scroll" transform="translate(-23.511 -6)">
    <g id="Scroll-Outline_expanded" transform="translate(23.511 6)">
      <path id="Trazado_1045340" data-name="Trazado 1045340" d="M28.883,223.679a1.791,1.791,0,0,1-1.275-.528l-3.569-3.569a1.8,1.8,0,0,1,2.549-2.55l2.295,2.295,2.295-2.295a1.8,1.8,0,0,1,2.549,2.55l-3.569,3.569a1.792,1.792,0,0,1-1.275.528ZM24.8,218.816l3.569,3.569a.721.721,0,0,0,1.02,0l3.569-3.569a.721.721,0,0,0-1.02-1.02l-2.677,2.677a.541.541,0,0,1-.765,0L25.824,217.8a.721.721,0,0,0-1.02,1.02Z" transform="translate(-23.512 -201.324)"/>
      <path id="Trazado_1045341" data-name="Trazado 1045341" d="M32.452,13.174a1.8,1.8,0,0,1-1.275-.527l-2.295-2.295-2.295,2.295a1.8,1.8,0,1,1-2.549-2.55l3.569-3.569a1.8,1.8,0,0,1,2.55,0L33.726,10.1a1.8,1.8,0,0,1-1.275,3.077ZM28.882,9.047a.539.539,0,0,1,.382.158l2.677,2.677a.721.721,0,1,0,1.02-1.02L29.392,7.293a.721.721,0,0,0-1.02,0L24.8,10.862a.721.721,0,0,0,1.02,1.02L28.5,9.205A.539.539,0,0,1,28.882,9.047Z" transform="translate(-23.511 -6)"/>
      <path id="Trazado_1045342" data-name="Trazado 1045342" d="M58.784,124.629a3.065,3.065,0,1,1,3.065-3.065A3.068,3.068,0,0,1,58.784,124.629Zm0-5.048a1.983,1.983,0,1,0,1.983,1.983A1.985,1.985,0,0,0,58.784,119.582Z" transform="translate(-53.396 -110.388)"/>
      <path id="Trazado_1045343" data-name="Trazado 1045343" d="M171.793,65.058,169.8,63.9a1.071,1.071,0,0,0-.755-.128,1.8,1.8,0,0,0-.683-.711l-1.515-.884a1.967,1.967,0,0,0-1.912-.051V60.47a.541.541,0,0,0-1.082,0v5.949a.541.541,0,0,0,1.082,0V63.9a.909.909,0,0,1,1.367-.785l1.515.884a.723.723,0,0,1,.358.629l-.014,1.788v0a.541.541,0,0,0,.536.545h0a.541.541,0,0,0,.541-.537l.013-1.591,1.989,1.16a1.7,1.7,0,0,1,.774,1.968l-1.5,4.976a.717.717,0,0,1-.69.513H154a.72.72,0,0,1-.663-.438l-3.424-8.036a1.983,1.983,0,1,1,3.649-1.554l1.486,3.475c-.023.133-.047.267-.075.4a14.35,14.35,0,0,0-.3,2.721.541.541,0,0,0,.534.548h.007a.541.541,0,0,0,.541-.534,13.27,13.27,0,0,1,.275-2.515,11.839,11.839,0,0,0,.254-2.4V51.276a1.622,1.622,0,1,1,3.245,0V66.419a.541.541,0,1,0,1.082,0V48.752a1.622,1.622,0,0,1,3.245,0v9.194a.541.541,0,0,0,1.082,0V55.6a8.112,8.112,0,1,0-10.008-12.765.541.541,0,0,0,.686.836,7.03,7.03,0,0,1,9.322,10.512V48.752a2.7,2.7,0,1,0-5.408,0v.362a2.7,2.7,0,0,0-4.327,2.162v2.91a7.033,7.033,0,0,1-1.137-8.734.541.541,0,0,0-.923-.564A8.115,8.115,0,0,0,155.2,55.6v8.91L154.557,63a3.065,3.065,0,0,0-5.639,2.4l3.424,8.036a1.8,1.8,0,0,0,1.659,1.1h15.828a1.792,1.792,0,0,0,1.726-1.282l1.5-4.976A2.78,2.78,0,0,0,171.793,65.058Z" transform="translate(-139.646 -38.476)"/>
    </g>
  </g>
</svg>
