<svg xmlns="http://www.w3.org/2000/svg" xmlns:xlink="http://www.w3.org/1999/xlink" width="118" height="118" viewBox="0 0 118 118">
  <defs>
    <filter id="Trazado_982547" x="0" y="0" width="118" height="118" filterUnits="userSpaceOnUse">
      <feOffset dy="3" input="SourceAlpha"/>
      <feGaussianBlur stdDeviation="3" result="blur"/>
      <feFlood flood-opacity="0.161"/>
      <feComposite operator="in" in2="blur"/>
      <feComposite in="SourceGraphic"/>
    </filter>
  </defs>
  <g id="Grupo_1201361" data-name="Grupo 1201361" transform="translate(-271.5 -2607.015)">
    <g id="Grupo_1173988" data-name="Grupo 1173988" transform="translate(280.5 2613.015)">
      <g id="Grupo_1172010" data-name="Grupo 1172010">
        <g id="Grupo_1171046" data-name="Grupo 1171046">
          <g id="Grupo_1148525" data-name="Grupo 1148525">
            <g transform="matrix(1, 0, 0, 1, -9, -6)" filter="url(#Trazado_982547)">
              <g id="Trazado_982547-2" data-name="Trazado 982547" transform="translate(9 6)" fill="#edf3fc">
                <path d="M 50 98.5 C 43.45188522338867 98.5 37.10042953491211 97.21787261962891 31.12207221984863 94.68923950195312 C 25.34691429138184 92.24655914306641 20.15997123718262 88.74931335449219 15.70532894134521 84.29468536376953 C 11.2506856918335 79.84004211425781 7.753442764282227 74.65309906005859 5.310757160186768 68.8779296875 C 2.782128572463989 62.89957046508789 1.5 56.54811477661133 1.5 50 C 1.5 43.45188522338867 2.782128572463989 37.10042953491211 5.310757160186768 31.12207221984863 C 7.753442764282227 25.34691429138184 11.2506856918335 20.15997123718262 15.70532894134521 15.70532894134521 C 20.15997123718262 11.2506856918335 25.34691429138184 7.753442764282227 31.12207221984863 5.310757160186768 C 37.10042953491211 2.782128572463989 43.45188522338867 1.5 50 1.5 C 56.54811477661133 1.5 62.89957046508789 2.782128572463989 68.8779296875 5.310757160186768 C 74.65309906005859 7.753442764282227 79.84004211425781 11.2506856918335 84.29468536376953 15.70532894134521 C 88.74931335449219 20.15997123718262 92.24655914306641 25.34691429138184 94.68923950195312 31.12207221984863 C 97.21787261962891 37.10042953491211 98.5 43.45188522338867 98.5 50 C 98.5 56.54811477661133 97.21787261962891 62.89957046508789 94.68923950195312 68.8779296875 C 92.24655914306641 74.65309906005859 88.74931335449219 79.84004211425781 84.29468536376953 84.29468536376953 C 79.84004211425781 88.74931335449219 74.65309906005859 92.24655914306641 68.8779296875 94.68923950195312 C 62.89957046508789 97.21787261962891 56.54811477661133 98.5 50 98.5 Z" stroke="none"/>
                <path d="M 50 3 C 43.65372467041016 3 37.49886322021484 4.242263793945312 31.70639801025391 6.6922607421875 C 26.11003112792969 9.059326171875 21.08335113525391 12.44861602783203 16.76598358154297 16.76598358154297 C 12.44861602783203 21.08335113525391 9.059326171875 26.11003112792969 6.6922607421875 31.70639801025391 C 4.242263793945312 37.49886322021484 3 43.65372467041016 3 50 C 3 56.34627532958984 4.242263793945312 62.50113677978516 6.6922607421875 68.29360198974609 C 9.059326171875 73.88996887207031 12.44861602783203 78.91666412353516 16.76598358154297 83.23401641845703 C 21.08335113525391 87.55138397216797 26.11003112792969 90.940673828125 31.70639801025391 93.3077392578125 C 37.49886322021484 95.75773620605469 43.65372467041016 97 50 97 C 56.34627532958984 97 62.50113677978516 95.75773620605469 68.29360198974609 93.3077392578125 C 73.88996887207031 90.940673828125 78.91666412353516 87.55138397216797 83.23401641845703 83.23401641845703 C 87.55138397216797 78.91666412353516 90.940673828125 73.88996887207031 93.3077392578125 68.29360198974609 C 95.75773620605469 62.50113677978516 97 56.34627532958984 97 50 C 97 43.65372467041016 95.75773620605469 37.49886322021484 93.3077392578125 31.70639801025391 C 90.940673828125 26.11003112792969 87.55138397216797 21.08335113525391 83.23401641845703 16.76598358154297 C 78.91666412353516 12.44861602783203 73.88996887207031 9.059326171875 68.29360198974609 6.6922607421875 C 62.50113677978516 4.242263793945312 56.34627532958984 3 50 3 M 50 0 C 77.61424255371094 0 100 22.38577270507812 100 50 C 100 77.61424255371094 77.61424255371094 100 50 100 C 22.38577270507812 100 0 77.61424255371094 0 50 C 0 22.38577270507812 22.38577270507812 0 50 0 Z" stroke="none" fill="#5692e8"/>
              </g>
            </g>
          </g>
        </g>
      </g>
    </g>
    <g id="abc_8973448" transform="translate(294.867 2625.883)">
      <g id="Grupo_1201590" data-name="Grupo 1201590" transform="translate(7.5 7.5)">
        <g id="Grupo_1201583" data-name="Grupo 1201583" transform="translate(24.024 28.633)">
          <path id="Trazado_1045638" data-name="Trazado 1045638" d="M330.806,256h-4.512L316,258.3v24.024l10.294,2.3h4.512a6.913,6.913,0,0,0,6.913-6.913V262.913A6.913,6.913,0,0,0,330.806,256Z" transform="translate(-304.478 -256)" fill="#30cd9c"/>
          <path id="Trazado_1045639" data-name="Trazado 1045639" d="M234.437,278.419a8.382,8.382,0,0,1,0-16.206,7.5,7.5,0,0,1,3.38-6.214H227.522a6.913,6.913,0,0,0-6.913,6.913L216,270.647l4.609,7.072a6.913,6.913,0,0,0,6.913,6.913h10.294A7.5,7.5,0,0,1,234.437,278.419Z" transform="translate(-216 -256)" fill="#0caf7b"/>
        </g>
        <g id="Grupo_1201584" data-name="Grupo 1201584" transform="translate(14.316 0)">
          <path id="Trazado_1045640" data-name="Trazado 1045640" d="M206.556,7.5h-4.512L191.75,9.8V33.828l10.294,2.3h4.512a6.913,6.913,0,0,0,6.913-6.913V14.413A6.913,6.913,0,0,0,206.556,7.5Z" transform="translate(-184.837 -7.5)" fill="#ffce71"/>
          <path id="Trazado_1045641" data-name="Trazado 1045641" d="M149.77,28.776V17.4h-4.193V13.773A7.5,7.5,0,0,1,148.957,7.5H138.663a6.913,6.913,0,0,0-6.913,6.913V29.219a6.913,6.913,0,0,0,6.913,6.913h10.294a7.5,7.5,0,0,1-3.381-6.273V28.776h4.193Z" transform="translate(-131.75 -7.5)" fill="#ffb357"/>
        </g>
        <g id="Grupo_1201585" data-name="Grupo 1201585" transform="translate(0 28.633)">
          <path id="Trazado_1045642" data-name="Trazado 1045642" d="M82.306,256H77.794L67.5,258.3v24.024l10.294,2.3h4.512a6.913,6.913,0,0,0,6.913-6.913V262.913A6.913,6.913,0,0,0,82.306,256Z" transform="translate(-60.587 -256)" fill="#ff8e9e"/>
          <path id="Trazado_1045643" data-name="Trazado 1045643" d="M22.462,277.813a3.382,3.382,0,1,0,0-6.764H21.327v-2.883h.226a2.684,2.684,0,0,0,0-5.367h-.226v-.525A7.5,7.5,0,0,1,24.707,256H14.413A6.913,6.913,0,0,0,7.5,262.913v14.806a6.913,6.913,0,0,0,6.913,6.913H24.707a7.5,7.5,0,0,1-3.381-6.273v-.544Z" transform="translate(-7.5 -256)" fill="#ea5b70"/>
        </g>
        <g id="Grupo_1201586" data-name="Grupo 1201586" transform="translate(6.822 32.089)">
          <path id="Trazado_1045644" data-name="Trazado 1045644" d="M95.111,295.515A6.192,6.192,0,0,0,89.881,286h-.845l-4.193,1.96,2.242,2.484h2.8a1.754,1.754,0,0,1,0,3.509H84.863v4.45c.327,0,5.894,0,5.894,0a2.428,2.428,0,0,1,0,4.856c-.675,0-2.3.006-3.672.011l-2.369,2.245L88.99,307.7l1.768,0a6.869,6.869,0,0,0,4.354-12.184Z" transform="translate(-82.641 -286)" fill="#ffdbe0"/>
          <path id="Trazado_1045645" data-name="Trazado 1045645" d="M71.153,303.959V298.4a3.147,3.147,0,0,1,0-4.45v-4.175A4.632,4.632,0,0,1,73.1,286H68.931a2.222,2.222,0,0,0-2.222,2.222V305.5a2.222,2.222,0,0,0,2.222,2.222s2.324-.01,4.126-.016A4.631,4.631,0,0,1,71.153,303.959Z" transform="translate(-66.709 -285.999)" fill="#ffb5c0"/>
        </g>
        <g id="Grupo_1201587" data-name="Grupo 1201587" transform="translate(19.591 3.457)">
          <path id="Trazado_1045646" data-name="Trazado 1045646" d="M224.644,92.856l-5.262-13.941h-3.615V81.92l2.438,6.46h-7.7v4.444h9.379l.6,1.6a2.222,2.222,0,0,0,4.158-1.569Z" transform="translate(-206.703 -74.143)" fill="#fff1d4"/>
          <path id="Trazado_1045647" data-name="Trazado 1045647" d="M189.013,39.119A2.61,2.61,0,0,0,186.6,37.5h0a2.6,2.6,0,0,0-2.416,1.625c-.007.016-6.507,17.082-6.507,17.082a2.222,2.222,0,0,0,4.153,1.582l5.03-13.208a3.585,3.585,0,0,1,3.35-2.309Z" transform="translate(-177.524 -37.5)" fill="#fce3a0"/>
        </g>
        <g id="Grupo_1201589" data-name="Grupo 1201589" transform="translate(33.687 32.089)">
          <g id="Grupo_1201588" data-name="Grupo 1201588" transform="translate(7.527 0)">
            <path id="Trazado_1045648" data-name="Trazado 1045648" d="M372.112,291.538a2.222,2.222,0,1,0,2.488-3.682A10.807,10.807,0,0,0,368.526,286l-3.333,2.222,3.333,2.222A6.38,6.38,0,0,1,372.112,291.538Z" transform="translate(-365.193 -286)" fill="#b0ebd8"/>
            <path id="Trazado_1045649" data-name="Trazado 1045649" d="M375.4,415.289a2.222,2.222,0,0,0-3.13.274,4.656,4.656,0,0,1-3.74,1.645l-3.333,2.222,3.333,2.222a9.083,9.083,0,0,0,7.144-3.232A2.222,2.222,0,0,0,375.4,415.289Z" transform="translate(-365.193 -399.932)" fill="#b0ebd8"/>
          </g>
          <path id="Trazado_1045650" data-name="Trazado 1045650" d="M310.729,290.444a3.142,3.142,0,0,1,0-4.444,10.86,10.86,0,1,0,0,21.719,3.142,3.142,0,0,1,0-4.444,6.416,6.416,0,1,1,0-12.832Z" transform="translate(-299.869 -286)" fill="#70dcba"/>
        </g>
      </g>
      <g id="Grupo_1201591" data-name="Grupo 1201591" transform="translate(7.5 7.5)">
        <path id="Trazado_1045651" data-name="Trazado 1045651" d="M36.133,262.913A6.913,6.913,0,0,0,29.219,256H14.413A6.913,6.913,0,0,0,7.5,262.913v14.806a6.913,6.913,0,0,0,6.913,6.913H29.219a6.913,6.913,0,0,0,6.913-6.913" transform="translate(-7.5 -227.367)" fill="none" stroke="#000" stroke-linejoin="round" stroke-miterlimit="10" stroke-width="1.3"/>
        <path id="Trazado_1045652" data-name="Trazado 1045652" d="M262.913,284.633h14.806a6.913,6.913,0,0,0,6.913-6.913V262.913A6.913,6.913,0,0,0,277.719,256H262.913A6.913,6.913,0,0,0,256,262.913v14.806A6.913,6.913,0,0,0,262.913,284.633Z" transform="translate(-227.367 -227.367)" fill="none" stroke="#000" stroke-linecap="round" stroke-linejoin="round" stroke-miterlimit="10" stroke-width="1.3" stroke-dasharray="230 30 1000 0 1000 0"/>
        <path id="Trazado_1045653" data-name="Trazado 1045653" d="M153.469,7.5H138.663a6.913,6.913,0,0,0-6.913,6.913V29.219a6.913,6.913,0,0,0,6.913,6.913h14.806a6.913,6.913,0,0,0,6.913-6.913V14.413A6.913,6.913,0,0,0,153.469,7.5Z" transform="translate(-117.434 -7.5)" fill="none" stroke="#000" stroke-linecap="round" stroke-linejoin="round" stroke-miterlimit="10" stroke-width="1.3" stroke-dasharray="230 30 1000 0 1000 0"/>
        <path id="Trazado_1045654" data-name="Trazado 1045654" d="M317.6,301.357a2.222,2.222,0,0,0-3.13.274,4.584,4.584,0,0,1-3.74,1.645,6.416,6.416,0,1,1,3.586-11.737,2.222,2.222,0,1,0,2.488-3.682,10.86,10.86,0,1,0-6.073,19.863,9.021,9.021,0,0,0,7.144-3.232A2.222,2.222,0,0,0,317.6,301.357Z" transform="translate(-266.181 -253.911)" fill="none" stroke="#000" stroke-linecap="round" stroke-linejoin="round" stroke-miterlimit="10" stroke-width="1.3"/>
        <path id="Trazado_1045655" data-name="Trazado 1045655" d="M79.179,295.515A6.192,6.192,0,0,0,73.949,286H68.931a2.222,2.222,0,0,0-2.222,2.222V305.5a2.222,2.222,0,0,0,2.222,2.222s4.64-.02,5.894-.02a6.869,6.869,0,0,0,4.354-12.184Zm-5.23-5.071a1.754,1.754,0,0,1,0,3.509h-2.8v-3.509h2.8Zm.876,12.811c-.675,0-2.3.006-3.672.011V298.4l3.672,0a2.428,2.428,0,0,1,0,4.856Z" transform="translate(-59.887 -253.911)" fill="none" stroke="#000" stroke-linecap="round" stroke-linejoin="round" stroke-miterlimit="10" stroke-width="1.3"/>
        <path id="Trazado_1045656" data-name="Trazado 1045656" d="M195.465,56.213s-6.444-17.074-6.452-17.094A2.6,2.6,0,0,0,186.6,37.5h0a2.6,2.6,0,0,0-2.416,1.625c-.007.016-6.507,17.082-6.507,17.082a2.222,2.222,0,1,0,4.153,1.582l.612-1.607H190.7l.6,1.6a2.222,2.222,0,1,0,4.157-1.569Zm-11.337-4.475,2.461-6.46,2.438,6.46Z" transform="translate(-157.933 -34.043)" fill="none" stroke="#000" stroke-linecap="round" stroke-linejoin="round" stroke-miterlimit="10" stroke-width="1.3"/>
      </g>
    </g>
  </g>
</svg>
