<svg xmlns="http://www.w3.org/2000/svg" xmlns:xlink="http://www.w3.org/1999/xlink" width="118" height="118" viewBox="0 0 118 118">
  <defs>
    <filter id="Trazado_982547" x="0" y="0" width="118" height="118" filterUnits="userSpaceOnUse">
      <feOffset dy="3" input="SourceAlpha"/>
      <feGaussianBlur stdDeviation="3" result="blur"/>
      <feFlood flood-opacity="0.161"/>
      <feComposite operator="in" in2="blur"/>
      <feComposite in="SourceGraphic"/>
    </filter>
  </defs>
  <g id="Grupo_1201363" data-name="Grupo 1201363" transform="translate(-271.5 -2607.015)">
    <g id="Grupo_1173988" data-name="Grupo 1173988" transform="translate(280.5 2613.015)">
      <g id="Grupo_1172010" data-name="Grupo 1172010">
        <g id="Grupo_1171046" data-name="Grupo 1171046">
          <g id="Grupo_1148525" data-name="Grupo 1148525">
            <g transform="matrix(1, 0, 0, 1, -9, -6)" filter="url(#Trazado_982547)">
              <g id="Trazado_982547-2" data-name="Trazado 982547" transform="translate(9 6)" fill="#edf3fc">
                <path d="M 50 98.5 C 43.45188522338867 98.5 37.10042953491211 97.21787261962891 31.12207221984863 94.68923950195312 C 25.34691429138184 92.24655914306641 20.15997123718262 88.74931335449219 15.70532894134521 84.29468536376953 C 11.2506856918335 79.84004211425781 7.753442764282227 74.65309906005859 5.310757160186768 68.8779296875 C 2.782128572463989 62.89957046508789 1.5 56.54811477661133 1.5 50 C 1.5 43.45188522338867 2.782128572463989 37.10042953491211 5.310757160186768 31.12207221984863 C 7.753442764282227 25.34691429138184 11.2506856918335 20.15997123718262 15.70532894134521 15.70532894134521 C 20.15997123718262 11.2506856918335 25.34691429138184 7.753442764282227 31.12207221984863 5.310757160186768 C 37.10042953491211 2.782128572463989 43.45188522338867 1.5 50 1.5 C 56.54811477661133 1.5 62.89957046508789 2.782128572463989 68.8779296875 5.310757160186768 C 74.65309906005859 7.753442764282227 79.84004211425781 11.2506856918335 84.29468536376953 15.70532894134521 C 88.74931335449219 20.15997123718262 92.24655914306641 25.34691429138184 94.68923950195312 31.12207221984863 C 97.21787261962891 37.10042953491211 98.5 43.45188522338867 98.5 50 C 98.5 56.54811477661133 97.21787261962891 62.89957046508789 94.68923950195312 68.8779296875 C 92.24655914306641 74.65309906005859 88.74931335449219 79.84004211425781 84.29468536376953 84.29468536376953 C 79.84004211425781 88.74931335449219 74.65309906005859 92.24655914306641 68.8779296875 94.68923950195312 C 62.89957046508789 97.21787261962891 56.54811477661133 98.5 50 98.5 Z" stroke="none"/>
                <path d="M 50 3 C 43.65372467041016 3 37.49886322021484 4.242263793945312 31.70639801025391 6.6922607421875 C 26.11003112792969 9.059326171875 21.08335113525391 12.44861602783203 16.76598358154297 16.76598358154297 C 12.44861602783203 21.08335113525391 9.059326171875 26.11003112792969 6.6922607421875 31.70639801025391 C 4.242263793945312 37.49886322021484 3 43.65372467041016 3 50 C 3 56.34627532958984 4.242263793945312 62.50113677978516 6.6922607421875 68.29360198974609 C 9.059326171875 73.88996887207031 12.44861602783203 78.91666412353516 16.76598358154297 83.23401641845703 C 21.08335113525391 87.55138397216797 26.11003112792969 90.940673828125 31.70639801025391 93.3077392578125 C 37.49886322021484 95.75773620605469 43.65372467041016 97 50 97 C 56.34627532958984 97 62.50113677978516 95.75773620605469 68.29360198974609 93.3077392578125 C 73.88996887207031 90.940673828125 78.91666412353516 87.55138397216797 83.23401641845703 83.23401641845703 C 87.55138397216797 78.91666412353516 90.940673828125 73.88996887207031 93.3077392578125 68.29360198974609 C 95.75773620605469 62.50113677978516 97 56.34627532958984 97 50 C 97 43.65372467041016 95.75773620605469 37.49886322021484 93.3077392578125 31.70639801025391 C 90.940673828125 26.11003112792969 87.55138397216797 21.08335113525391 83.23401641845703 16.76598358154297 C 78.91666412353516 12.44861602783203 73.88996887207031 9.059326171875 68.29360198974609 6.6922607421875 C 62.50113677978516 4.242263793945312 56.34627532958984 3 50 3 M 50 0 C 77.61424255371094 0 100 22.38577270507812 100 50 C 100 77.61424255371094 77.61424255371094 100 50 100 C 22.38577270507812 100 0 77.61424255371094 0 50 C 0 22.38577270507812 22.38577270507812 0 50 0 Z" stroke="none" fill="#5692e8"/>
              </g>
            </g>
          </g>
        </g>
      </g>
    </g>
    <g id="artificial-intelligence_17924762" transform="translate(291.151 2632.344)">
      <path id="Trazado_1035031" data-name="Trazado 1035031" d="M41.377,51.535a15.985,15.985,0,1,0-25.9,12.539,9.349,9.349,0,0,1,3.609,7.316v4.653a1.462,1.462,0,0,0,1.462,1.462h9.683A1.462,1.462,0,0,0,31.7,76.043V71.389a9.138,9.138,0,0,1,3.5-7.226A15.96,15.96,0,0,0,41.377,51.535Z" transform="translate(-2.128 -26.942)" fill="#f7bf50"/>
      <path id="Trazado_1035032" data-name="Trazado 1035032" d="M62.676,214.957H58.49a2.647,2.647,0,0,1-2.647-2.647v-3.505h9.48v3.505A2.647,2.647,0,0,1,62.676,214.957Z" transform="translate(-37.319 -158.242)" fill="#b0b6bc"/>
      <path id="Trazado_1035033" data-name="Trazado 1035033" d="M49.389,185.126V189.4a1.462,1.462,0,0,0,1.462,1.462h9.683A1.462,1.462,0,0,0,62,189.4v-4.272Z" transform="translate(-32.428 -140.297)" fill="#c9cfd4"/>
      <path id="Trazado_1035034" data-name="Trazado 1035034" d="M60.547,213.508H56.361a3.331,3.331,0,0,1-3.327-3.327v-3.5a.68.68,0,0,1,.68-.68h9.48a.68.68,0,0,1,.68.68v3.5A3.331,3.331,0,0,1,60.547,213.508Zm-6.153-6.152v2.825a1.968,1.968,0,0,0,1.967,1.967h4.186a1.969,1.969,0,0,0,1.966-1.967v-2.825Z" transform="translate(-35.19 -156.113)"/>
      <path id="Trazado_1035035" data-name="Trazado 1035035" d="M29.567,70.318H16.961a.68.68,0,0,1-.68-.68v-.381a8.64,8.64,0,0,0-3.351-6.782,16.665,16.665,0,1,1,20.553.093,8.507,8.507,0,0,0-3.234,6.688v.382A.681.681,0,0,1,29.567,70.318Zm-11.93-1.361H28.891a9.877,9.877,0,0,1,3.755-7.465,15.306,15.306,0,1,0-18.874-.084,10,10,0,0,1,3.864,7.55Z" transform="translate(0 -24.808)"/>
      <path id="Trazado_1035036" data-name="Trazado 1035036" d="M58.4,189.413H48.721a2.144,2.144,0,0,1-2.142-2.142V183a.68.68,0,0,1,.68-.68H59.865a.68.68,0,0,1,.68.68v4.272A2.145,2.145,0,0,1,58.4,189.413Zm-10.464-5.734v3.591a.782.782,0,0,0,.781.781H58.4a.782.782,0,0,0,.781-.781v-3.591Z" transform="translate(-30.298 -138.169)"/>
      <path id="Trazado_1035037" data-name="Trazado 1035037" d="M57,71.123a4.517,4.517,0,0,1-4.381,4.513,4.515,4.515,0,0,1-8.529,0,4.515,4.515,0,0,1-2.784-7.958,4.512,4.512,0,0,1,2.72-6.382,4.519,4.519,0,0,1,8.655,0,4.512,4.512,0,0,1,2.72,6.382A4.5,4.5,0,0,1,57,71.123Z" transform="translate(-25.096 -44.016)" fill="#f17b7b"/>
      <g id="Grupo_1176912" data-name="Grupo 1176912" transform="translate(13.938 13.383)">
        <path id="Trazado_1035038" data-name="Trazado 1035038" d="M46.232,77.217a5.2,5.2,0,0,1-4.738-3.065,5.2,5.2,0,0,1-3.129-8.768,5.122,5.122,0,0,1-.358-1.892,5.238,5.238,0,0,1,3.361-4.864,5.2,5.2,0,0,1,9.728,0,5.238,5.238,0,0,1,3.361,4.864,5.136,5.136,0,0,1-.358,1.892,5.2,5.2,0,0,1-3.129,8.768A5.207,5.207,0,0,1,46.232,77.217Zm0-20.589a3.863,3.863,0,0,0-3.676,2.733.68.68,0,0,1-.455.455,3.864,3.864,0,0,0-2.733,3.676,3.793,3.793,0,0,0,.423,1.744.681.681,0,0,1-.165.829,3.834,3.834,0,0,0,2.364,6.759.682.682,0,0,1,.622.455,3.834,3.834,0,0,0,7.243,0,.679.679,0,0,1,.621-.455,3.834,3.834,0,0,0,2.363-6.759.681.681,0,0,1-.165-.829,3.8,3.8,0,0,0,.423-1.744,3.864,3.864,0,0,0-2.733-3.676.68.68,0,0,1-.455-.455A3.864,3.864,0,0,0,46.232,56.628Z" transform="translate(-36.907 -55.267)"/>
        <path id="Trazado_1035039" data-name="Trazado 1035039" d="M56.077,72.2a.676.676,0,0,1-.407-.136,2.7,2.7,0,0,1-1.17-3.012.68.68,0,0,1,1.316.347,1.33,1.33,0,0,0,.67,1.576.68.68,0,0,1-.408,1.225Z" transform="translate(-50.16 -65.332)"/>
        <path id="Trazado_1035040" data-name="Trazado 1035040" d="M91.714,97.751a3.275,3.275,0,0,1-1.074-.194.68.68,0,1,1,.446-1.285c.659.229,1.351.269,1.957-.978a.68.68,0,1,1,1.223.595,2.844,2.844,0,0,1-2.552,1.862Z" transform="translate(-77.282 -85.311)"/>
        <path id="Trazado_1035041" data-name="Trazado 1035041" d="M54.708,118.537a.681.681,0,0,1-.638-.444,3.876,3.876,0,0,1,.468-4.057.681.681,0,1,1,1.049.867,2.549,2.549,0,0,0-.241,2.718.68.68,0,0,1-.4.874A.707.707,0,0,1,54.708,118.537Z" transform="translate(-49.647 -99.618)"/>
        <path id="Trazado_1035042" data-name="Trazado 1035042" d="M73.288,89.251a.68.68,0,0,1-.68-.68V71.827a.68.68,0,1,1,1.361,0V88.571A.68.68,0,0,1,73.288,89.251Z" transform="translate(-63.962 -67.301)"/>
        <path id="Trazado_1035043" data-name="Trazado 1035043" d="M64.77,99.151a.68.68,0,0,1-.495-.213l-2.722-2.881a.681.681,0,1,1,.99-.934L65.266,98a.68.68,0,0,1-.5,1.147Z" transform="translate(-55.445 -85.31)"/>
        <path id="Trazado_1035044" data-name="Trazado 1035044" d="M73.287,83.214a.68.68,0,0,1-.45-1.19l2.418-2.135a.68.68,0,0,1,.9,1.02l-2.418,2.135a.675.675,0,0,1-.45.17Z" transform="translate(-63.961 -73.797)"/>
      </g>
      <path id="Trazado_1035045" data-name="Trazado 1035045" d="M205.831,80.906h-8.185a1.66,1.66,0,0,1-1.66-1.66V71.061a1.66,1.66,0,0,1,1.66-1.66h8.185a1.66,1.66,0,0,1,1.66,1.66v8.185A1.66,1.66,0,0,1,205.831,80.906Z" transform="translate(-143.526 -52.596)" fill="#f17b7b"/>
      <path id="Trazado_1035046" data-name="Trazado 1035046" d="M211.115,81.715v5.539l4.178-2.769Z" transform="translate(-154.992 -61.927)" fill="#f9f9f9"/>
      <path id="Trazado_1035047" data-name="Trazado 1035047" d="M203.7,79.456h-8.185a2.342,2.342,0,0,1-2.339-2.34V68.931a2.343,2.343,0,0,1,2.339-2.34H203.7a2.343,2.343,0,0,1,2.34,2.34v8.185A2.342,2.342,0,0,1,203.7,79.456Zm-8.185-11.5a.98.98,0,0,0-.978.979v8.185a.981.981,0,0,0,.978.979H203.7a.98.98,0,0,0,.979-.979V68.931a.981.981,0,0,0-.979-.979Z" transform="translate(-141.399 -50.466)"/>
      <path id="Trazado_1035048" data-name="Trazado 1035048" d="M208.977,85.811a.689.689,0,0,1-.323-.081.681.681,0,0,1-.358-.6V79.594a.68.68,0,0,1,1.055-.568l4.181,2.769a.681.681,0,0,1,0,1.135L209.352,85.7A.677.677,0,0,1,208.977,85.811Zm.68-4.951v3l2.268-1.5Z" transform="translate(-152.856 -59.804)"/>
      <path id="Trazado_1035049" data-name="Trazado 1035049" d="M205.831,147.494h-8.185a1.66,1.66,0,0,1-1.66-1.66V137.65a1.66,1.66,0,0,1,1.66-1.66h8.185a1.66,1.66,0,0,1,1.66,1.66v8.185A1.66,1.66,0,0,1,205.831,147.494Z" transform="translate(-143.526 -103.059)" fill="#7ec6c5"/>
      <path id="Trazado_1035050" data-name="Trazado 1035050" d="M203.7,146.048h-8.185a2.342,2.342,0,0,1-2.339-2.34v-8.186a2.342,2.342,0,0,1,2.339-2.339H203.7a2.343,2.343,0,0,1,2.34,2.339v8.185A2.343,2.343,0,0,1,203.7,146.048Zm-8.185-11.5a.98.98,0,0,0-.978.978v8.185a.98.98,0,0,0,.978.979H203.7a.98.98,0,0,0,.979-.979v-8.185a.98.98,0,0,0-.979-.978Z" transform="translate(-141.399 -100.932)"/>
      <path id="Trazado_1035051" data-name="Trazado 1035051" d="M211.764,148.892a.68.68,0,0,1-.68-.68v-.879h-4.129v.879a.68.68,0,1,1-1.361,0v-1.56a.68.68,0,0,1,.68-.68h5.49a.68.68,0,0,1,.68.68v1.56A.68.68,0,0,1,211.764,148.892Z" transform="translate(-150.807 -110.624)"/>
      <path id="Trazado_1035052" data-name="Trazado 1035052" d="M217.61,152.642a.68.68,0,0,1-.68-.68v-5.31a.68.68,0,0,1,1.361,0v5.31A.68.68,0,0,1,217.61,152.642Z" transform="translate(-159.398 -110.624)"/>
      <path id="Trazado_1035053" data-name="Trazado 1035053" d="M214.014,169.258h-3.378a.68.68,0,0,1,0-1.361h3.378a.68.68,0,1,1,0,1.361Z" transform="translate(-154.112 -127.24)"/>
      <path id="Trazado_1035054" data-name="Trazado 1035054" d="M205.831,14.314h-8.185a1.66,1.66,0,0,1-1.66-1.66V4.47a1.66,1.66,0,0,1,1.66-1.66h8.185a1.66,1.66,0,0,1,1.66,1.66v8.185A1.66,1.66,0,0,1,205.831,14.314Z" transform="translate(-143.526 -2.13)" fill="#7ec6c5"/>
      <path id="Trazado_1035055" data-name="Trazado 1035055" d="M197.646,30.544h8.185a1.66,1.66,0,0,0,1.66-1.66V27.642l-3.6-3.417-3.838,3.391-1.905-1.594-2.158,1.739v1.123A1.66,1.66,0,0,0,197.646,30.544Z" transform="translate(-143.526 -18.359)" fill="#c9cfd4"/>
      <path id="Trazado_1035056" data-name="Trazado 1035056" d="M203.7,12.865h-8.185a2.342,2.342,0,0,1-2.339-2.34V2.34A2.342,2.342,0,0,1,195.518,0H203.7a2.343,2.343,0,0,1,2.34,2.34v8.185A2.343,2.343,0,0,1,203.7,12.865Zm-8.185-11.5a.98.98,0,0,0-.978.979v8.185a.981.981,0,0,0,.978.979H203.7a.98.98,0,0,0,.979-.979V2.34a.98.98,0,0,0-.979-.979Z" transform="translate(-141.399)"/>
      <path id="Trazado_1035057" data-name="Trazado 1035057" d="M203.7,29.1h-8.185a2.342,2.342,0,0,1-2.339-2.34V25.636a.68.68,0,0,1,.253-.529l2.158-1.739a.68.68,0,0,1,.864.007l1.457,1.219,3.4-3a.682.682,0,0,1,.919.016l3.6,3.417a.681.681,0,0,1,.212.494V26.76A2.346,2.346,0,0,1,203.7,29.1Zm-9.164-3.138v.8a.981.981,0,0,0,.979.979H203.7a.98.98,0,0,0,.979-.979v-.949l-2.939-2.787L198.372,26a.681.681,0,0,1-.887.012l-1.477-1.236Z" transform="translate(-141.399 -16.234)"/>
      <circle id="Elipse_12446" data-name="Elipse 12446" cx="1.23" cy="1.23" r="1.23" transform="translate(54.64 3.164)"/>
      <path id="Trazado_1035058" data-name="Trazado 1035058" d="M205.831,214.086h-8.185a1.66,1.66,0,0,1-1.66-1.66v-8.185a1.66,1.66,0,0,1,1.66-1.66h8.185a1.66,1.66,0,0,1,1.66,1.66v8.185A1.66,1.66,0,0,1,205.831,214.086Z" transform="translate(-143.526 -153.525)" fill="#f7bf50"/>
      <ellipse id="Elipse_12447" data-name="Elipse 12447" cx="1.438" cy="1.238" rx="1.438" ry="1.238" transform="translate(55.525 55.974)" fill="#f9f9f9"/>
      <path id="Trazado_1035059" data-name="Trazado 1035059" d="M203.7,212.637h-8.185a2.342,2.342,0,0,1-2.339-2.339v-8.186a2.343,2.343,0,0,1,2.339-2.34H203.7a2.343,2.343,0,0,1,2.34,2.34V210.3A2.343,2.343,0,0,1,203.7,212.637Zm-8.185-11.5a.98.98,0,0,0-.978.979V210.3a.98.98,0,0,0,.978.979H203.7a.98.98,0,0,0,.979-.979v-8.185a.98.98,0,0,0-.979-.979Z" transform="translate(-141.399 -151.396)"/>
      <path id="Trazado_1035060" data-name="Trazado 1035060" d="M207.942,232.18a1.928,1.928,0,1,1,2.118-1.918A2.028,2.028,0,0,1,207.942,232.18Zm0-2.475c-.41,0-.757.255-.757.557s.347.557.757.557.757-.255.757-.557S208.353,229.7,207.942,229.7Z" transform="translate(-150.982 -173.049)"/>
      <path id="Trazado_1035061" data-name="Trazado 1035061" d="M218.38,216.639a.68.68,0,0,1-.68-.68v-5.8a.68.68,0,0,1,.623-.678c1.053-.094,2.464.325,3.212,2.8a.68.68,0,1,1-1.3.395c-.346-1.145-.795-1.587-1.172-1.751v5.037A.68.68,0,0,1,218.38,216.639Z" transform="translate(-159.981 -158.746)"/>
      <path id="Trazado_1035062" data-name="Trazado 1035062" d="M138.224,36.384H132a.68.68,0,1,1,0-1.361h5.546V24.99a.68.68,0,0,1,.68-.68h8.753a.68.68,0,1,1,0,1.361H138.9V35.7A.68.68,0,0,1,138.224,36.384Z" transform="translate(-94.517 -18.423)"/>
      <path id="Trazado_1035063" data-name="Trazado 1035063" d="M151.483,86.774h-13.54a.68.68,0,1,1,0-1.361h13.54a.68.68,0,1,1,0,1.361Z" transform="translate(-99.023 -64.73)"/>
      <path id="Trazado_1035064" data-name="Trazado 1035064" d="M152.512,116.87h-4.443a.68.68,0,0,1-.68-.68V103.634H139.3a.68.68,0,0,1,0-1.361h8.768a.68.68,0,0,1,.68.68V115.51h3.762a.68.68,0,1,1,0,1.361Z" transform="translate(-100.052 -77.507)"/>
      <path id="Trazado_1035065" data-name="Trazado 1035065" d="M150.06,145.773h-8.753a.68.68,0,0,1-.68-.68v-24.6h-4.561a.68.68,0,1,1,0-1.361h5.242a.68.68,0,0,1,.68.68v24.6h8.072a.68.68,0,1,1,0,1.361Z" transform="translate(-97.6 -90.284)"/>
    </g>
  </g>
</svg>
