<svg xmlns="http://www.w3.org/2000/svg" xmlns:xlink="http://www.w3.org/1999/xlink" width="113" height="113" viewBox="0 0 113 113">
  <defs>
    <filter id="Trazado_982547" x="0" y="0" width="113" height="113" filterUnits="userSpaceOnUse">
      <feOffset dy="3" input="SourceAlpha"/>
      <feGaussianBlur stdDeviation="3" result="blur"/>
      <feFlood flood-opacity="0.161"/>
      <feComposite operator="in" in2="blur"/>
      <feComposite in="SourceGraphic"/>
    </filter>
  </defs>
  <g id="Grupo_1201608" data-name="Grupo 1201608" transform="translate(-271 -5700.5)">
    <g id="Grupo_1201365" data-name="Grupo 1201365" transform="translate(280 5706.5)">
      <g id="Grupo_1172010" data-name="Grupo 1172010">
        <g id="Grupo_1171046" data-name="Grupo 1171046">
          <g id="Grupo_1148525" data-name="Grupo 1148525">
            <g transform="matrix(1, 0, 0, 1, -9, -6)" filter="url(#Trazado_982547)">
              <g id="Trazado_982547-2" data-name="Trazado 982547" transform="translate(9 6)" fill="#fdfbec">
                <path d="M 47.5 93.5 C 41.28937149047852 93.5 35.26533508300781 92.28397369384766 29.59518623352051 89.88570404052734 C 24.11771965026855 87.56893157958984 19.19813346862793 84.25196075439453 14.97309303283691 80.02691650390625 C 10.74804019927979 75.80186462402344 7.431066513061523 70.88229370117188 5.114293098449707 65.40481567382812 C 2.716026782989502 59.73468017578125 1.5 53.71062850952148 1.5 47.5 C 1.5 41.28937149047852 2.716026782989502 35.26533508300781 5.114293098449707 29.59518623352051 C 7.431066513061523 24.11771965026855 10.74804019927979 19.19813346862793 14.97309303283691 14.97309303283691 C 19.19813346862793 10.74804019927979 24.11771965026855 7.431066513061523 29.59518623352051 5.114293098449707 C 35.26533508300781 2.716026782989502 41.28937149047852 1.5 47.5 1.5 C 53.71062850952148 1.5 59.73468017578125 2.716026782989502 65.40481567382812 5.114293098449707 C 70.88229370117188 7.431066513061523 75.80186462402344 10.74804019927979 80.02691650390625 14.97309303283691 C 84.25196075439453 19.19813346862793 87.56893157958984 24.11771965026855 89.88570404052734 29.59518623352051 C 92.28397369384766 35.26533508300781 93.5 41.28937149047852 93.5 47.5 C 93.5 53.71062850952148 92.28397369384766 59.73468017578125 89.88570404052734 65.40481567382812 C 87.56893157958984 70.88229370117188 84.25196075439453 75.80186462402344 80.02691650390625 80.02691650390625 C 75.80186462402344 84.25196075439453 70.88229370117188 87.56893157958984 65.40481567382812 89.88570404052734 C 59.73468017578125 92.28397369384766 53.71062850952148 93.5 47.5 93.5 Z" stroke="none"/>
                <path d="M 47.5 3 C 41.49121475219727 3 35.66376876831055 4.176155090332031 30.17950439453125 6.495796203613281 C 24.88084411621094 8.736953735351562 20.12152099609375 11.94598388671875 16.03375244140625 16.03375244140625 C 11.94598388671875 20.12152099609375 8.736953735351562 24.88084411621094 6.495796203613281 30.17950439453125 C 4.176155090332031 35.66376876831055 3 41.49121475219727 3 47.5 C 3 53.50878524780273 4.176155090332031 59.33623123168945 6.495796203613281 64.82049560546875 C 8.736953735351562 70.11915588378906 11.94598388671875 74.87847900390625 16.03375244140625 78.96624755859375 C 20.12152099609375 83.05401611328125 24.88084411621094 86.26304626464844 30.17950439453125 88.50419616699219 C 35.66376876831055 90.82384490966797 41.49121475219727 92 47.5 92 C 53.50878524780273 92 59.33623123168945 90.82384490966797 64.82049560546875 88.50419616699219 C 70.11915588378906 86.26304626464844 74.87847900390625 83.05401611328125 78.96624755859375 78.96624755859375 C 83.05401611328125 74.87847900390625 86.26304626464844 70.11915588378906 88.50419616699219 64.82049560546875 C 90.82384490966797 59.33623123168945 92 53.50878524780273 92 47.5 C 92 41.49121475219727 90.82384490966797 35.66376876831055 88.50419616699219 30.17950439453125 C 86.26304626464844 24.88084411621094 83.05401611328125 20.12152099609375 78.96624755859375 16.03375244140625 C 74.87847900390625 11.94598388671875 70.11915588378906 8.736953735351562 64.82049560546875 6.495796203613281 C 59.33623123168945 4.176155090332031 53.50878524780273 3 47.5 3 M 47.5 0 C 73.7335205078125 0 95 21.2664794921875 95 47.5 C 95 73.7335205078125 73.7335205078125 95 47.5 95 C 21.2664794921875 95 0 73.7335205078125 0 47.5 C 0 21.2664794921875 21.2664794921875 0 47.5 0 Z" stroke="none" fill="#83793c"/>
              </g>
            </g>
          </g>
        </g>
      </g>
    </g>
    <g id="certificate-authority_14751498" transform="translate(291.165 5717.665)">
      <g id="Grupo_1201605" data-name="Grupo 1201605" transform="translate(7.5 7.5)">
        <path id="Trazado_1045684" data-name="Trazado 1045684" d="M12.118,389.7l-.776-1.817a.87.87,0,0,0-.9-.522l-1.961.236a.87.87,0,0,1-.858-1.3l5.246-9.087,6.054,3.5L13.672,389.8A.87.87,0,0,1,12.118,389.7Z" transform="translate(-7.5 -334.309)" fill="#fb695b"/>
        <path id="Trazado_1045685" data-name="Trazado 1045685" d="M96.614,389.7l.776-1.817a.87.87,0,0,1,.9-.522l1.961.236a.87.87,0,0,0,.858-1.3l-5.246-9.087-6.054,3.5L95.06,389.8A.87.87,0,0,0,96.614,389.7Z" transform="translate(-80.261 -334.309)" fill="#ff938a"/>
        <path id="Trazado_1045686" data-name="Trazado 1045686" d="M78.353,15.058V46.834a3.482,3.482,0,0,1-3.482,3.482H48.632a3.481,3.481,0,0,1-3.482-3.482V12.722A5.222,5.222,0,0,1,50.372,7.5H70.8a3.439,3.439,0,0,1,.569.048l6.942,6.942A3.44,3.44,0,0,1,78.353,15.058Z" transform="translate(-40.781 -7.5)" fill="#f3f5fc"/>
        <path id="Trazado_1045687" data-name="Trazado 1045687" d="M57.818,7.5a5.349,5.349,0,0,0-3.036,4.852V50.316H48.632a3.481,3.481,0,0,1-3.482-3.482V12.722A5.222,5.222,0,0,1,50.372,7.5Z" transform="translate(-40.781 -7.5)" fill="#e8ecf9"/>
        <path id="Trazado_1045688" data-name="Trazado 1045688" d="M131.587,235.128a1.747,1.747,0,0,1-1.748,1.748h-8.717l-.923-1.286.923-2.21h8.717A1.747,1.747,0,0,1,131.587,235.128Z" transform="translate(-107.121 -207.166)" fill="#80e0b7"/>
        <path id="Trazado_1045689" data-name="Trazado 1045689" d="M77.008,233.38H81.4v3.5h-4.39a1.748,1.748,0,1,1,0-3.5Z" transform="translate(-67.396 -207.166)" fill="#36d49b"/>
        <path id="Trazado_1045690" data-name="Trazado 1045690" d="M126.756,39.368V55.1a1.748,1.748,0,0,1-1.748,1.747H106.679l-2.819-1.31V39.3l2.989-1.683h18.159A1.748,1.748,0,0,1,126.756,39.368Z" transform="translate(-92.677 -34.125)" fill="#a8e1f6"/>
        <path id="Trazado_1045691" data-name="Trazado 1045691" d="M81.569,37.62a5.439,5.439,0,0,0-.171,1.357V56.843h-4.39A1.748,1.748,0,0,1,75.26,55.1V39.368a1.748,1.748,0,0,1,1.748-1.748Z" transform="translate(-67.396 -34.125)" fill="#78cbed"/>
        <path id="Trazado_1045692" data-name="Trazado 1045692" d="M256.1,380.269V382.9a1.741,1.741,0,0,1-1.741,1.741H235.121a1.741,1.741,0,0,1-1.741-1.741v-2.629a11.36,11.36,0,0,1,22.719,0Z" transform="translate(-207.166 -326.968)" fill="#a29cde"/>
        <path id="Trazado_1045693" data-name="Trazado 1045693" d="M241.016,385.164v2.869a1.437,1.437,0,0,0,.8,1.158h-6.694a1.741,1.741,0,0,1-1.741-1.741v-2.629a11.365,11.365,0,0,1,7.713-10.761l3.5,2.9A10.5,10.5,0,0,0,241.016,385.164Z" transform="translate(-207.166 -331.52)" fill="#827cd2"/>
        <path id="Trazado_1045694" data-name="Trazado 1045694" d="M178.187,152.1s-4.6-14.855,12.006-16.6l-.647,16.6Z" transform="translate(-157.863 -120.645)" fill="#b07058"/>
        <path id="Trazado_1045695" data-name="Trazado 1045695" d="M388.447,152.1s4.6-14.855-12.006-16.6l.647,16.6Z" transform="translate(-333.625 -120.645)" fill="#c8866a"/>
        <circle id="Elipse_12471" data-name="Elipse 12471" cx="3.495" cy="3.495" r="3.495" transform="translate(50.68 27.961)" fill="#ffcbbe"/>
        <circle id="Elipse_12472" data-name="Elipse 12472" cx="3.495" cy="3.495" r="3.495" transform="translate(17.476 27.961)" fill="#ffbbae"/>
        <path id="Trazado_1045696" data-name="Trazado 1045696" d="M276.145,206.026a15.729,15.729,0,0,1-15.781,15.728h-.048l-3.556-1.425-3.05-.124a16.012,16.012,0,0,1-2.28-1.35l-.261-19.9h0a1.742,1.742,0,0,1,1.458-.458c.247.037.519.077.815.115a54.486,54.486,0,0,0,6.975.42,52.541,52.541,0,0,0,7.788-.534,1.74,1.74,0,0,1,1.971,1.4,3.959,3.959,0,0,0,4.272,3.535,1.734,1.734,0,0,1,1.685,1.7C276.141,205.492,276.145,205.815,276.145,206.026Z" transform="translate(-222.892 -176.317)" fill="#ffddcf"/>
        <path id="Trazado_1045697" data-name="Trazado 1045697" d="M210.947,221.753a15.914,15.914,0,0,1-15.629-15.664c0-.219,0-.549.01-.91a1.747,1.747,0,0,1,1.709-1.713,3.944,3.944,0,0,0,4.253-3.572,1.735,1.735,0,0,1,1.966-1.4c.247.037.519.077.815.115C201.921,205.624,202.09,214.358,210.947,221.753Z" transform="translate(-173.522 -176.316)" fill="#ffcbbe"/>
        <path id="Trazado_1045698" data-name="Trazado 1045698" d="M274.81,102.6c-.346,3.56-2.464,9.845-13.11,9.845a26.3,26.3,0,0,1-7.086-.825l-1.773-3.262,6.519-9.527,1.975-.287c5.792.413,8.956,2.3,11.638,2.149A1.744,1.744,0,0,1,274.81,102.6Z" transform="translate(-224.368 -87.975)" fill="#db9e82"/>
        <path id="Trazado_1045699" data-name="Trazado 1045699" d="M232.185,97.93a38.331,38.331,0,0,0-6.721,13.076c-10.6-3-4.473-13.156,4.464-13.156C230.723,97.85,231.474,97.879,232.185,97.93Z" transform="translate(-195.219 -87.365)" fill="#c8866a"/>
        <path id="Trazado_1045700" data-name="Trazado 1045700" d="M277.972,14.852h-3.461a3.481,3.481,0,0,1-3.482-3.482V7.91a3.47,3.47,0,0,1,1.893.973L277,12.959A3.478,3.478,0,0,1,277.972,14.852Z" transform="translate(-240.447 -7.862)" fill="#e8ecf9"/>
        <path id="Trazado_1045701" data-name="Trazado 1045701" d="M45.818,309.376a7.87,7.87,0,0,1-8.862,7.8l-5.826-3.89a7.867,7.867,0,0,1,.707-8.855l6.987-2.873A7.866,7.866,0,0,1,45.818,309.376Z" transform="translate(-27.468 -267.434)" fill="#fad989"/>
        <path id="Trazado_1045702" data-name="Trazado 1045702" d="M38.951,316.816a7.865,7.865,0,1,1-1-15.666,7.984,7.984,0,0,1,.872.048C37.592,302.992,33.581,309.865,38.951,316.816Z" transform="translate(-27.468 -267.072)" fill="#f6ca56"/>
        <path id="Trazado_1045703" data-name="Trazado 1045703" d="M68.947,335.629a4.373,4.373,0,1,1-4.369-4.369A4.37,4.37,0,0,1,68.947,335.629Z" transform="translate(-54.093 -293.687)" fill="#f6ca56"/>
        <path id="Trazado_1045704" data-name="Trazado 1045704" d="M63.578,340.635a4.371,4.371,0,0,1,.074-8.525A12.343,12.343,0,0,0,63.578,340.635Z" transform="translate(-54.093 -294.439)" fill="#f1b70b"/>
        <g id="Grupo_1201604" data-name="Grupo 1201604" transform="translate(24.934 31.874)">
          <g id="Grupo_1201603" data-name="Grupo 1201603">
            <ellipse id="Elipse_12473" data-name="Elipse 12473" cx="3.407" cy="2.713" rx="3.407" ry="2.713" fill="#ffa1ac"/>
            <ellipse id="Elipse_12474" data-name="Elipse 12474" cx="3.407" cy="2.713" rx="3.407" ry="2.713" transform="translate(18.465)" fill="#ffa1ac"/>
          </g>
        </g>
      </g>
      <g id="Grupo_1201607" data-name="Grupo 1201607" transform="translate(7.5 7.5)">
        <path id="Trazado_1045705" data-name="Trazado 1045705" d="M16.864,407.6l-3.191,5.529a.871.871,0,0,1-1.555-.093l-.775-1.817a.873.873,0,0,0-.905-.522l-1.961.237a.871.871,0,0,1-.858-1.3L11.1,403.61" transform="translate(-7.5 -357.641)" fill="none" stroke="#000" stroke-linecap="round" stroke-linejoin="round" stroke-miterlimit="10" stroke-width="1.5"/>
        <path id="Trazado_1045706" data-name="Trazado 1045706" d="M113.279,403.61l3.477,6.023a.87.87,0,0,1-.858,1.3l-1.961-.237a.872.872,0,0,0-.9.522l-.776,1.817a.87.87,0,0,1-1.554.093L107.51,407.6" transform="translate(-95.904 -357.641)" fill="none" stroke="#000" stroke-linecap="round" stroke-linejoin="round" stroke-miterlimit="10" stroke-width="1.5"/>
        <path id="Trazado_1045707" data-name="Trazado 1045707" d="M45.15,44.277V12.722A5.222,5.222,0,0,1,50.372,7.5H70.8a3.477,3.477,0,0,1,2.461,1.02L77.333,12.6a3.481,3.481,0,0,1,1.02,2.461v2.825" transform="translate(-40.781 -7.5)" fill="none" stroke="#000" stroke-linecap="round" stroke-linejoin="round" stroke-miterlimit="10" stroke-width="1.5"/>
        <line id="Línea_978" data-name="Línea 978" x1="10.316" transform="translate(18.444 42.816)" fill="none" stroke="#000" stroke-linecap="round" stroke-linejoin="round" stroke-miterlimit="10" stroke-width="1.5"/>
        <path id="Trazado_1045708" data-name="Trazado 1045708" d="M85.109,236.875h-8.1a1.748,1.748,0,1,1,0-3.5h9.921" transform="translate(-67.396 -207.166)" fill="none" stroke="#000" stroke-linecap="round" stroke-linejoin="round" stroke-miterlimit="10" stroke-width="1.5"/>
        <line id="Línea_979" data-name="Línea 979" y1="3.275" transform="translate(34.078 7.106)" fill="none" stroke="#000" stroke-linecap="round" stroke-linejoin="round" stroke-miterlimit="10" stroke-width="1.5"/>
        <line id="Línea_980" data-name="Línea 980" x1="3.573" transform="translate(26.894 3.495)" fill="none" stroke="#000" stroke-linecap="round" stroke-linejoin="round" stroke-miterlimit="10" stroke-width="1.5"/>
        <path id="Trazado_1045709" data-name="Trazado 1045709" d="M87.657,56.843H77.008A1.748,1.748,0,0,1,75.26,55.1V39.368a1.748,1.748,0,0,1,1.748-1.748H90.228" transform="translate(-67.396 -34.125)" fill="none" stroke="#000" stroke-linecap="round" stroke-linejoin="round" stroke-miterlimit="10" stroke-width="1.5"/>
        <path id="Trazado_1045710" data-name="Trazado 1045710" d="M251.478,387.751A11.338,11.338,0,0,1,256.1,396.9v2.629a1.741,1.741,0,0,1-1.741,1.741H235.121a1.741,1.741,0,0,1-1.741-1.741V396.9a11.343,11.343,0,0,1,4.664-9.176" transform="translate(-207.166 -343.595)" fill="none" stroke="#000" stroke-linecap="round" stroke-linejoin="round" stroke-miterlimit="10" stroke-width="1.5"/>
        <path id="Trazado_1045711" data-name="Trazado 1045711" d="M177.63,168.019c-.167-3.138.463-7.67,4.711-10.539" transform="translate(-157.865 -140.075)" fill="none" stroke="#000" stroke-linecap="round" stroke-linejoin="round" stroke-miterlimit="10" stroke-width="1.5"/>
        <path id="Trazado_1045712" data-name="Trazado 1045712" d="M439.78,154.69c4.7,2.842,5.39,7.6,5.215,10.862" transform="translate(-389.613 -137.608)" fill="none" stroke="#000" stroke-linecap="round" stroke-linejoin="round" stroke-miterlimit="10" stroke-width="1.5"/>
        <path id="Trazado_1045713" data-name="Trazado 1045713" d="M462.132,248.534a3.5,3.5,0,1,1-.592,6.545" transform="translate(-408.848 -220.458)" fill="none" stroke="#000" stroke-linecap="round" stroke-linejoin="round" stroke-miterlimit="10" stroke-width="1.5"/>
        <path id="Trazado_1045714" data-name="Trazado 1045714" d="M163.094,255.072a3.5,3.5,0,1,1-.6-6.529" transform="translate(-140.614 -220.462)" fill="none" stroke="#000" stroke-linecap="round" stroke-linejoin="round" stroke-miterlimit="10" stroke-width="1.5"/>
        <path id="Trazado_1045715" data-name="Trazado 1045715" d="M201.916,205.92a1.715,1.715,0,0,0-.2.552,3.945,3.945,0,0,1-4.253,3.572,1.746,1.746,0,0,0-1.708,1.713l-.01.91a15.912,15.912,0,0,0,15.675,15.663A15.676,15.676,0,0,0,222.2,224.1" transform="translate(-173.894 -182.893)" fill="none" stroke="#000" stroke-linecap="round" stroke-linejoin="round" stroke-miterlimit="10" stroke-width="1.5"/>
        <path id="Trazado_1045716" data-name="Trazado 1045716" d="M406.91,199.88h0a1.745,1.745,0,0,1,.978,1.263,3.96,3.96,0,0,0,4.272,3.535,1.736,1.736,0,0,1,1.686,1.7l.012.888a15.644,15.644,0,0,1-2.406,8.363" transform="translate(-360.558 -177.554)" fill="none" stroke="#000" stroke-linecap="round" stroke-linejoin="round" stroke-miterlimit="10" stroke-width="1.5"/>
        <path id="Trazado_1045717" data-name="Trazado 1045717" d="M229.929,97.852c7.265,0,10.882,2.392,13.894,2.229a1.744,1.744,0,0,1,1.838,1.907c-.346,3.56-2.464,9.845-13.111,9.845C212.832,111.833,219.443,97.852,229.929,97.852Z" transform="translate(-195.219 -87.367)" fill="none" stroke="#000" stroke-linecap="round" stroke-linejoin="round" stroke-miterlimit="10" stroke-width="1.5"/>
        <path id="Trazado_1045718" data-name="Trazado 1045718" d="M271.027,9.91v3.229a3.481,3.481,0,0,0,3.482,3.482h3.229" transform="translate(-240.444 -9.63)" fill="none" stroke="#000" stroke-linecap="round" stroke-linejoin="round" stroke-miterlimit="10" stroke-width="1.5"/>
        <path id="Trazado_1045719" data-name="Trazado 1045719" d="M45.615,307.233a7.869,7.869,0,1,1-1.923-3.6" transform="translate(-27.468 -267.072)" fill="none" stroke="#000" stroke-linecap="round" stroke-linejoin="round" stroke-miterlimit="10" stroke-width="1.5"/>
        <circle id="Elipse_12475" data-name="Elipse 12475" cx="4.369" cy="4.369" r="4.369" transform="translate(6.117 37.573)" fill="none" stroke="#000" stroke-linecap="round" stroke-linejoin="round" stroke-miterlimit="10" stroke-width="1.5"/>
        <g id="Grupo_1201606" data-name="Grupo 1201606" transform="translate(30.326 30.583)">
          <line id="Línea_981" data-name="Línea 981" y2="1.393" transform="translate(0 0)" fill="none" stroke="#000" stroke-linecap="round" stroke-linejoin="round" stroke-miterlimit="10" stroke-width="1.5"/>
          <line id="Línea_982" data-name="Línea 982" y2="1.393" transform="translate(14.494 0)" fill="none" stroke="#000" stroke-linecap="round" stroke-linejoin="round" stroke-miterlimit="10" stroke-width="1.5"/>
          <path id="Trazado_1045720" data-name="Trazado 1045720" d="M314.8,282.671a2.532,2.532,0,0,0,3.821,0" transform="translate(-309.464 -281.32)" fill="none" stroke="#000" stroke-linecap="round" stroke-linejoin="round" stroke-miterlimit="10" stroke-width="1.5"/>
        </g>
      </g>
    </g>
  </g>
</svg>
