<svg xmlns="http://www.w3.org/2000/svg" xmlns:xlink="http://www.w3.org/1999/xlink" width="113" height="113" viewBox="0 0 113 113">
  <defs>
    <filter id="Trazado_982547" x="0" y="0" width="113" height="113" filterUnits="userSpaceOnUse">
      <feOffset dy="3" input="SourceAlpha"/>
      <feGaussianBlur stdDeviation="3" result="blur"/>
      <feFlood flood-opacity="0.161"/>
      <feComposite operator="in" in2="blur"/>
      <feComposite in="SourceGraphic"/>
    </filter>
  </defs>
  <g id="Grupo_1201611" data-name="Grupo 1201611" transform="translate(-587 -5700.5)">
    <g id="Grupo_1201366" data-name="Grupo 1201366" transform="translate(-0.5 3093.485)">
      <g id="Grupo_1173989" data-name="Grupo 1173989" transform="translate(595.5 2613.015)">
        <g id="Grupo_1172010" data-name="Grupo 1172010">
          <g id="Grupo_1171046" data-name="Grupo 1171046" transform="translate(1)">
            <g id="Grupo_1148525" data-name="Grupo 1148525">
              <g transform="matrix(1, 0, 0, 1, -9, -6)" filter="url(#Trazado_982547)">
                <g id="Trazado_982547-2" data-name="Trazado 982547" transform="translate(9 6)" fill="#fdfbec">
                  <path d="M 47.5 93.5 C 41.28937149047852 93.5 35.26533508300781 92.28397369384766 29.59518623352051 89.88570404052734 C 24.11771965026855 87.56893157958984 19.19813346862793 84.25196075439453 14.97309303283691 80.02691650390625 C 10.74804019927979 75.80186462402344 7.431066513061523 70.88229370117188 5.114293098449707 65.40481567382812 C 2.716026782989502 59.73468017578125 1.5 53.71062850952148 1.5 47.5 C 1.5 41.28937149047852 2.716026782989502 35.26533508300781 5.114293098449707 29.59518623352051 C 7.431066513061523 24.11771965026855 10.74804019927979 19.19813346862793 14.97309303283691 14.97309303283691 C 19.19813346862793 10.74804019927979 24.11771965026855 7.431066513061523 29.59518623352051 5.114293098449707 C 35.26533508300781 2.716026782989502 41.28937149047852 1.5 47.5 1.5 C 53.71062850952148 1.5 59.73468017578125 2.716026782989502 65.40481567382812 5.114293098449707 C 70.88229370117188 7.431066513061523 75.80186462402344 10.74804019927979 80.02691650390625 14.97309303283691 C 84.25196075439453 19.19813346862793 87.56893157958984 24.11771965026855 89.88570404052734 29.59518623352051 C 92.28397369384766 35.26533508300781 93.5 41.28937149047852 93.5 47.5 C 93.5 53.71062850952148 92.28397369384766 59.73468017578125 89.88570404052734 65.40481567382812 C 87.56893157958984 70.88229370117188 84.25196075439453 75.80186462402344 80.02691650390625 80.02691650390625 C 75.80186462402344 84.25196075439453 70.88229370117188 87.56893157958984 65.40481567382812 89.88570404052734 C 59.73468017578125 92.28397369384766 53.71062850952148 93.5 47.5 93.5 Z" stroke="none"/>
                  <path d="M 47.5 3 C 41.49121475219727 3 35.66376876831055 4.176155090332031 30.17950439453125 6.495796203613281 C 24.88084411621094 8.736953735351562 20.12152099609375 11.94598388671875 16.03375244140625 16.03375244140625 C 11.94598388671875 20.12152099609375 8.736953735351562 24.88084411621094 6.495796203613281 30.17950439453125 C 4.176155090332031 35.66376876831055 3 41.49121475219727 3 47.5 C 3 53.50878524780273 4.176155090332031 59.33623123168945 6.495796203613281 64.82049560546875 C 8.736953735351562 70.11915588378906 11.94598388671875 74.87847900390625 16.03375244140625 78.96624755859375 C 20.12152099609375 83.05401611328125 24.88084411621094 86.26304626464844 30.17950439453125 88.50419616699219 C 35.66376876831055 90.82384490966797 41.49121475219727 92 47.5 92 C 53.50878524780273 92 59.33623123168945 90.82384490966797 64.82049560546875 88.50419616699219 C 70.11915588378906 86.26304626464844 74.87847900390625 83.05401611328125 78.96624755859375 78.96624755859375 C 83.05401611328125 74.87847900390625 86.26304626464844 70.11915588378906 88.50419616699219 64.82049560546875 C 90.82384490966797 59.33623123168945 92 53.50878524780273 92 47.5 C 92 41.49121475219727 90.82384490966797 35.66376876831055 88.50419616699219 30.17950439453125 C 86.26304626464844 24.88084411621094 83.05401611328125 20.12152099609375 78.96624755859375 16.03375244140625 C 74.87847900390625 11.94598388671875 70.11915588378906 8.736953735351562 64.82049560546875 6.495796203613281 C 59.33623123168945 4.176155090332031 53.50878524780273 3 47.5 3 M 47.5 0 C 73.7335205078125 0 95 21.2664794921875 95 47.5 C 95 73.7335205078125 73.7335205078125 95 47.5 95 C 21.2664794921875 95 0 73.7335205078125 0 47.5 C 0 21.2664794921875 21.2664794921875 0 47.5 0 Z" stroke="none" fill="#83793c"/>
                </g>
              </g>
            </g>
          </g>
        </g>
      </g>
    </g>
    <g id="job-offer_10985024" transform="translate(610 5717.353)">
      <g id="Grupo_1201609" data-name="Grupo 1201609" transform="translate(10 10)">
        <path id="Trazado_1045721" data-name="Trazado 1045721" d="M373.186,404.616h-2.079v.572c0,6.659-5.612,9.978-11.225,9.978h15.382A27.829,27.829,0,0,0,373.186,404.616Z" transform="translate(-321.983 -361.87)" fill="#ffda8f" fill-rule="evenodd"/>
        <path id="Trazado_1045722" data-name="Trazado 1045722" d="M463.506,363.549h2.079a2.085,2.085,0,0,0,2.079-2.079v-.831a2.085,2.085,0,0,0-2.079-2.079h-2.079Z" transform="translate(-414.381 -320.803)" fill="#ffdcd5" fill-rule="evenodd"/>
        <path id="Trazado_1045723" data-name="Trazado 1045723" d="M222.041,363.549V358.56h-2.079a2.085,2.085,0,0,0-2.079,2.079v.831a2.085,2.085,0,0,0,2.079,2.079Z" transform="translate(-195.366 -320.803)" fill="#ffdcd5" fill-rule="evenodd"/>
        <path id="Trazado_1045724" data-name="Trazado 1045724" d="M253.718,249.051a3.857,3.857,0,0,0,3.845-3.845v.961a2.892,2.892,0,0,0,2.884,2.884h3.233v-4.9a4.9,4.9,0,0,0-3.837-4.771,5.132,5.132,0,0,0-4.891-3.628H244.814a7.763,7.763,0,0,0-7.74,7.74v5.563h16.644Z" transform="translate(-212.477 -211.294)" fill="#ffda8f" fill-rule="evenodd"/>
        <rect id="Rectángulo_416260" data-name="Rectángulo 416260" width="21.444" height="6.178" transform="translate(5.403 5.416)" fill="#66e0f7"/>
        <path id="Trazado_1045725" data-name="Trazado 1045725" d="M36.848,21.594H15.4V15.416H36.848V10H10V58.745H38.257a9.477,9.477,0,0,1-1.581-5.428v-.572H34.6a2.085,2.085,0,0,1-2.079-2.079v-.831A2.085,2.085,0,0,1,34.6,47.757V42.193a7.763,7.763,0,0,1,7.74-7.74H47.9V21.594Z" transform="translate(-10 -10)" fill="#fff" fill-rule="evenodd"/>
        <path id="Trazado_1045726" data-name="Trazado 1045726" d="M257.85,21.594H268.9v-.542L257.85,10V21.594Z" transform="translate(-231.002 -10)" fill="#b6bccf" fill-rule="evenodd"/>
        <path id="Trazado_1045727" data-name="Trazado 1045727" d="M219.856,404.616h2.079v.572c0,6.659,5.612,9.978,11.225,9.978H217.777A27.828,27.828,0,0,1,219.856,404.616Z" transform="translate(-195.259 -361.87)" fill="#ffda8f" fill-rule="evenodd"/>
        <path id="Trazado_1045728" data-name="Trazado 1045728" d="M256.262,326.9v5.56c0,6.658,5.612,9.978,11.224,9.978s11.225-3.319,11.225-9.978V326.9h-1.154a2.893,2.893,0,0,1-2.884-2.884v-.961a3.857,3.857,0,0,1-3.845,3.845H256.262Z" transform="translate(-229.586 -289.148)" fill="#ffdcd5" fill-rule="evenodd"/>
      </g>
      <g id="Grupo_1201610" data-name="Grupo 1201610" transform="translate(10 10)">
        <line id="Línea_983" data-name="Línea 983" y2="10.511" transform="translate(26.848 0.542)" fill="none" stroke="#000" stroke-linecap="round" stroke-linejoin="round" stroke-miterlimit="22.926" stroke-width="1.5"/>
        <path id="Trazado_1045729" data-name="Trazado 1045729" d="M91.933,66.179H59.883V60h20.9" transform="translate(-54.48 -54.585)" fill="none" stroke="#000" stroke-linecap="round" stroke-linejoin="round" stroke-miterlimit="2.613" stroke-width="1.5" fill-rule="evenodd"/>
        <path id="Trazado_1045730" data-name="Trazado 1045730" d="M66.313,160,62.7,165.417,60.9,162.709" transform="translate(-55.384 -143.753)" fill="none" stroke="#000" stroke-linecap="round" stroke-linejoin="round" stroke-miterlimit="2.613" stroke-width="1.5" fill-rule="evenodd"/>
        <line id="Línea_984" data-name="Línea 984" x2="17.221" transform="translate(15.262 16.519)" fill="none" stroke="#000" stroke-linecap="round" stroke-linejoin="round" stroke-miterlimit="22.926" stroke-width="1.5"/>
        <line id="Línea_985" data-name="Línea 985" x2="7.415" transform="translate(15.262 21.394)" fill="none" stroke="#000" stroke-linecap="round" stroke-linejoin="round" stroke-miterlimit="22.926" stroke-width="1.5"/>
        <path id="Trazado_1045731" data-name="Trazado 1045731" d="M66.313,270,62.7,275.417,60.9,272.709" transform="translate(-55.384 -241.837)" fill="none" stroke="#000" stroke-linecap="round" stroke-linejoin="round" stroke-miterlimit="2.613" stroke-width="1.5" fill-rule="evenodd"/>
        <line id="Línea_986" data-name="Línea 986" x2="10.092" transform="translate(15.262 28.435)" fill="none" stroke="#000" stroke-linecap="round" stroke-linejoin="round" stroke-miterlimit="22.926" stroke-width="1.5"/>
        <line id="Línea_987" data-name="Línea 987" x2="5.002" transform="translate(15.262 33.309)" fill="none" stroke="#000" stroke-linecap="round" stroke-linejoin="round" stroke-miterlimit="22.926" stroke-width="1.5"/>
        <line id="Línea_988" data-name="Línea 988" x2="9.39" transform="translate(5.513 42.246)" fill="none" stroke="#000" stroke-linecap="round" stroke-linejoin="round" stroke-miterlimit="2.613" stroke-width="1.5"/>
        <path id="Trazado_1045732" data-name="Trazado 1045732" d="M221.5,331.894h-1.537a2.085,2.085,0,0,1-2.079-2.079v-.831a2.085,2.085,0,0,1,2.079-2.079h16.644a3.857,3.857,0,0,0,3.845-3.845v.961a2.893,2.893,0,0,0,2.884,2.884h3.233a2.085,2.085,0,0,1,2.079,2.079v.832a2.085,2.085,0,0,1-2.079,2.079h-1.835" transform="translate(-195.366 -289.149)" fill="none" stroke="#000" stroke-linecap="round" stroke-linejoin="round" stroke-miterlimit="2.613" stroke-width="1.5" fill-rule="evenodd"/>
        <path id="Trazado_1045733" data-name="Trazado 1045733" d="M263.679,248.637v-4.488a4.9,4.9,0,0,0-3.837-4.771,5.132,5.132,0,0,0-4.891-3.628H244.813a7.763,7.763,0,0,0-7.74,7.74v5.148" transform="translate(-212.476 -211.295)" fill="none" stroke="#000" stroke-linecap="round" stroke-linejoin="round" stroke-miterlimit="2.613" stroke-width="1.5" fill-rule="evenodd"/>
        <path id="Trazado_1045734" data-name="Trazado 1045734" d="M256.262,363.56v5.019c0,6.658,5.612,9.978,11.225,9.978s11.225-3.319,11.225-9.978V363.56" transform="translate(-229.586 -325.262)" fill="none" stroke="#000" stroke-linecap="round" stroke-linejoin="round" stroke-miterlimit="2.613" stroke-width="1.5" fill-rule="evenodd"/>
        <line id="Línea_989" data-name="Línea 989" x2="0.001" transform="translate(43.315 42.631)" fill="none" stroke="#000" stroke-linecap="round" stroke-linejoin="round" stroke-miterlimit="2.613" stroke-width="1.5"/>
        <line id="Línea_990" data-name="Línea 990" x2="0.001" transform="translate(32.484 42.631)" fill="none" stroke="#000" stroke-linecap="round" stroke-linejoin="round" stroke-miterlimit="2.613" stroke-width="1.5"/>
        <path id="Trazado_1045735" data-name="Trazado 1045735" d="M333.5,445.461a4.212,4.212,0,0,0,2.833.871,4.094,4.094,0,0,0,2.883-.924" transform="translate(-298.46 -398.244)" fill="none" stroke="#000" stroke-linecap="round" stroke-linejoin="round" stroke-miterlimit="22.926" stroke-width="1.5" fill-rule="evenodd"/>
        <path id="Trazado_1045736" data-name="Trazado 1045736" d="M219.831,405.159a27.726,27.726,0,0,0-2.054,10.49h30.764a27.726,27.726,0,0,0-2.054-10.49" transform="translate(-195.259 -362.355)" fill="none" stroke="#000" stroke-linecap="round" stroke-linejoin="round" stroke-miterlimit="2.613" stroke-width="1.5" fill-rule="evenodd"/>
        <path id="Trazado_1045737" data-name="Trazado 1045737" d="M47.9,33.912V21.052L36.848,10H10V58.745h6.349m9.749,0h6.363" transform="translate(-10 -10)" fill="none" stroke="#000" stroke-linecap="round" stroke-linejoin="round" stroke-miterlimit="2.613" stroke-width="1.5" fill-rule="evenodd"/>
        <line id="Línea_991" data-name="Línea 991" x2="0.001" transform="translate(11.224 48.745)" fill="none" stroke="#000" stroke-linecap="round" stroke-linejoin="round" stroke-miterlimit="2.613" stroke-width="1.5"/>
      </g>
    </g>
  </g>
</svg>
