<svg xmlns="http://www.w3.org/2000/svg" xmlns:xlink="http://www.w3.org/1999/xlink" width="113" height="113" viewBox="0 0 113 113">
  <defs>
    <filter id="Trazado_982547" x="0" y="0" width="113" height="113" filterUnits="userSpaceOnUse">
      <feOffset dy="3" input="SourceAlpha"/>
      <feGaussianBlur stdDeviation="3" result="blur"/>
      <feFlood flood-opacity="0.161"/>
      <feComposite operator="in" in2="blur"/>
      <feComposite in="SourceGraphic"/>
    </filter>
  </defs>
  <g id="Grupo_1201577" data-name="Grupo 1201577" transform="translate(-271 -914.5)">
    <g id="Grupo_1201330" data-name="Grupo 1201330" transform="translate(280 920.5)">
      <g id="Grupo_1172010" data-name="Grupo 1172010">
        <g id="Grupo_1171046" data-name="Grupo 1171046">
          <g id="Grupo_1148525" data-name="Grupo 1148525">
            <g transform="matrix(1, 0, 0, 1, -9, -6)" filter="url(#Trazado_982547)">
              <g id="Trazado_982547-2" data-name="Trazado 982547" transform="translate(9 6)" fill="#fdfbec">
                <path d="M 47.5 93.5 C 41.28937149047852 93.5 35.26533508300781 92.28397369384766 29.59518623352051 89.88570404052734 C 24.11771965026855 87.56893157958984 19.19813346862793 84.25196075439453 14.97309303283691 80.02691650390625 C 10.74804019927979 75.80186462402344 7.431066513061523 70.88229370117188 5.114293098449707 65.40481567382812 C 2.716026782989502 59.73468017578125 1.5 53.71062850952148 1.5 47.5 C 1.5 41.28937149047852 2.716026782989502 35.26533508300781 5.114293098449707 29.59518623352051 C 7.431066513061523 24.11771965026855 10.74804019927979 19.19813346862793 14.97309303283691 14.97309303283691 C 19.19813346862793 10.74804019927979 24.11771965026855 7.431066513061523 29.59518623352051 5.114293098449707 C 35.26533508300781 2.716026782989502 41.28937149047852 1.5 47.5 1.5 C 53.71062850952148 1.5 59.73468017578125 2.716026782989502 65.40481567382812 5.114293098449707 C 70.88229370117188 7.431066513061523 75.80186462402344 10.74804019927979 80.02691650390625 14.97309303283691 C 84.25196075439453 19.19813346862793 87.56893157958984 24.11771965026855 89.88570404052734 29.59518623352051 C 92.28397369384766 35.26533508300781 93.5 41.28937149047852 93.5 47.5 C 93.5 53.71062850952148 92.28397369384766 59.73468017578125 89.88570404052734 65.40481567382812 C 87.56893157958984 70.88229370117188 84.25196075439453 75.80186462402344 80.02691650390625 80.02691650390625 C 75.80186462402344 84.25196075439453 70.88229370117188 87.56893157958984 65.40481567382812 89.88570404052734 C 59.73468017578125 92.28397369384766 53.71062850952148 93.5 47.5 93.5 Z" stroke="none"/>
                <path d="M 47.5 3 C 41.49121475219727 3 35.66376876831055 4.176155090332031 30.17950439453125 6.495796203613281 C 24.88084411621094 8.736953735351562 20.12152099609375 11.94598388671875 16.03375244140625 16.03375244140625 C 11.94598388671875 20.12152099609375 8.736953735351562 24.88084411621094 6.495796203613281 30.17950439453125 C 4.176155090332031 35.66376876831055 3 41.49121475219727 3 47.5 C 3 53.50878524780273 4.176155090332031 59.33623123168945 6.495796203613281 64.82049560546875 C 8.736953735351562 70.11915588378906 11.94598388671875 74.87847900390625 16.03375244140625 78.96624755859375 C 20.12152099609375 83.05401611328125 24.88084411621094 86.26304626464844 30.17950439453125 88.50419616699219 C 35.66376876831055 90.82384490966797 41.49121475219727 92 47.5 92 C 53.50878524780273 92 59.33623123168945 90.82384490966797 64.82049560546875 88.50419616699219 C 70.11915588378906 86.26304626464844 74.87847900390625 83.05401611328125 78.96624755859375 78.96624755859375 C 83.05401611328125 74.87847900390625 86.26304626464844 70.11915588378906 88.50419616699219 64.82049560546875 C 90.82384490966797 59.33623123168945 92 53.50878524780273 92 47.5 C 92 41.49121475219727 90.82384490966797 35.66376876831055 88.50419616699219 30.17950439453125 C 86.26304626464844 24.88084411621094 83.05401611328125 20.12152099609375 78.96624755859375 16.03375244140625 C 74.87847900390625 11.94598388671875 70.11915588378906 8.736953735351562 64.82049560546875 6.495796203613281 C 59.33623123168945 4.176155090332031 53.50878524780273 3 47.5 3 M 47.5 0 C 73.7335205078125 0 95 21.2664794921875 95 47.5 C 95 73.7335205078125 73.7335205078125 95 47.5 95 C 21.2664794921875 95 0 73.7335205078125 0 47.5 C 0 21.2664794921875 21.2664794921875 0 47.5 0 Z" stroke="none" fill="#83793c"/>
              </g>
            </g>
          </g>
        </g>
      </g>
    </g>
    <g id="planner_2172582" transform="translate(298.715 939.92)">
      <ellipse id="Elipse_12452" data-name="Elipse 12452" cx="10.5" cy="10" rx="10.5" ry="10" transform="translate(36.285 37.08)" fill="#ff826e"/>
      <path id="Trazado_1045546" data-name="Trazado 1045546" d="M27.907,50.4v7.4H2V43H27.907Z" transform="translate(-0.075 -3.14)" fill="#e6e9ed"/>
      <g id="Grupo_1201576" data-name="Grupo 1201576" transform="translate(5.345 45.907)">
        <ellipse id="Elipse_12453" data-name="Elipse 12453" cx="2" cy="1.5" rx="2" ry="1.5" transform="translate(14.94 0.173)" fill="#fcd770"/>
        <circle id="Elipse_12454" data-name="Elipse 12454" cx="1.5" cy="1.5" r="1.5" transform="translate(7.94 0.173)" fill="#fcd770"/>
        <ellipse id="Elipse_12455" data-name="Elipse 12455" cx="2" cy="1.5" rx="2" ry="1.5" transform="translate(-0.06 0.173)" fill="#fcd770"/>
      </g>
      <path id="Trazado_1045547" data-name="Trazado 1045547" d="M9.4,2,2,9.4V33.458H27.907V2Z" transform="translate(-0.075 -0.075)" fill="#e6e9ed"/>
      <path id="Trazado_1045548" data-name="Trazado 1045548" d="M6,26H24.5v5.551H6Z" transform="translate(-0.374 -1.869)" fill="#4fc1e9"/>
      <path id="Trazado_1045549" data-name="Trazado 1045549" d="M24.5,6v7.4H6V9.7H9.7V6Z" transform="translate(-0.374 -0.374)" fill="#ffeaa7"/>
      <path id="Trazado_1045550" data-name="Trazado 1045550" d="M9.4,5.7V9.4H2L9.4,2Z" transform="translate(-0.075 -0.075)" fill="#fcd770"/>
      <path id="Trazado_1045551" data-name="Trazado 1045551" d="M36,12V28.654H52.654V12Z" transform="translate(-2.617 -0.822)" fill="#f0d0b4"/>
      <path id="Trazado_1045552" data-name="Trazado 1045552" d="M54.628,3.147A3.925,3.925,0,0,1,60.18,8.7l-1.628,1.628L55.776,7.551,53,4.776Z" transform="translate(-3.888 -0.075)" fill="#aab2bd"/>
      <path id="Trazado_1045553" data-name="Trazado 1045553" d="M49.4,19.551l-5.311,1.767a1.49,1.49,0,0,1-.5.083A1.591,1.591,0,0,1,42,19.81a1.49,1.49,0,0,1,.083-.5L43.85,14l2.776,2.776Z" transform="translate(-3.065 -0.972)" fill="#aab2bd"/>
      <path id="Trazado_1045554" data-name="Trazado 1045554" d="M58.1,10.776,53.477,15.4l-3.7,3.7L47,16.327,55.327,8Z" transform="translate(-3.439 -0.523)" fill="#ff826e"/>
      <path id="Trazado_1045555" data-name="Trazado 1045555" d="M55.1,7.776,46.776,16.1,44,13.327l1.85-1.85L52.327,5Z" transform="translate(-3.215 -0.299)" fill="#b4dd7f"/>
      <path id="Trazado_1045556" data-name="Trazado 1045556" d="M47.262,36.159A11.111,11.111,0,0,0,36.206,46.337H28.757v-7.4H15.8V34.309H28.757V19.5h3.7v9.252h18.5v-13.5L56.944,9.28a4.851,4.851,0,0,0-6.86-6.86l-7.832,7.832H32.458v7.4h-3.7V1H8.944L1,8.944V34.309H13.953v4.626H1V55.589H28.757v-7.4h7.449A11.1,11.1,0,1,0,47.262,36.159ZM42.093,13.028l7.019-7.019L50.58,7.477,43.561,14.5Zm-.9,1.713,3.434,3.434L40.74,19.47a.677.677,0,0,1-.88-.632.708.708,0,0,1,.033-.211Zm5.147,2.531L44.869,15.8l7.019-7.019,1.467,1.467ZM53.515,2.85a3,3,0,0,1,2.122,5.121l-.972.972L50.421,4.7l.972-.972a2.981,2.981,0,0,1,2.122-.878ZM34.309,12.1H40.4l-.426.426-1.839,5.516a2.517,2.517,0,0,0,3.186,3.181l5.513-1.838,2.276-2.276v9.795h-14.8ZM4.159,8.4,8.4,4.159V8.4Zm2.393,1.85h3.7v-3.7H23.206V12.1H6.551Zm-3.7,0H4.7v3.7H25.056V4.7h-14.8V2.85H26.907V32.458H2.85ZM26.907,53.739H2.85V40.785H26.907Zm20.355,2.776a9.252,9.252,0,1,1,9.252-9.252A9.263,9.263,0,0,1,47.262,56.514Z" transform="translate(0 0)"/>
      <path id="Trazado_1045557" data-name="Trazado 1045557" d="M48.648,54.966,45.6,51.919l-1.308,1.308,4.355,4.355L57.629,48.6l-1.308-1.308Z" transform="translate(-3.237 -3.461)"/>
      <path id="Trazado_1045558" data-name="Trazado 1045558" d="M7.776,53.551A2.776,2.776,0,1,0,5,50.776,2.779,2.779,0,0,0,7.776,53.551Zm0-3.7a.925.925,0,1,1-.925.925A.926.926,0,0,1,7.776,49.85Z" transform="translate(-0.299 -3.514)"/>
      <path id="Trazado_1045559" data-name="Trazado 1045559" d="M15.776,53.551A2.776,2.776,0,1,0,13,50.776,2.779,2.779,0,0,0,15.776,53.551Zm0-3.7a.925.925,0,1,1-.925.925A.926.926,0,0,1,15.776,49.85Z" transform="translate(-0.897 -3.514)"/>
      <path id="Trazado_1045560" data-name="Trazado 1045560" d="M23.776,53.551A2.776,2.776,0,1,0,21,50.776,2.779,2.779,0,0,0,23.776,53.551Zm0-3.7a.925.925,0,1,1-.925.925A.926.926,0,0,1,23.776,49.85Z" transform="translate(-1.495 -3.514)"/>
      <path id="Trazado_1045561" data-name="Trazado 1045561" d="M39,25H50.1v1.85H39Z" transform="translate(-2.841 -1.794)"/>
      <path id="Trazado_1045562" data-name="Trazado 1045562" d="M5,17H6.85v1.85H5Z" transform="translate(-0.299 -1.196)"/>
      <path id="Trazado_1045563" data-name="Trazado 1045563" d="M9,17H25.654v1.85H9Z" transform="translate(-0.598 -1.196)"/>
      <path id="Trazado_1045564" data-name="Trazado 1045564" d="M5,21H25.355v1.85H5Z" transform="translate(-0.299 -1.495)"/>
      <path id="Trazado_1045565" data-name="Trazado 1045565" d="M5,32.4H25.355V25H5ZM6.85,26.85H23.5v3.7H6.85Z" transform="translate(-0.299 -1.794)"/>
    </g>
  </g>
</svg>
