<svg xmlns="http://www.w3.org/2000/svg" xmlns:xlink="http://www.w3.org/1999/xlink" width="113" height="113" viewBox="0 0 113 113">
  <defs>
    <filter id="Trazado_982547" x="0" y="0" width="113" height="113" filterUnits="userSpaceOnUse">
      <feOffset dy="3" input="SourceAlpha"/>
      <feGaussianBlur stdDeviation="3" result="blur"/>
      <feFlood flood-opacity="0.161"/>
      <feComposite operator="in" in2="blur"/>
      <feComposite in="SourceGraphic"/>
    </filter>
  </defs>
  <g id="Grupo_1201627" data-name="Grupo 1201627" transform="translate(-902 -5700.5)">
    <g id="Grupo_1201367" data-name="Grupo 1201367" transform="translate(911 5706.5)">
      <g id="Grupo_1172010" data-name="Grupo 1172010">
        <g id="Grupo_1171046" data-name="Grupo 1171046">
          <g id="Grupo_1148525" data-name="Grupo 1148525">
            <g transform="matrix(1, 0, 0, 1, -9, -6)" filter="url(#Trazado_982547)">
              <g id="Trazado_982547-2" data-name="Trazado 982547" transform="translate(9 6)" fill="#fdfbec">
                <path d="M 47.5 93.5 C 41.28937149047852 93.5 35.26533508300781 92.28397369384766 29.59518623352051 89.88570404052734 C 24.11771965026855 87.56893157958984 19.19813346862793 84.25196075439453 14.97309303283691 80.02691650390625 C 10.74804019927979 75.80186462402344 7.431066513061523 70.88229370117188 5.114293098449707 65.40481567382812 C 2.716026782989502 59.73468017578125 1.5 53.71062850952148 1.5 47.5 C 1.5 41.28937149047852 2.716026782989502 35.26533508300781 5.114293098449707 29.59518623352051 C 7.431066513061523 24.11771965026855 10.74804019927979 19.19813346862793 14.97309303283691 14.97309303283691 C 19.19813346862793 10.74804019927979 24.11771965026855 7.431066513061523 29.59518623352051 5.114293098449707 C 35.26533508300781 2.716026782989502 41.28937149047852 1.5 47.5 1.5 C 53.71062850952148 1.5 59.73468017578125 2.716026782989502 65.40481567382812 5.114293098449707 C 70.88229370117188 7.431066513061523 75.80186462402344 10.74804019927979 80.02691650390625 14.97309303283691 C 84.25196075439453 19.19813346862793 87.56893157958984 24.11771965026855 89.88570404052734 29.59518623352051 C 92.28397369384766 35.26533508300781 93.5 41.28937149047852 93.5 47.5 C 93.5 53.71062850952148 92.28397369384766 59.73468017578125 89.88570404052734 65.40481567382812 C 87.56893157958984 70.88229370117188 84.25196075439453 75.80186462402344 80.02691650390625 80.02691650390625 C 75.80186462402344 84.25196075439453 70.88229370117188 87.56893157958984 65.40481567382812 89.88570404052734 C 59.73468017578125 92.28397369384766 53.71062850952148 93.5 47.5 93.5 Z" stroke="none"/>
                <path d="M 47.5 3 C 41.49121475219727 3 35.66376876831055 4.176155090332031 30.17950439453125 6.495796203613281 C 24.88084411621094 8.736953735351562 20.12152099609375 11.94598388671875 16.03375244140625 16.03375244140625 C 11.94598388671875 20.12152099609375 8.736953735351562 24.88084411621094 6.495796203613281 30.17950439453125 C 4.176155090332031 35.66376876831055 3 41.49121475219727 3 47.5 C 3 53.50878524780273 4.176155090332031 59.33623123168945 6.495796203613281 64.82049560546875 C 8.736953735351562 70.11915588378906 11.94598388671875 74.87847900390625 16.03375244140625 78.96624755859375 C 20.12152099609375 83.05401611328125 24.88084411621094 86.26304626464844 30.17950439453125 88.50419616699219 C 35.66376876831055 90.82384490966797 41.49121475219727 92 47.5 92 C 53.50878524780273 92 59.33623123168945 90.82384490966797 64.82049560546875 88.50419616699219 C 70.11915588378906 86.26304626464844 74.87847900390625 83.05401611328125 78.96624755859375 78.96624755859375 C 83.05401611328125 74.87847900390625 86.26304626464844 70.11915588378906 88.50419616699219 64.82049560546875 C 90.82384490966797 59.33623123168945 92 53.50878524780273 92 47.5 C 92 41.49121475219727 90.82384490966797 35.66376876831055 88.50419616699219 30.17950439453125 C 86.26304626464844 24.88084411621094 83.05401611328125 20.12152099609375 78.96624755859375 16.03375244140625 C 74.87847900390625 11.94598388671875 70.11915588378906 8.736953735351562 64.82049560546875 6.495796203613281 C 59.33623123168945 4.176155090332031 53.50878524780273 3 47.5 3 M 47.5 0 C 73.7335205078125 0 95 21.2664794921875 95 47.5 C 95 73.7335205078125 73.7335205078125 95 47.5 95 C 21.2664794921875 95 0 73.7335205078125 0 47.5 C 0 21.2664794921875 21.2664794921875 0 47.5 0 Z" stroke="none" fill="#83793c"/>
              </g>
            </g>
          </g>
        </g>
      </g>
    </g>
    <g id="spesification_12983767" transform="translate(903 5714.628)">
      <g id="Grupo_1201614" data-name="Grupo 1201614" transform="translate(42.155 36.242)">
        <g id="Grupo_1201613" data-name="Grupo 1201613" transform="translate(0 0)">
          <g id="Grupo_1201612" data-name="Grupo 1201612">
            <path id="Trazado_1045738" data-name="Trazado 1045738" d="M165.291,231.6a13.813,13.813,0,0,0-13.2,9.747,3.149,3.149,0,0,0,3.021,4.06h20.359a3.149,3.149,0,0,0,3.021-4.06A13.813,13.813,0,0,0,165.291,231.6Z" transform="translate(-151.952 -231.599)" fill="#5ad6ff"/>
          </g>
        </g>
      </g>
      <path id="Trazado_1045739" data-name="Trazado 1045739" d="M161.069,241.346a13.84,13.84,0,0,1,8.711-9,13.821,13.821,0,0,0-17.689,9,3.149,3.149,0,0,0,3.021,4.06h8.978A3.149,3.149,0,0,1,161.069,241.346Z" transform="translate(-109.797 -195.357)" fill="#00b4fd"/>
      <path id="Trazado_1045740" data-name="Trazado 1045740" d="M212.01,13.451a12.626,12.626,0,0,1-1.593-1.517,14.24,14.24,0,0,0-6.528-4.256,4.348,4.348,0,0,0-3.64.568,1.035,1.035,0,0,1-.565.173.981.981,0,0,1-.228-.029c-4.526,2.112-8.052,5.549-8.052,9.444,0,4.335,4.19,8.669,9.088,10.106h15.457a2.45,2.45,0,0,1,.337-.985,7.724,7.724,0,0,0,1.17-4.025C217.455,19.735,215.369,16.167,212.01,13.451Z" transform="translate(-144.188 0)" fill="#5b778f"/>
      <g id="Grupo_1201615" data-name="Grupo 1201615" transform="translate(37.722 7.501)">
        <path id="Trazado_1045741" data-name="Trazado 1045741" d="M130.068,17.84A11.588,11.588,0,0,1,134.933,8.4a1.079,1.079,0,0,1-.337-.143,4.354,4.354,0,0,0-3.649-.566,14.237,14.237,0,0,0-6.459,4.184,14.989,14.989,0,0,1-1.74,1.7c-3.3,2.7-5.36,6.215-5.36,9.365a7.755,7.755,0,0,0,1.236,4.132,2.351,2.351,0,0,1,.325.878h17.02A11.6,11.6,0,0,1,130.068,17.84Z" transform="translate(-117.388 -7.507)" fill="#4e6a7f"/>
      </g>
      <circle id="Elipse_12476" data-name="Elipse 12476" cx="3.604" cy="3.604" r="3.604" transform="translate(36.879 24.276)" fill="#f9bbaf"/>
      <circle id="Elipse_12477" data-name="Elipse 12477" cx="3.604" cy="3.604" r="3.604" transform="translate(66.903 24.276)" fill="#ffccbf"/>
      <path id="Trazado_1045742" data-name="Trazado 1045742" d="M213.561,101.625a2.726,2.726,0,0,0-.862-1.881,6.311,6.311,0,0,1-1.818-3.3l-.007-.03a2.193,2.193,0,0,0-1.862-1.736,4.743,4.743,0,0,0-3.205.744,10.819,10.819,0,0,1-5.9,1.658,11.479,11.479,0,0,1-3.779-.627c-2.923,1.715-4.467,3.71-4.467,5.775,0,6.044,4.562,11.7,12.552,12.97a13.669,13.669,0,0,0,9.359-12.97Q213.574,101.923,213.561,101.625Z" transform="translate(-144.415 -75.961)" fill="#ffded0"/>
      <path id="Trazado_1045743" data-name="Trazado 1045743" d="M158.025,102.232a13.607,13.607,0,0,1,1.28-5.775,9.722,9.722,0,0,1-2.117-1.031,4.73,4.73,0,0,0-3.451-.7,2.194,2.194,0,0,0-1.742,1.715l0,.011a6.338,6.338,0,0,1-1.742,3.23,2.7,2.7,0,0,0-.81,1.8q-.017.318-.02.639A13.669,13.669,0,0,0,167.389,115.2,13.667,13.667,0,0,1,158.025,102.232Z" transform="translate(-107.589 -75.968)" fill="#ffccbf"/>
      <g id="Grupo_1201617" data-name="Grupo 1201617" transform="translate(60.295 41.211)">
        <g id="Grupo_1201616" data-name="Grupo 1201616" transform="translate(0 0)">
          <path id="Trazado_1045744" data-name="Trazado 1045744" d="M309.216,272.5l.81,1.642a3.881,3.881,0,0,0,2.922,2.123l1.812.263a3.881,3.881,0,0,1,2.151,6.621l-1.311,1.278a3.881,3.881,0,0,0-1.116,3.436l.309,1.8a3.881,3.881,0,0,1-5.632,4.092l-1.62-.852a3.881,3.881,0,0,0-3.612,0l-1.62.852a3.881,3.881,0,0,1-5.632-4.092l.309-1.8a3.882,3.882,0,0,0-1.116-3.436l-1.311-1.278a3.881,3.881,0,0,1,2.151-6.621l1.812-.263a3.881,3.881,0,0,0,2.922-2.123l.81-1.642A3.881,3.881,0,0,1,309.216,272.5Z" transform="translate(-293.384 -270.339)" fill="#ffcf6b"/>
        </g>
      </g>
      <g id="Grupo_1201619" data-name="Grupo 1201619" transform="translate(26.001 41.211)">
        <g id="Grupo_1201618" data-name="Grupo 1201618" transform="translate(0 0)">
          <path id="Trazado_1045745" data-name="Trazado 1045745" d="M41.834,272.5l.81,1.642a3.881,3.881,0,0,0,2.922,2.123l1.812.263a3.881,3.881,0,0,1,2.151,6.621l-1.311,1.278a3.882,3.882,0,0,0-1.116,3.436l.309,1.8a3.881,3.881,0,0,1-5.632,4.092l-1.62-.852a3.881,3.881,0,0,0-3.612,0l-1.62.852a3.881,3.881,0,0,1-5.632-4.092l.309-1.8a3.882,3.882,0,0,0-1.116-3.436l-1.311-1.278a3.881,3.881,0,0,1,2.151-6.621l1.812-.263a3.881,3.881,0,0,0,2.922-2.123l.81-1.642A3.881,3.881,0,0,1,41.834,272.5Z" transform="translate(-26.001 -270.339)" fill="#ffb451"/>
        </g>
      </g>
      <path id="Trazado_1045746" data-name="Trazado 1045746" d="M166.138,298.413a4.4,4.4,0,0,1-.533-.827l-.919-1.863a4.4,4.4,0,0,0-7.9,0l-.919,1.863A4.4,4.4,0,0,1,152.552,300l-2.056.3a4.4,4.4,0,0,0-2.441,7.512l1.487,1.45a4.4,4.4,0,0,1,1.267,3.9l-.351,2.047a4.4,4.4,0,0,0,6.39,4.643l1.839-.967a4.4,4.4,0,0,1,3.381-.3Z" transform="translate(-105.236 -249.116)" fill="#ffcf6b"/>
      <g id="Grupo_1201620" data-name="Grupo 1201620" transform="translate(52.286 49.296)">
        <path id="Trazado_1045747" data-name="Trazado 1045747" d="M244.4,335.259l-2.056-.3a4.4,4.4,0,0,1-2.784-1.583h0a4.4,4.4,0,0,1-2.784,1.582l-2.056.3a4.4,4.4,0,0,0-2.441,7.512l1.487,1.45a4.4,4.4,0,0,1,1.267,3.9l-.351,2.047a4.325,4.325,0,0,0,.808,3.377h0a4.4,4.4,0,0,1,.718.3l1.839.967a4.4,4.4,0,0,0,6.39-4.643l-.351-2.047a4.4,4.4,0,0,1,1.267-3.9l1.487-1.45A4.4,4.4,0,0,0,244.4,335.259Z" transform="translate(-230.944 -333.378)" fill="#f8ea69"/>
      </g>
      <g id="Grupo_1201621" data-name="Grupo 1201621" transform="translate(52.474 53.102)">
        <path id="Trazado_1045748" data-name="Trazado 1045748" d="M241.918,363.947a3.055,3.055,0,0,0-4.32,0l-3.6,3.6h0c-1.193,1.193-2.256,4.19-1.063,5.383s4.19.13,5.383-1.063l3.6-3.6A3.055,3.055,0,0,0,241.918,363.947Z" transform="translate(-232.412 -363.052)" fill="#fff"/>
      </g>
      <path id="Trazado_1045749" data-name="Trazado 1045749" d="M208.75,391.446a3.055,3.055,0,1,1-4.321-4.32h0l-.72-.72a3.055,3.055,0,1,0-4.32,4.32l2.88,2.88a3.055,3.055,0,0,0,4.32,0Z" transform="translate(-150.37 -329.528)" fill="#efedff"/>
      <g id="Grupo_1201626" data-name="Grupo 1201626" transform="translate(26.001 7.5)">
        <g id="Grupo_1201622" data-name="Grupo 1201622" transform="translate(21.073 18.386)">
          <line id="Línea_992" data-name="Línea 992" y2="1.618" fill="none" stroke="#000" stroke-linecap="round" stroke-linejoin="round" stroke-miterlimit="10" stroke-width="1.2"/>
          <line id="Línea_993" data-name="Línea 993" y2="1.618" transform="translate(16.841)" fill="none" stroke="#000" stroke-linecap="round" stroke-linejoin="round" stroke-miterlimit="10" stroke-width="1.2"/>
          <path id="Trazado_1045750" data-name="Trazado 1045750" d="M238.65,163.091a2.942,2.942,0,0,0,4.44,0" transform="translate(-232.45 -161.521)" fill="none" stroke="#000" stroke-linecap="round" stroke-linejoin="round" stroke-miterlimit="10" stroke-width="1.2"/>
        </g>
        <path id="Trazado_1045751" data-name="Trazado 1045751" d="M121.638,62.453c-2.647,2.538-4.249,5.6-4.249,8.381a7.327,7.327,0,0,0,.313,2.114" transform="translate(-105.668 -55.405)" fill="none" stroke="#000" stroke-linecap="round" stroke-linejoin="round" stroke-miterlimit="10" stroke-width="1.2"/>
        <path id="Trazado_1045752" data-name="Trazado 1045752" d="M203.511,25.134a7.339,7.339,0,0,0,.341-2.2c0-3.194-2.086-6.763-5.446-9.478a12.633,12.633,0,0,1-1.593-1.517,14.239,14.239,0,0,0-6.528-4.256,4.348,4.348,0,0,0-3.64.568,1.036,1.036,0,0,1-.565.173.981.981,0,0,1-.228-.029h0a1.079,1.079,0,0,1-.337-.143,4.353,4.353,0,0,0-3.649-.566A14.227,14.227,0,0,0,175.8,11.44" transform="translate(-156.585 -7.501)" fill="none" stroke="#000" stroke-linecap="round" stroke-linejoin="round" stroke-miterlimit="10" stroke-width="1.2"/>
        <path id="Trazado_1045753" data-name="Trazado 1045753" d="M116.492,144.852a3.6,3.6,0,1,1-.59-6.233" transform="translate(-99.937 -121.524)" fill="none" stroke="#000" stroke-linecap="round" stroke-linejoin="round" stroke-miterlimit="10" stroke-width="1.2"/>
        <path id="Trazado_1045754" data-name="Trazado 1045754" d="M358.055,138.613a3.6,3.6,0,1,1-.514,6.3" transform="translate(-315.019 -121.525)" fill="none" stroke="#000" stroke-linecap="round" stroke-linejoin="round" stroke-miterlimit="10" stroke-width="1.2"/>
        <path id="Trazado_1045755" data-name="Trazado 1045755" d="M176.749,102.225q0-.3-.013-.6a2.726,2.726,0,0,0-.862-1.881,6.311,6.311,0,0,1-1.818-3.3l-.006-.03a2.193,2.193,0,0,0-1.862-1.736,4.744,4.744,0,0,0-3.205.744,10.818,10.818,0,0,1-5.9,1.658,11.48,11.48,0,0,1-3.779-.627,9.717,9.717,0,0,1-2.117-1.031,4.731,4.731,0,0,0-3.451-.7A2.194,2.194,0,0,0,152,96.43l0,.011a6.338,6.338,0,0,1-1.742,3.23,2.7,2.7,0,0,0-.81,1.8q-.017.318-.02.639A13.668,13.668,0,0,0,167.39,115.2h0A13.668,13.668,0,0,0,176.749,102.225Z" transform="translate(-133.591 -83.461)" fill="none" stroke="#000" stroke-linecap="round" stroke-linejoin="round" stroke-miterlimit="10" stroke-width="1.2"/>
        <path id="Trazado_1045756" data-name="Trazado 1045756" d="M339.357,448.108l-1.182.621a3.821,3.821,0,0,1-3.649-.018" transform="translate(-294.955 -391.597)" fill="none" stroke="#000" stroke-linecap="round" stroke-linejoin="round" stroke-miterlimit="10" stroke-width="1.2"/>
        <path id="Trazado_1045757" data-name="Trazado 1045757" d="M298.111,278.29a3.815,3.815,0,0,1,2.721-1.759l1.812-.263a3.881,3.881,0,0,0,2.923-2.123l.81-1.642a3.881,3.881,0,0,1,6.961,0l.81,1.642a3.881,3.881,0,0,0,2.922,2.123l1.812.263a3.881,3.881,0,0,1,2.151,6.621l-1.311,1.278a3.881,3.881,0,0,0-1.116,3.436l.309,1.8a3.881,3.881,0,0,1-5.632,4.092l-1.182-.621" transform="translate(-263.211 -236.628)" fill="none" stroke="#000" stroke-linecap="round" stroke-linejoin="round" stroke-miterlimit="10" stroke-width="1.2"/>
        <g id="Grupo_1201623" data-name="Grupo 1201623" transform="translate(0 33.711)">
          <path id="Trazado_1045758" data-name="Trazado 1045758" d="M45.449,293.732a3.822,3.822,0,0,1-3.668.029l-1.62-.852a3.881,3.881,0,0,0-3.612,0l-1.62.852a3.881,3.881,0,0,1-5.632-4.092l.309-1.8a3.882,3.882,0,0,0-1.116-3.436l-1.311-1.278a3.881,3.881,0,0,1,2.151-6.621l1.812-.263a3.881,3.881,0,0,0,2.922-2.123l.81-1.642a3.881,3.881,0,0,1,6.961,0l.81,1.642a3.881,3.881,0,0,0,2.922,2.123l1.812.263a3.815,3.815,0,0,1,2.75,1.806" transform="translate(-26.002 -270.339)" fill="none" stroke="#000" stroke-linecap="round" stroke-linejoin="round" stroke-miterlimit="10" stroke-width="1.2"/>
        </g>
        <g id="Grupo_1201624" data-name="Grupo 1201624" transform="translate(15.483 36.652)">
          <path id="Trazado_1045759" data-name="Trazado 1045759" d="M164.685,295.723l.919,1.863a4.4,4.4,0,0,0,3.316,2.409l2.056.3a4.4,4.4,0,0,1,2.441,7.512l-1.487,1.45a4.4,4.4,0,0,0-1.267,3.9l.351,2.047a4.4,4.4,0,0,1-6.39,4.643l-1.839-.966a4.4,4.4,0,0,0-4.1,0l-1.839.966a4.4,4.4,0,0,1-6.39-4.643l.351-2.047a4.4,4.4,0,0,0-1.267-3.9l-1.487-1.45a4.4,4.4,0,0,1,2.441-7.512l2.056-.3a4.4,4.4,0,0,0,3.316-2.409l.919-1.863A4.4,4.4,0,0,1,164.685,295.723Z" transform="translate(-146.72 -293.268)" fill="none" stroke="#000" stroke-linecap="round" stroke-linejoin="round" stroke-miterlimit="10" stroke-width="1.2"/>
        </g>
        <path id="Trazado_1045760" data-name="Trazado 1045760" d="M212.351,363.947a3.055,3.055,0,0,0-4.32,0l-3.6,3.6h0l-.72-.72a3.055,3.055,0,0,0-4.32,4.321l2.88,2.88a3.055,3.055,0,0,0,4.321,0l2.16-2.16h0l3.6-3.6A3.055,3.055,0,0,0,212.351,363.947Z" transform="translate(-176.371 -317.45)" fill="none" stroke="#000" stroke-linecap="round" stroke-linejoin="round" stroke-miterlimit="10" stroke-width="1.2"/>
        <g id="Grupo_1201625" data-name="Grupo 1201625" transform="translate(16.659 30.585)">
          <path id="Trazado_1045761" data-name="Trazado 1045761" d="M315.873,252.978a13.857,13.857,0,0,0-5.922-6.88" transform="translate(-290.192 -246.081)" fill="none" stroke="#000" stroke-linecap="round" stroke-linejoin="round" stroke-miterlimit="10" stroke-width="1.2"/>
          <path id="Trazado_1045762" data-name="Trazado 1045762" d="M161.83,245.966a13.857,13.857,0,0,0-5.939,6.864" transform="translate(-155.891 -245.966)" fill="none" stroke="#000" stroke-linecap="round" stroke-linejoin="round" stroke-miterlimit="10" stroke-width="1.2"/>
        </g>
      </g>
    </g>
  </g>
</svg>
