<svg xmlns="http://www.w3.org/2000/svg" xmlns:xlink="http://www.w3.org/1999/xlink" width="113" height="113" viewBox="0 0 113 113">
  <defs>
    <filter id="Trazado_982547" x="0" y="0" width="113" height="113" filterUnits="userSpaceOnUse">
      <feOffset dy="3" input="SourceAlpha"/>
      <feGaussianBlur stdDeviation="3" result="blur"/>
      <feFlood flood-opacity="0.161"/>
      <feComposite operator="in" in2="blur"/>
      <feComposite in="SourceGraphic"/>
    </filter>
  </defs>
  <g id="Grupo_1201578" data-name="Grupo 1201578" transform="translate(-587 -914.5)">
    <g id="Grupo_1201329" data-name="Grupo 1201329" transform="translate(-0.5 -1692.515)">
      <g id="Grupo_1173989" data-name="Grupo 1173989" transform="translate(595.5 2613.015)">
        <g id="Grupo_1172010" data-name="Grupo 1172010">
          <g id="Grupo_1171046" data-name="Grupo 1171046" transform="translate(1)">
            <g id="Grupo_1148525" data-name="Grupo 1148525">
              <g transform="matrix(1, 0, 0, 1, -9, -6)" filter="url(#Trazado_982547)">
                <g id="Trazado_982547-2" data-name="Trazado 982547" transform="translate(9 6)" fill="#fdfbec">
                  <path d="M 47.5 93.5 C 41.28937149047852 93.5 35.26533508300781 92.28397369384766 29.59518623352051 89.88570404052734 C 24.11771965026855 87.56893157958984 19.19813346862793 84.25196075439453 14.97309303283691 80.02691650390625 C 10.74804019927979 75.80186462402344 7.431066513061523 70.88229370117188 5.114293098449707 65.40481567382812 C 2.716026782989502 59.73468017578125 1.5 53.71062850952148 1.5 47.5 C 1.5 41.28937149047852 2.716026782989502 35.26533508300781 5.114293098449707 29.59518623352051 C 7.431066513061523 24.11771965026855 10.74804019927979 19.19813346862793 14.97309303283691 14.97309303283691 C 19.19813346862793 10.74804019927979 24.11771965026855 7.431066513061523 29.59518623352051 5.114293098449707 C 35.26533508300781 2.716026782989502 41.28937149047852 1.5 47.5 1.5 C 53.71062850952148 1.5 59.73468017578125 2.716026782989502 65.40481567382812 5.114293098449707 C 70.88229370117188 7.431066513061523 75.80186462402344 10.74804019927979 80.02691650390625 14.97309303283691 C 84.25196075439453 19.19813346862793 87.56893157958984 24.11771965026855 89.88570404052734 29.59518623352051 C 92.28397369384766 35.26533508300781 93.5 41.28937149047852 93.5 47.5 C 93.5 53.71062850952148 92.28397369384766 59.73468017578125 89.88570404052734 65.40481567382812 C 87.56893157958984 70.88229370117188 84.25196075439453 75.80186462402344 80.02691650390625 80.02691650390625 C 75.80186462402344 84.25196075439453 70.88229370117188 87.56893157958984 65.40481567382812 89.88570404052734 C 59.73468017578125 92.28397369384766 53.71062850952148 93.5 47.5 93.5 Z" stroke="none"/>
                  <path d="M 47.5 3 C 41.49121475219727 3 35.66376876831055 4.176155090332031 30.17950439453125 6.495796203613281 C 24.88084411621094 8.736953735351562 20.12152099609375 11.94598388671875 16.03375244140625 16.03375244140625 C 11.94598388671875 20.12152099609375 8.736953735351562 24.88084411621094 6.495796203613281 30.17950439453125 C 4.176155090332031 35.66376876831055 3 41.49121475219727 3 47.5 C 3 53.50878524780273 4.176155090332031 59.33623123168945 6.495796203613281 64.82049560546875 C 8.736953735351562 70.11915588378906 11.94598388671875 74.87847900390625 16.03375244140625 78.96624755859375 C 20.12152099609375 83.05401611328125 24.88084411621094 86.26304626464844 30.17950439453125 88.50419616699219 C 35.66376876831055 90.82384490966797 41.49121475219727 92 47.5 92 C 53.50878524780273 92 59.33623123168945 90.82384490966797 64.82049560546875 88.50419616699219 C 70.11915588378906 86.26304626464844 74.87847900390625 83.05401611328125 78.96624755859375 78.96624755859375 C 83.05401611328125 74.87847900390625 86.26304626464844 70.11915588378906 88.50419616699219 64.82049560546875 C 90.82384490966797 59.33623123168945 92 53.50878524780273 92 47.5 C 92 41.49121475219727 90.82384490966797 35.66376876831055 88.50419616699219 30.17950439453125 C 86.26304626464844 24.88084411621094 83.05401611328125 20.12152099609375 78.96624755859375 16.03375244140625 C 74.87847900390625 11.94598388671875 70.11915588378906 8.736953735351562 64.82049560546875 6.495796203613281 C 59.33623123168945 4.176155090332031 53.50878524780273 3 47.5 3 M 47.5 0 C 73.7335205078125 0 95 21.2664794921875 95 47.5 C 95 73.7335205078125 73.7335205078125 95 47.5 95 C 21.2664794921875 95 0 73.7335205078125 0 47.5 C 0 21.2664794921875 21.2664794921875 0 47.5 0 Z" stroke="none" fill="#83793c"/>
                </g>
              </g>
            </g>
          </g>
        </g>
      </g>
    </g>
    <g id="sketch_2192685" transform="translate(614.98 940.98)">
      <path id="Trazado_1045566" data-name="Trazado 1045566" d="M51,45h9.007v3.6H51Z" transform="translate(-4.868 -4.272)" fill="#ffde55"/>
      <path id="Trazado_1045567" data-name="Trazado 1045567" d="M51,15h9.007V42.02H51Z" transform="translate(-4.868 -1.291)" fill="#ff3051"/>
      <path id="Trazado_1045568" data-name="Trazado 1045568" d="M51,11h9.007v3.6H51Z" transform="translate(-4.868 -0.894)" fill="#b2fa09"/>
      <path id="Trazado_1045569" data-name="Trazado 1045569" d="M60.007,7.5v2.7H51V7.5a4.5,4.5,0,1,1,9.007,0Z" transform="translate(-4.868 -0.099)" fill="#46f8ff"/>
      <path id="Trazado_1045570" data-name="Trazado 1045570" d="M60.007,49,55.5,59.808,51,49Z" transform="translate(-4.868 -4.669)" fill="#b39a7c"/>
      <path id="Trazado_1045571" data-name="Trazado 1045571" d="M40.828,4.8V48.033h-5.4a1.807,1.807,0,0,0-1.8,1.8v5.4H4.8a1.807,1.807,0,0,1-1.8-1.8V4.8A1.807,1.807,0,0,1,4.8,3H39.026a1.807,1.807,0,0,1,1.8,1.8Z" transform="translate(-0.099 -0.099)" fill="#fee9ab"/>
      <path id="Trazado_1045572" data-name="Trazado 1045572" d="M44.205,53,37,60.205V54.8A1.807,1.807,0,0,1,38.8,53Z" transform="translate(-3.477 -5.067)" fill="#ff7956"/>
      <path id="Trazado_1045573" data-name="Trazado 1045573" d="M27,33H37.808V43.808H27Z" transform="translate(-2.484 -3.08)" fill="#46f8ff"/>
      <path id="Trazado_1045574" data-name="Trazado 1045574" d="M29.4,16A5.4,5.4,0,1,1,24,21.4,5.4,5.4,0,0,0,29.4,16Z" transform="translate(-2.186 -1.391)" fill="#57a4ff"/>
      <path id="Trazado_1045575" data-name="Trazado 1045575" d="M23.4,10a5.4,5.4,0,0,1,5.4,5.4,5.4,5.4,0,0,0-5.4,5.4A5.4,5.4,0,0,0,18,15.4,5.4,5.4,0,0,1,23.4,10Z" transform="translate(-1.59 -0.795)" fill="#ff3051"/>
      <path id="Trazado_1045576" data-name="Trazado 1045576" d="M29.4,16A5.4,5.4,0,0,1,24,21.4,5.4,5.4,0,0,1,29.4,16Z" transform="translate(-2.186 -1.391)" fill="#ffde55"/>
      <path id="Trazado_1045577" data-name="Trazado 1045577" d="M18,16a5.4,5.4,0,0,1,5.4,5.4A5.4,5.4,0,0,1,18,16Z" transform="translate(-1.59 -1.391)" fill="#ff9811"/>
      <path id="Trazado_1045578" data-name="Trazado 1045578" d="M22.808,21.4A5.4,5.4,0,1,1,17.4,16,5.4,5.4,0,0,0,22.808,21.4Z" transform="translate(-0.993 -1.391)" fill="#b2fa09"/>
      <path id="Trazado_1045579" data-name="Trazado 1045579" d="M14.4,33l5.4,10.808H9Z" transform="translate(-0.695 -3.08)" fill="#ffcd00"/>
      <path id="Trazado_1045580" data-name="Trazado 1045580" d="M38.927,2H4.7A2.7,2.7,0,0,0,2,4.7V53.337a2.7,2.7,0,0,0,2.7,2.7H33.523a.9.9,0,0,0,.637-.264l7.205-7.205a.9.9,0,0,0,.264-.637V4.7A2.7,2.7,0,0,0,38.927,2ZM3.8,53.337V4.7a.9.9,0,0,1,.9-.9H38.927a.9.9,0,0,1,.9.9V47.033h-4.5a2.7,2.7,0,0,0-2.7,2.7v4.5H4.7A.9.9,0,0,1,3.8,53.337Zm34.753-4.5-4.13,4.13v-3.23a.9.9,0,0,1,.9-.9Z" transform="translate(0 0)"/>
      <path id="Trazado_1045581" data-name="Trazado 1045581" d="M37.709,44.609a.9.9,0,0,0,.9-.9V32.9a.9.9,0,0,0-.9-.9H26.9a.9.9,0,0,0-.9.9V43.709a.9.9,0,0,0,.9.9ZM27.8,33.8h9.007v9.007H27.8Z" transform="translate(-2.384 -2.98)"/>
      <path id="Trazado_1045582" data-name="Trazado 1045582" d="M15.116,32.5a.938.938,0,0,0-1.612,0L8.1,43.31a.9.9,0,0,0,.8,1.3H19.709a.9.9,0,0,0,.806-1.3Zm-4.757,10.31,3.947-7.893,3.947,7.893Z" transform="translate(-0.597 -2.985)"/>
      <path id="Trazado_1045583" data-name="Trazado 1045583" d="M28.111,27.013a6.3,6.3,0,0,0,.839-12.547,6.3,6.3,0,0,0-12.485,0,6.3,6.3,0,1,0,6.242,9.473,6.3,6.3,0,0,0,5.4,3.074Zm4.5-6.3a4.5,4.5,0,0,1-8.924.816,6.309,6.309,0,0,0,5.236-5.236A4.5,4.5,0,0,1,32.614,20.708Zm-8.876-1.031a4.5,4.5,0,0,1,3.341-3.341,4.5,4.5,0,0,1-3.341,3.341ZM22.707,10.8a4.5,4.5,0,0,1,4.42,3.687,6.311,6.311,0,0,0-4.42,2.989,6.311,6.311,0,0,0-4.42-2.989A4.5,4.5,0,0,1,22.707,10.8Zm-1.031,8.876a4.5,4.5,0,0,1-3.341-3.341,4.5,4.5,0,0,1,3.341,3.341ZM17.3,25.212a4.5,4.5,0,0,1-.816-8.924,6.311,6.311,0,0,0,5.236,5.236,4.5,4.5,0,0,1-4.42,3.687Z" transform="translate(-0.892 -0.695)"/>
      <path id="Trazado_1045584" data-name="Trazado 1045584" d="M55.4,2A5.409,5.409,0,0,0,50,7.4V44.331a.9.9,0,0,0,.069.347l4.5,10.808a.9.9,0,0,0,1.663,0l4.5-10.808a.9.9,0,0,0,.069-.347V7.4A5.409,5.409,0,0,0,55.4,2Zm0,1.8a3.6,3.6,0,0,1,3.6,3.6v1.8H51.8V7.4A3.6,3.6,0,0,1,55.4,3.8ZM51.8,43.43v-1.8h7.205v1.8Zm0-3.6V14.609h7.205V39.828Zm0-27.02v-1.8h7.205v1.8ZM55.4,52.8l-3.152-7.566h6.3Z" transform="translate(-4.769)"/>
      <path id="Trazado_1045585" data-name="Trazado 1045585" d="M55,18h1.8v1.8H55Z" transform="translate(-5.265 -1.59)"/>
      <path id="Trazado_1045586" data-name="Trazado 1045586" d="M55,22h1.8V40.013H55Z" transform="translate(-5.265 -1.987)"/>
    </g>
  </g>
</svg>
