<svg xmlns="http://www.w3.org/2000/svg" xmlns:xlink="http://www.w3.org/1999/xlink" width="113" height="113" viewBox="0 0 113 113">
  <defs>
    <filter id="Trazado_982547" x="0" y="0" width="113" height="113" filterUnits="userSpaceOnUse">
      <feOffset dy="3" input="SourceAlpha"/>
      <feGaussianBlur stdDeviation="3" result="blur"/>
      <feFlood flood-opacity="0.161"/>
      <feComposite operator="in" in2="blur"/>
      <feComposite in="SourceGraphic"/>
    </filter>
  </defs>
  <g id="Grupo_1201579" data-name="Grupo 1201579" transform="translate(-902 -914.5)">
    <g id="Grupo_1201327" data-name="Grupo 1201327" transform="translate(911 920.5)">
      <g id="Grupo_1172010" data-name="Grupo 1172010">
        <g id="Grupo_1171046" data-name="Grupo 1171046">
          <g id="Grupo_1148525" data-name="Grupo 1148525">
            <g transform="matrix(1, 0, 0, 1, -9, -6)" filter="url(#Trazado_982547)">
              <g id="Trazado_982547-2" data-name="Trazado 982547" transform="translate(9 6)" fill="#fdfbec">
                <path d="M 47.5 93.5 C 41.28937149047852 93.5 35.26533508300781 92.28397369384766 29.59518623352051 89.88570404052734 C 24.11771965026855 87.56893157958984 19.19813346862793 84.25196075439453 14.97309303283691 80.02691650390625 C 10.74804019927979 75.80186462402344 7.431066513061523 70.88229370117188 5.114293098449707 65.40481567382812 C 2.716026782989502 59.73468017578125 1.5 53.71062850952148 1.5 47.5 C 1.5 41.28937149047852 2.716026782989502 35.26533508300781 5.114293098449707 29.59518623352051 C 7.431066513061523 24.11771965026855 10.74804019927979 19.19813346862793 14.97309303283691 14.97309303283691 C 19.19813346862793 10.74804019927979 24.11771965026855 7.431066513061523 29.59518623352051 5.114293098449707 C 35.26533508300781 2.716026782989502 41.28937149047852 1.5 47.5 1.5 C 53.71062850952148 1.5 59.73468017578125 2.716026782989502 65.40481567382812 5.114293098449707 C 70.88229370117188 7.431066513061523 75.80186462402344 10.74804019927979 80.02691650390625 14.97309303283691 C 84.25196075439453 19.19813346862793 87.56893157958984 24.11771965026855 89.88570404052734 29.59518623352051 C 92.28397369384766 35.26533508300781 93.5 41.28937149047852 93.5 47.5 C 93.5 53.71062850952148 92.28397369384766 59.73468017578125 89.88570404052734 65.40481567382812 C 87.56893157958984 70.88229370117188 84.25196075439453 75.80186462402344 80.02691650390625 80.02691650390625 C 75.80186462402344 84.25196075439453 70.88229370117188 87.56893157958984 65.40481567382812 89.88570404052734 C 59.73468017578125 92.28397369384766 53.71062850952148 93.5 47.5 93.5 Z" stroke="none"/>
                <path d="M 47.5 3 C 41.49121475219727 3 35.66376876831055 4.176155090332031 30.17950439453125 6.495796203613281 C 24.88084411621094 8.736953735351562 20.12152099609375 11.94598388671875 16.03375244140625 16.03375244140625 C 11.94598388671875 20.12152099609375 8.736953735351562 24.88084411621094 6.495796203613281 30.17950439453125 C 4.176155090332031 35.66376876831055 3 41.49121475219727 3 47.5 C 3 53.50878524780273 4.176155090332031 59.33623123168945 6.495796203613281 64.82049560546875 C 8.736953735351562 70.11915588378906 11.94598388671875 74.87847900390625 16.03375244140625 78.96624755859375 C 20.12152099609375 83.05401611328125 24.88084411621094 86.26304626464844 30.17950439453125 88.50419616699219 C 35.66376876831055 90.82384490966797 41.49121475219727 92 47.5 92 C 53.50878524780273 92 59.33623123168945 90.82384490966797 64.82049560546875 88.50419616699219 C 70.11915588378906 86.26304626464844 74.87847900390625 83.05401611328125 78.96624755859375 78.96624755859375 C 83.05401611328125 74.87847900390625 86.26304626464844 70.11915588378906 88.50419616699219 64.82049560546875 C 90.82384490966797 59.33623123168945 92 53.50878524780273 92 47.5 C 92 41.49121475219727 90.82384490966797 35.66376876831055 88.50419616699219 30.17950439453125 C 86.26304626464844 24.88084411621094 83.05401611328125 20.12152099609375 78.96624755859375 16.03375244140625 C 74.87847900390625 11.94598388671875 70.11915588378906 8.736953735351562 64.82049560546875 6.495796203613281 C 59.33623123168945 4.176155090332031 53.50878524780273 3 47.5 3 M 47.5 0 C 73.7335205078125 0 95 21.2664794921875 95 47.5 C 95 73.7335205078125 73.7335205078125 95 47.5 95 C 21.2664794921875 95 0 73.7335205078125 0 47.5 C 0 21.2664794921875 21.2664794921875 0 47.5 0 Z" stroke="none" fill="#83793c"/>
              </g>
            </g>
          </g>
        </g>
      </g>
    </g>
    <g id="book_681624" transform="translate(930.212 923.76)">
      <path id="Trazado_1045587" data-name="Trazado 1045587" d="M42.861,158.213H58.237a11.713,11.713,0,0,1,8.194,3.193v-6.9H64.612a1.68,1.68,0,0,1-1.68-1.68V127.306a12.4,12.4,0,0,0-4.7-.914H42.861Z" transform="translate(-38.125 -97.496)" fill="#e0e0e0"/>
      <path id="Trazado_1045588" data-name="Trazado 1045588" d="M228.011,24.277l-3.477,7.271h6.954Z" transform="translate(-199.723 -6.665)" fill="#ffc89f"/>
      <path id="Trazado_1045589" data-name="Trazado 1045589" d="M244.894,24.277l-1.38,2.885,2.1,4.386h2.759Z" transform="translate(-216.605 -6.665)" fill="#f7b081"/>
      <path id="Trazado_1045590" data-name="Trazado 1045590" d="M224.5,337.439v3.117a1.68,1.68,0,0,0,1.679,1.679h3.6a1.68,1.68,0,0,0,1.68-1.679v-3.117Z" transform="translate(-199.694 -285.222)" fill="#546f7a"/>
      <path id="Trazado_1045591" data-name="Trazado 1045591" d="M249.008,337.439v3.117a1.68,1.68,0,0,1-1.68,1.679h2.759a1.68,1.68,0,0,0,1.68-1.679v-3.117Z" transform="translate(-219.998 -285.222)" fill="#475d63"/>
      <rect id="Rectángulo_416252" data-name="Rectángulo 416252" width="6.961" height="3.766" transform="translate(24.808 48.451)" fill="#ff6137"/>
      <rect id="Rectángulo_416253" data-name="Rectángulo 416253" width="2.759" height="3.766" transform="translate(29.009 48.451)" fill="#e04f32"/>
      <path id="Trazado_1045592" data-name="Trazado 1045592" d="M11.4,155.293H7.491v36.734H62.412V155.293H58.54v28.628H43.163a11.713,11.713,0,0,0-8.194,3.193,11.714,11.714,0,0,0-8.194-3.193H11.4Z" transform="translate(-6.663 -123.204)" fill="#39a4fa"/>
      <rect id="Rectángulo_416254" data-name="Rectángulo 416254" width="3.09" height="36.734" transform="translate(52.658 32.09)" fill="#0091e2"/>
      <path id="Trazado_1045593" data-name="Trazado 1045593" d="M264.357,126.393a12.4,12.4,0,0,0-4.731.928V152.83a1.68,1.68,0,0,1-1.68,1.68h-1.783v6.9a11.714,11.714,0,0,1,8.194-3.193h15.376V126.393Z" transform="translate(-227.857 -97.497)" fill="#bfbfbf"/>
      <rect id="Rectángulo_416255" data-name="Rectángulo 416255" width="7.587" height="7.587" transform="translate(38.213 34.865)" fill="#39a4fa"/>
      <rect id="Rectángulo_416256" data-name="Rectángulo 416256" width="7.587" height="7.587" transform="translate(11.057 47.792)" fill="#ff434d"/>
      <circle id="Elipse_12456" data-name="Elipse 12456" cx="4.578" cy="4.578" r="4.578" transform="translate(10.273 33.777)" fill="#ffd039"/>
      <path id="Trazado_1045594" data-name="Trazado 1045594" d="M58.092,414.366H42.716L42.7,417.4H58.074a11.714,11.714,0,0,1,8.194,3.193v-3.052A11.718,11.718,0,0,0,58.092,414.366Z" transform="translate(-37.98 -353.649)" fill="#bfbfbf"/>
      <path id="Trazado_1045595" data-name="Trazado 1045595" d="M264.176,414.366h15.376l.018,3.034H264.194A11.714,11.714,0,0,0,256,420.594v-3.052A11.718,11.718,0,0,1,264.176,414.366Z" transform="translate(-227.712 -353.649)" fill="#919191"/>
      <path id="Trazado_1045596" data-name="Trazado 1045596" d="M335.13,301.684h5.592l-5.592-8.522-5.592,8.522Z" transform="translate(-293.124 -245.838)" fill="#00b76c"/>
      <rect id="Rectángulo_416257" data-name="Rectángulo 416257" width="6.958" height="23.567" transform="translate(24.811 24.883)" fill="#ffd039"/>
      <rect id="Rectángulo_416258" data-name="Rectángulo 416258" width="2.759" height="23.567" transform="translate(29.009 24.883)" fill="#ffae47"/>
      <path id="Trazado_1045597" data-name="Trazado 1045597" d="M242.939,24.277l-1.623,3.393h3.245Z" transform="translate(-214.65 -6.665)" fill="#3c5156"/>
      <path id="Trazado_1045598" data-name="Trazado 1045598" d="M55.749,31.262H52.7V28.9a.828.828,0,0,0-.828-.828H36.5a13.435,13.435,0,0,0-3.9.582V24.883a.824.824,0,0,0-.112-.415l-1.826-3.82h0l-1.623-3.393a.828.828,0,0,0-1.494,0l-3.477,7.271,0,.011a.806.806,0,0,0-.031.078l0,.013a.828.828,0,0,0-.025.1s0,.009,0,.014c0,.026-.008.052-.01.079,0,.011,0,.022,0,.032s0,.023,0,.035V28.64a13.441,13.441,0,0,0-3.871-.572H4.736a.828.828,0,0,0-.828.828v2.366H.828A.828.828,0,0,0,0,32.089V68.823a.828.828,0,0,0,.828.828H55.749a.828.828,0,0,0,.828-.828V32.089A.828.828,0,0,0,55.749,31.262ZM27.187,21.833h2.2l1.063,2.222H26.125ZM54.921,68H1.656V32.917H3.908v19.3h0a.828.828,0,1,0,1.656,0h0V29.724H20.112a11.724,11.724,0,0,1,3.868.656v9.243a.828.828,0,0,0,.828.828.851.851,0,0,0,.086,0,.828.828,0,0,0,.745-.824V25.711h5.3V47.623h-5.3V42.934a.83.83,0,0,0-1.659,0v12.4a2.51,2.51,0,0,0,2.507,2.507h.991v4.308a12.864,12.864,0,0,0-7.366-2.26H5.564V55.528a.828.828,0,1,0-1.656,0v5.184L3.89,63.747a.828.828,0,0,0,.828.833H20.095a10.875,10.875,0,0,1,7.613,2.956c.013.013.028.025.042.037l.014.012a.8.8,0,0,0,.087.062l.021.012a.812.812,0,0,0,.087.045l.01,0,0,0,.046.016.032.011.044.011.035.009.043.006.036.005c.02,0,.04,0,.06,0h.04c.02,0,.04,0,.06,0l.036-.005.044-.007.035-.009.044-.011.032-.011.045-.016,0,0,.01,0a.825.825,0,0,0,.087-.044l.022-.013a.845.845,0,0,0,.086-.062l.015-.014c.014-.012.028-.023.041-.036a10.875,10.875,0,0,1,7.613-2.956H51.859a.828.828,0,0,0,.828-.833l-.017-2.794a.827.827,0,0,0,.035-.236V40.011a.828.828,0,1,0-1.656,0V59.89H36.464a12.874,12.874,0,0,0-7.33,2.236V57.841h.955A2.51,2.51,0,0,0,32.6,55.334V30.392a11.716,11.716,0,0,1,3.9-.669H51.048V36.7a.828.828,0,0,0,1.656,0V32.917h2.217V68ZM5.559,61.545H20.112c.168,0,.336,0,.5.011h.027q.242.011.482.032l.043,0c.157.014.312.031.468.051l.05.006q.23.031.458.071l.052.009q.227.041.452.09l.05.011q.225.051.448.11l.044.012q.224.061.445.131l.036.011q.224.072.444.152l.025.009q.225.083.445.176l.01,0a10.41,10.41,0,0,1,1.718.92l.009.006q.195.129.382.268l.02.015q.183.135.358.279l.027.022q.173.142.338.292l.015.014v.932a12.865,12.865,0,0,0-7.366-2.26H5.551Zm23.557,2.739a10.807,10.807,0,0,1,6.534-2.708l.084-.006q.163-.01.326-.016c.121,0,.243-.008.364-.008H51.017l.008,1.379H36.482a12.865,12.865,0,0,0-7.366,2.26v-.9Zm-.81-8.1H26.487a.853.853,0,0,1-.852-.852V53.045h5.306v2.289a.853.853,0,0,1-.852.852H28.306Zm-2.671-4.8v-2.11h5.306v2.11Z" transform="translate(0)"/>
      <path id="Trazado_1045599" data-name="Trazado 1045599" d="M90.881,173.887a5.406,5.406,0,1,0-5.406-5.406A5.412,5.412,0,0,0,90.881,173.887Zm0-9.157a3.75,3.75,0,1,1-3.75,3.751A3.755,3.755,0,0,1,90.881,164.731Z" transform="translate(-76.03 -130.126)"/>
      <path id="Trazado_1045600" data-name="Trazado 1045600" d="M329.159,286.044a.828.828,0,0,0-1.384,0l-5.592,8.522a.828.828,0,0,0,.692,1.282H334.06a.828.828,0,0,0,.692-1.282Zm-4.751,8.148,4.059-6.185,4.059,6.185Z" transform="translate(-286.46 -239.174)"/>
      <path id="Trazado_1045601" data-name="Trazado 1045601" d="M100.993,289.9H93.406a.828.828,0,0,0-.828.828v7.587a.828.828,0,0,0,.828.828h7.587a.828.828,0,0,0,.828-.828v-7.587A.828.828,0,0,0,100.993,289.9Zm-.828,7.587H94.234v-5.931h5.931Z" transform="translate(-82.348 -242.937)"/>
      <path id="Trazado_1045602" data-name="Trazado 1045602" d="M339.155,182.171h7.587a.828.828,0,0,0,.828-.828v-7.587a.828.828,0,0,0-.828-.828h-7.587a.828.828,0,0,0-.828.828v7.587A.828.828,0,0,0,339.155,182.171Zm.828-7.587h5.931v5.931h-5.931Z" transform="translate(-300.941 -138.89)"/>
    </g>
  </g>
</svg>
