<svg xmlns="http://www.w3.org/2000/svg" xmlns:xlink="http://www.w3.org/1999/xlink" width="113" height="113" viewBox="0 0 113 113">
  <defs>
    <filter id="Trazado_982547" x="0" y="0" width="113" height="113" filterUnits="userSpaceOnUse">
      <feOffset dy="3" input="SourceAlpha"/>
      <feGaussianBlur stdDeviation="3" result="blur"/>
      <feFlood flood-opacity="0.161"/>
      <feComposite operator="in" in2="blur"/>
      <feComposite in="SourceGraphic"/>
    </filter>
  </defs>
  <g id="Grupo_1201580" data-name="Grupo 1201580" transform="translate(-1216 -914.5)">
    <g id="Grupo_1201328" data-name="Grupo 1201328" transform="translate(1225 920.5)">
      <g id="Grupo_1172010" data-name="Grupo 1172010">
        <g id="Grupo_1171046" data-name="Grupo 1171046">
          <g id="Grupo_1148525" data-name="Grupo 1148525">
            <g transform="matrix(1, 0, 0, 1, -9, -6)" filter="url(#Trazado_982547)">
              <g id="Trazado_982547-2" data-name="Trazado 982547" transform="translate(9 6)" fill="#fdfbec">
                <path d="M 47.5 93.5 C 41.28937149047852 93.5 35.26533508300781 92.28397369384766 29.59518623352051 89.88570404052734 C 24.11771965026855 87.56893157958984 19.19813346862793 84.25196075439453 14.97309303283691 80.02691650390625 C 10.74804019927979 75.80186462402344 7.431066513061523 70.88229370117188 5.114293098449707 65.40481567382812 C 2.716026782989502 59.73468017578125 1.5 53.71062850952148 1.5 47.5 C 1.5 41.28937149047852 2.716026782989502 35.26533508300781 5.114293098449707 29.59518623352051 C 7.431066513061523 24.11771965026855 10.74804019927979 19.19813346862793 14.97309303283691 14.97309303283691 C 19.19813346862793 10.74804019927979 24.11771965026855 7.431066513061523 29.59518623352051 5.114293098449707 C 35.26533508300781 2.716026782989502 41.28937149047852 1.5 47.5 1.5 C 53.71062850952148 1.5 59.73468017578125 2.716026782989502 65.40481567382812 5.114293098449707 C 70.88229370117188 7.431066513061523 75.80186462402344 10.74804019927979 80.02691650390625 14.97309303283691 C 84.25196075439453 19.19813346862793 87.56893157958984 24.11771965026855 89.88570404052734 29.59518623352051 C 92.28397369384766 35.26533508300781 93.5 41.28937149047852 93.5 47.5 C 93.5 53.71062850952148 92.28397369384766 59.73468017578125 89.88570404052734 65.40481567382812 C 87.56893157958984 70.88229370117188 84.25196075439453 75.80186462402344 80.02691650390625 80.02691650390625 C 75.80186462402344 84.25196075439453 70.88229370117188 87.56893157958984 65.40481567382812 89.88570404052734 C 59.73468017578125 92.28397369384766 53.71062850952148 93.5 47.5 93.5 Z" stroke="none"/>
                <path d="M 47.5 3 C 41.49121475219727 3 35.66376876831055 4.176155090332031 30.17950439453125 6.495796203613281 C 24.88084411621094 8.736953735351562 20.12152099609375 11.94598388671875 16.03375244140625 16.03375244140625 C 11.94598388671875 20.12152099609375 8.736953735351562 24.88084411621094 6.495796203613281 30.17950439453125 C 4.176155090332031 35.66376876831055 3 41.49121475219727 3 47.5 C 3 53.50878524780273 4.176155090332031 59.33623123168945 6.495796203613281 64.82049560546875 C 8.736953735351562 70.11915588378906 11.94598388671875 74.87847900390625 16.03375244140625 78.96624755859375 C 20.12152099609375 83.05401611328125 24.88084411621094 86.26304626464844 30.17950439453125 88.50419616699219 C 35.66376876831055 90.82384490966797 41.49121475219727 92 47.5 92 C 53.50878524780273 92 59.33623123168945 90.82384490966797 64.82049560546875 88.50419616699219 C 70.11915588378906 86.26304626464844 74.87847900390625 83.05401611328125 78.96624755859375 78.96624755859375 C 83.05401611328125 74.87847900390625 86.26304626464844 70.11915588378906 88.50419616699219 64.82049560546875 C 90.82384490966797 59.33623123168945 92 53.50878524780273 92 47.5 C 92 41.49121475219727 90.82384490966797 35.66376876831055 88.50419616699219 30.17950439453125 C 86.26304626464844 24.88084411621094 83.05401611328125 20.12152099609375 78.96624755859375 16.03375244140625 C 74.87847900390625 11.94598388671875 70.11915588378906 8.736953735351562 64.82049560546875 6.495796203613281 C 59.33623123168945 4.176155090332031 53.50878524780273 3 47.5 3 M 47.5 0 C 73.7335205078125 0 95 21.2664794921875 95 47.5 C 95 73.7335205078125 73.7335205078125 95 47.5 95 C 21.2664794921875 95 0 73.7335205078125 0 47.5 C 0 21.2664794921875 21.2664794921875 0 47.5 0 Z" stroke="none" fill="#83793c"/>
              </g>
            </g>
          </g>
        </g>
      </g>
    </g>
    <g id="laptop-wifi-internet-tool-configuration" transform="translate(1242.772 937.773)">
      <path id="Trazado_1045603" data-name="Trazado 1045603" d="M7,18.882V50.874H54.047V18.882A1.882,1.882,0,0,0,52.165,17H8.882A1.882,1.882,0,0,0,7,18.882Z" transform="translate(-0.295 -0.886)" fill="#46f8ff"/>
      <path id="Trazado_1045604" data-name="Trazado 1045604" d="M56.646,18.882V50.874H52.882V18.882A1.888,1.888,0,0,0,51,17h3.764a1.888,1.888,0,0,1,1.882,1.882Z" transform="translate(-2.894 -0.886)" fill="#00e7f0"/>
      <path id="Trazado_1045605" data-name="Trazado 1045605" d="M45.228,28.882V51.464H17V28.882A1.888,1.888,0,0,1,18.882,27H43.346A1.888,1.888,0,0,1,45.228,28.882Z" transform="translate(-0.886 -1.477)" fill="#fee9ab"/>
      <path id="Trazado_1045606" data-name="Trazado 1045606" d="M46.646,28.882V51.464H42.882V28.882A1.888,1.888,0,0,0,41,27h3.764A1.888,1.888,0,0,1,46.646,28.882Z" transform="translate(-2.303 -1.477)" fill="#ffde55"/>
      <path id="Trazado_1045607" data-name="Trazado 1045607" d="M57.574,53v3.764a3.764,3.764,0,0,1-3.764,3.764H6.764A3.764,3.764,0,0,1,3,56.764V53Z" transform="translate(-0.059 -3.012)" fill="#898890"/>
      <path id="Trazado_1045608" data-name="Trazado 1045608" d="M60.527,53v3.764a3.764,3.764,0,0,1-3.764,3.764H53a3.764,3.764,0,0,0,3.764-3.764V53Z" transform="translate(-3.012 -3.012)" fill="#787680"/>
      <path id="Trazado_1045609" data-name="Trazado 1045609" d="M55.15,19a9.85,9.85,0,0,1-.64,1.524l2.973,2.973-3.99,3.99L50.52,24.51A9.85,9.85,0,0,1,49,25.15v4.2H43.35v-4.2a9.85,9.85,0,0,1-1.524-.64l-2.973,2.973-3.99-3.99,2.973-2.973A9.849,9.849,0,0,1,37.2,19H33V13.35h4.2a9.849,9.849,0,0,1,.64-1.524L34.863,8.853l3.99-3.99,2.973,2.973A9.849,9.849,0,0,1,43.35,7.2V3H49V7.2a9.85,9.85,0,0,1,1.524.64l2.973-2.973,3.99,3.99L54.51,11.826a9.851,9.851,0,0,1,.64,1.524h4.2V19Z" transform="translate(-1.831 -0.059)" fill="#a78966"/>
      <circle id="Elipse_12457" data-name="Elipse 12457" cx="6" cy="6" r="6" transform="translate(38.228 10.227)" fill="#c0ab91"/>
      <path id="Trazado_1045610" data-name="Trazado 1045610" d="M55.977,19a9.85,9.85,0,0,1-.64,1.524l2.973,2.973-3.99,3.99L51.347,24.51a9.85,9.85,0,0,1-1.524.64v4.2H47V3h2.823V7.2a9.85,9.85,0,0,1,1.524.64L54.32,4.863l3.99,3.99-2.973,2.973a9.85,9.85,0,0,1,.64,1.524h4.2V19Z" transform="translate(-2.658 -0.059)" fill="#806749"/>
      <path id="Trazado_1045611" data-name="Trazado 1045611" d="M52.646,16.646A5.646,5.646,0,0,1,47,22.291V11a5.646,5.646,0,0,1,5.646,5.646Z" transform="translate(-2.658 -0.532)" fill="#a78966"/>
      <path id="Trazado_1045612" data-name="Trazado 1045612" d="M40.819,53v1.882a1.888,1.888,0,0,1-1.882,1.882H23.882A1.888,1.888,0,0,1,22,54.882V53Z" transform="translate(-1.181 -3.012)" fill="#c6c5ca"/>
      <path id="Trazado_1045613" data-name="Trazado 1045613" d="M41.646,53v1.882a1.888,1.888,0,0,1-1.882,1.882H36a1.888,1.888,0,0,0,1.882-1.882V53Z" transform="translate(-2.008 -3.012)" fill="#acabb1"/>
      <ellipse id="Elipse_12458" data-name="Elipse 12458" cx="2" cy="1.5" rx="2" ry="1.5" transform="translate(12.228 14.227)" fill="#ff3051"/>
      <path id="Trazado_1045614" data-name="Trazado 1045614" d="M16.823,16.882A1.882,1.882,0,0,1,14,18.51a1.882,1.882,0,0,0,0-3.256,1.882,1.882,0,0,1,2.823,1.628Z" transform="translate(-0.709 -0.768)" fill="#cd2a00"/>
      <path id="Trazado_1045615" data-name="Trazado 1045615" d="M57.515,19.878a.941.941,0,0,0,.941-.941V13.291a.941.941,0,0,0-.941-.941H53.987l-.169-.4,2.5-2.493a.932.932,0,0,0,.273-.668.948.948,0,0,0-.273-.668l-3.99-3.99a.948.948,0,0,0-1.336,0L48.5,6.639l-.4-.169V2.941A.941.941,0,0,0,47.165,2H41.519a.941.941,0,0,0-.941.941V6.469l-.4.169-2.493-2.5a.948.948,0,0,0-1.336,0l-3.99,3.99a.948.948,0,0,0-.273.668.932.932,0,0,0,.273.668l2.5,2.493-.169.4H31.169a.941.941,0,0,0-.941.941v1.882H16.886a2.812,2.812,0,0,0-5.307,0H8.587A2.831,2.831,0,0,0,5.764,18V49.047H2.941A.941.941,0,0,0,2,49.988v3.764a4.7,4.7,0,0,0,4.7,4.7H53.752a4.7,4.7,0,0,0,4.7-4.7V49.988a.941.941,0,0,0-.941-.941H54.692V25.721L56.32,24.1a.948.948,0,0,0,.273-.668.932.932,0,0,0-.273-.668l-2.5-2.493.169-.4Zm-43.283-4.7a.941.941,0,1,1-.941.941A.941.941,0,0,1,14.232,15.173ZM7.646,18a.941.941,0,0,1,.941-.941h2.992a2.812,2.812,0,0,0,5.307,0H30.228v1.882a.941.941,0,0,0,.941.941H34.7l.169.4-2.5,2.493a.932.932,0,0,0-.273.668.947.947,0,0,0,.273.668l.489.48H18a2.831,2.831,0,0,0-2.823,2.823V49.047H7.646ZM41.519,30.228H43.4V49.047H17.055V27.405A.941.941,0,0,1,18,26.464H34.735l1.618,1.628a.948.948,0,0,0,1.336,0l2.493-2.5.4.169v3.529A.941.941,0,0,0,41.519,30.228ZM38.7,50.929v.941a.941.941,0,0,1-.941.941H22.7a.941.941,0,0,1-.941-.941v-.941Zm17.878,0v2.823a2.831,2.831,0,0,1-2.823,2.823H6.7a2.831,2.831,0,0,1-2.823-2.823V50.929h16v.941A2.831,2.831,0,0,0,22.7,54.692H37.756a2.831,2.831,0,0,0,2.823-2.823v-.941ZM45.283,49.047V30.228h1.882a.941.941,0,0,0,.941-.941V25.759l.4-.169,2.493,2.5a.948.948,0,0,0,1.336,0l.48-.489V49.047ZM52.02,21.129l2.305,2.305L51.663,26.1l-2.305-2.305a.941.941,0,0,0-1.1-.169,9.926,9.926,0,0,1-1.374.574.929.929,0,0,0-.659.894v3.256H42.46V25.091A.929.929,0,0,0,41.8,24.2a9.926,9.926,0,0,1-1.374-.574.941.941,0,0,0-1.1.169L37.022,26.1l-2.663-2.663,2.305-2.305a.931.931,0,0,0,.169-1.1,9.05,9.05,0,0,1-.574-1.374A.929.929,0,0,0,35.366,18H32.11V14.232h3.256a.929.929,0,0,0,.894-.659,9.051,9.051,0,0,1,.574-1.374.931.931,0,0,0-.169-1.1L34.359,8.794l2.663-2.663,2.305,2.305a.931.931,0,0,0,1.1.169A9.926,9.926,0,0,1,41.8,8.031a.929.929,0,0,0,.659-.894V3.882h3.764V7.138a.929.929,0,0,0,.659.894,9.926,9.926,0,0,1,1.374.574.928.928,0,0,0,1.1-.169l2.305-2.305,2.663,2.663L52.02,11.1a.931.931,0,0,0-.169,1.1,9.05,9.05,0,0,1,.574,1.374.929.929,0,0,0,.894.659h3.256V18H53.319a.929.929,0,0,0-.894.659,9.05,9.05,0,0,1-.574,1.374.931.931,0,0,0,.169,1.1Z" transform="translate(0 0)"/>
      <path id="Trazado_1045616" data-name="Trazado 1045616" d="M46.587,10a6.587,6.587,0,1,0,6.587,6.587A6.587,6.587,0,0,0,46.587,10Zm0,11.291a4.7,4.7,0,1,1,4.7-4.7,4.7,4.7,0,0,1-4.7,4.7Z" transform="translate(-2.244 -0.473)"/>
      <path id="Trazado_1045617" data-name="Trazado 1045617" d="M14.374,3.882a12.187,12.187,0,0,1,8.651,3.584l1.328-1.334a14.114,14.114,0,0,0-19.957,0L5.723,7.466a12.187,12.187,0,0,1,8.651-3.584Z" transform="translate(-0.141)"/>
      <path id="Trazado_1045618" data-name="Trazado 1045618" d="M21.858,9.033a10.345,10.345,0,0,0-14.635,0l1.33,1.33a8.468,8.468,0,0,1,11.974,0Z" transform="translate(-0.308 -0.236)"/>
      <path id="Trazado_1045619" data-name="Trazado 1045619" d="M10.049,11.935l1.337,1.325a4.693,4.693,0,0,1,6.643,0l1.337-1.325a6.576,6.576,0,0,0-9.315,0Z" transform="translate(-0.475 -0.473)"/>
      <path id="Trazado_1045620" data-name="Trazado 1045620" d="M22,32h1.882v1.882H22Z" transform="translate(-1.181 -1.772)"/>
      <path id="Trazado_1045621" data-name="Trazado 1045621" d="M26,32H41.055v1.882H26Z" transform="translate(-1.418 -1.772)"/>
      <path id="Trazado_1045622" data-name="Trazado 1045622" d="M22,36H40.819v1.882H22Z" transform="translate(-1.181 -2.008)"/>
      <path id="Trazado_1045623" data-name="Trazado 1045623" d="M22,40H40.819v1.882H22Z" transform="translate(-1.181 -2.244)"/>
      <path id="Trazado_1045624" data-name="Trazado 1045624" d="M22,44H40.819v1.882H22Z" transform="translate(-1.181 -2.481)"/>
      <path id="Trazado_1045625" data-name="Trazado 1045625" d="M22,48H40.819v1.882H22Z" transform="translate(-1.181 -2.717)"/>
    </g>
  </g>
</svg>
